NerdfontsPL-Regular.ufo
<glyph name="uniE0A0" format="2">
  <advance width="1200"/>
  <unicode hex="E0A0"/>
  <note>
uniE0A0
</note>
  <outline>
    <contour>
      <point x="168" y="-480" type="line"/>
      <point x="444" y="-480" type="line"/>
      <point x="444" y="48" type="line" smooth="yes"/>
      <point x="444" y="307"/>
      <point x="527" y="350"/>
      <point x="788" y="528" type="curve" smooth="yes"/>
      <point x="946" y="636"/>
      <point x="1001" y="742"/>
      <point x="1001" y="934" type="curve" smooth="yes"/>
      <point x="1001" y="1576" type="line"/>
      <point x="1210" y="1576" type="line"/>
      <point x="919" y="1918" type="line"/>
      <point x="626" y="1576" type="line"/>
      <point x="835" y="1576" type="line"/>
      <point x="835" y="990" type="line" smooth="yes"/>
      <point x="835" y="865"/>
      <point x="798" y="777"/>
      <point x="669" y="702" type="curve" smooth="yes"/>
      <point x="216" y="439"/>
      <point x="168" y="348"/>
      <point x="168" y="48" type="curve"/>
    </contour>
    <contour>
      <point x="168" y="682" type="line"/>
      <point x="444" y="860" type="line"/>
      <point x="444" y="2226" type="line"/>
      <point x="168" y="2226" type="line"/>
    </contour>
  </outline>
</glyph>
<glyph name="uniE0A2" format="2">
  <advance width="1200"/>
  <unicode hex="E0A2"/>
  <note>
uniE0A2
</note>
  <outline>
    <contour>
      <point x="334" y="-52" type="curve"/>
      <point x="864" y="-52" type="line" smooth="yes"/>
      <point x="959" y="-52"/>
      <point x="1006" y="-5"/>
      <point x="1006" y="89" type="curve" smooth="yes"/>
      <point x="1006" y="777" type="line" smooth="yes"/>
      <point x="1006" y="878"/>
      <point x="965" y="929"/>
      <point x="884" y="929" type="curve"/>
      <point x="884" y="1234" type="line" smooth="yes"/>
      <point x="884" y="1445"/>
      <point x="790" y="1550"/>
      <point x="600" y="1550" type="curve" smooth="yes"/>
      <point x="410" y="1550"/>
      <point x="316" y="1445"/>
      <point x="316" y="1234" type="curve" smooth="yes"/>
      <point x="316" y="929" type="line"/>
      <point x="235" y="929"/>
      <point x="194" y="878"/>
      <point x="194" y="777" type="curve" smooth="yes"/>
      <point x="194" y="89" type="line" smooth="yes"/>
      <point x="194" y="-5"/>
      <point x="241" y="-52"/>
    </contour>
    <contour>
      <point x="542" y="184" type="line"/>
      <point x="542" y="507" type="line"/>
      <point x="498" y="530"/>
      <point x="476" y="567"/>
      <point x="476" y="618" type="curve" smooth="yes"/>
      <point x="476" y="688"/>
      <point x="531" y="743"/>
      <point x="599" y="743" type="curve" smooth="yes"/>
      <point x="666" y="743"/>
      <point x="722" y="693"/>
      <point x="722" y="618" type="curve" smooth="yes"/>
      <point x="722" y="567"/>
      <point x="700" y="530"/>
      <point x="656" y="507" type="curve"/>
      <point x="656" y="184" type="line"/>
    </contour>
    <contour>
      <point x="452" y="929" type="line"/>
      <point x="452" y="1234" type="line" smooth="yes"/>
      <point x="452" y="1359"/>
      <point x="501" y="1421"/>
      <point x="600" y="1421" type="curve" smooth="yes"/>
      <point x="699" y="1421"/>
      <point x="748" y="1359"/>
      <point x="748" y="1234" type="curve" smooth="yes"/>
      <point x="748" y="929" type="line"/>
    </contour>
  </outline>
</glyph>
<glyph name="uniE0A3" format="2">
  <advance width="1200"/>
  <unicode hex="E0A3"/>
  <note>
uniE0A3
</note>
  <outline>
    <contour>
      <point x="386" y="-231" type="line"/>
      <point x="542" y="-231" type="line"/>
      <point x="542" y="-35" type="line"/>
      <point x="524" y="353" type="line"/>
      <point x="768" y="-231" type="line"/>
      <point x="934" y="-231" type="line"/>
      <point x="934" y="669" type="line"/>
      <point x="778" y="669" type="line"/>
      <point x="778" y="511" type="line"/>
      <point x="798" y="83" type="line"/>
      <point x="550" y="669" type="line"/>
      <point x="386" y="669" type="line"/>
    </contour>
    <contour>
      <point x="266" y="751" type="line"/>
      <point x="770" y="751" type="line"/>
      <point x="770" y="883" type="line"/>
      <point x="418" y="883" type="line"/>
      <point x="418" y="1519" type="line"/>
      <point x="770" y="1519" type="line"/>
      <point x="770" y="1651" type="line"/>
      <point x="266" y="1651" type="line"/>
    </contour>
  </outline>
</glyph>
<glyph name="uniE0B2" format="2">
  <advance width="1200"/>
  <unicode hex="E0B2"/>
  <note>
uniE0B2
</note>
  <outline>
    <contour>
      <point x="1200" y="-480" type="line"/>
      <point x="1200" y="2226" type="line"/>
      <point x="0" y="873" type="line"/>
    </contour>
    <contour>
      <point x="1200" y="-480" type="line"/>
      <point x="1300" y="-480" type="line"/>
      <point x="1300" y="2226" type="line"/>
      <point x="1200" y="2226" type="line"/>
    </contour>
  </outline>
</glyph>
<glyph name="uniE0B3" format="2">
  <advance width="1200"/>
  <unicode hex="E0B3"/>
  <note>
uniE0B3
</note>
  <outline>
    <contour>
      <point x="1097" y="-480" type="line"/>
      <point x="1200" y="-372" type="line"/>
      <point x="200" y="873" type="line"/>
      <point x="1200" y="2119" type="line"/>
      <point x="1097" y="2226" type="line"/>
      <point x="0" y="873" type="line"/>
    </contour>
  </outline>
</glyph>
<glyph name="uniE0B4" format="2">
  <advance width="1200"/>
  <unicode hex="E0B4"/>
  <note>
uniE0B4
</note>
  <outline>
    <contour>
      <point x="0" y="-480" type="line"/>
      <point x="723" y="-480"/>
      <point x="1200" y="57"/>
      <point x="1200" y="873" type="curve" smooth="yes"/>
      <point x="1200" y="1689"/>
      <point x="723" y="2226"/>
      <point x="0" y="2226" type="curve"/>
    </contour>
  </outline>
</glyph>
<glyph name="uniE0B5" format="2">
  <advance width="1200"/>
  <unicode hex="E0B5"/>
  <note>
uniE0B5
</note>
  <outline>
    <contour>
      <point x="0" y="-480" type="curve"/>
      <point x="238" y="-480" type="line"/>
      <point x="818" y="-273"/>
      <point x="1200" y="264"/>
      <point x="1200" y="873" type="curve" smooth="yes"/>
      <point x="1200" y="1480"/>
      <point x="818" y="2017"/>
      <point x="238" y="2226" type="curve"/>
      <point x="0" y="2226" type="line"/>
      <point x="580" y="2012"/>
      <point x="962" y="1475"/>
      <point x="962" y="873" type="curve" smooth="yes"/>
      <point x="962" y="269"/>
      <point x="580" y="-268"/>
    </contour>
  </outline>
</glyph>
<glyph name="uniE0B6" format="2">
  <advance width="1200"/>
  <unicode hex="E0B6"/>
  <note>
uniE0B6
</note>
  <outline>
    <contour>
      <point x="1200" y="-480" type="curve"/>
      <point x="1200" y="2226" type="line"/>
      <point x="477" y="2226"/>
      <point x="0" y="1689"/>
      <point x="0" y="873" type="curve" smooth="yes"/>
      <point x="0" y="57"/>
      <point x="477" y="-480"/>
    </contour>
  </outline>
</glyph>
<glyph name="uniE0B7" format="2">
  <advance width="1200"/>
  <unicode hex="E0B7"/>
  <note>
uniE0B7
</note>
  <outline>
    <contour>
      <point x="962" y="-480" type="curve"/>
      <point x="1200" y="-480" type="line"/>
      <point x="620" y="-268"/>
      <point x="238" y="269"/>
      <point x="238" y="873" type="curve" smooth="yes"/>
      <point x="238" y="1475"/>
      <point x="620" y="2012"/>
      <point x="1200" y="2226" type="curve"/>
      <point x="962" y="2226" type="line"/>
      <point x="382" y="2017"/>
      <point x="0" y="1480"/>
      <point x="0" y="873" type="curve" smooth="yes"/>
      <point x="0" y="264"/>
      <point x="382" y="-273"/>
    </contour>
  </outline>
</glyph>
<glyph name="uniE0BE" format="2">
  <advance width="1200"/>
  <unicode hex="E0BE"/>
  <note>
uniE0BE
</note>
  <outline>
    <contour>
      <point x="1200" y="-480" type="line"/>
      <point x="1200" y="2226" type="line"/>
      <point x="0" y="2226" type="line"/>
    </contour>
    <contour>
      <point x="1200" y="-480" type="line"/>
      <point x="1300" y="-480" type="line"/>
      <point x="1300" y="2226" type="line"/>
      <point x="1200" y="2226" type="line"/>
    </contour>
  </outline>
</glyph>
<glyph name="uniE0C0" format="2">
  <advance width="1200"/>
  <unicode hex="E0C0"/>
  <note>
uniE0C0
</note>
  <outline>
    <contour>
      <point x="10" y="-480" type="line"/>
      <point x="31" y="-480"/>
      <point x="56" y="-444"/>
      <point x="80" y="-398" type="curve" smooth="yes"/>
      <point x="93" y="-370"/>
      <point x="106" y="-344"/>
      <point x="119" y="-318" type="curve" smooth="yes"/>
      <point x="141" y="-274"/>
      <point x="166" y="-241"/>
      <point x="187" y="-241" type="curve" smooth="yes"/>
      <point x="191" y="-241"/>
      <point x="195" y="-242"/>
      <point x="199" y="-245" type="curve" smooth="yes"/>
      <point x="209" y="-252"/>
      <point x="221" y="-256"/>
      <point x="231" y="-256" type="curve" smooth="yes"/>
      <point x="240" y="-256"/>
      <point x="248" y="-253"/>
      <point x="256" y="-250" type="curve" smooth="yes"/>
      <point x="265" y="-246"/>
      <point x="275" y="-240"/>
      <point x="285" y="-234" type="curve" smooth="yes"/>
      <point x="300" y="-223"/>
      <point x="327" y="-199"/>
      <point x="342" y="-189" type="curve" smooth="yes"/>
      <point x="353" y="-181"/>
      <point x="363" y="-175"/>
      <point x="371" y="-170" type="curve"/>
      <point x="354" y="-159"/>
      <point x="322" y="-148"/>
      <point x="299" y="-133" type="curve" smooth="yes"/>
      <point x="288" y="-124"/>
      <point x="277" y="-112"/>
      <point x="268" y="-98" type="curve" smooth="yes"/>
      <point x="243" y="-60"/>
      <point x="226" y="-41"/>
      <point x="207" y="-41" type="curve" smooth="yes"/>
      <point x="203" y="-41"/>
      <point x="198" y="-42"/>
      <point x="194" y="-44" type="curve" smooth="yes"/>
      <point x="181" y="-50"/>
      <point x="167" y="-63"/>
      <point x="152" y="-86" type="curve"/>
      <point x="152" y="-65" type="line" smooth="yes"/>
      <point x="149" y="57"/>
      <point x="189" y="165"/>
      <point x="225" y="204" type="curve" smooth="yes"/>
      <point x="236" y="217"/>
      <point x="249" y="223"/>
      <point x="261" y="223" type="curve" smooth="yes"/>
      <point x="274" y="223"/>
      <point x="288" y="216"/>
      <point x="300" y="206" type="curve" smooth="yes"/>
      <point x="312" y="196"/>
      <point x="324" y="184"/>
      <point x="337" y="170" type="curve" smooth="yes"/>
      <point x="357" y="148"/>
      <point x="391" y="106"/>
      <point x="410" y="91" type="curve" smooth="yes"/>
      <point x="424" y="80"/>
      <point x="437" y="76"/>
      <point x="448" y="76" type="curve" smooth="yes"/>
      <point x="508" y="76"/>
      <point x="578" y="108"/>
      <point x="625" y="185" type="curve"/>
      <point x="597" y="162"/>
      <point x="571" y="150"/>
      <point x="547" y="150" type="curve" smooth="yes"/>
      <point x="536" y="150"/>
      <point x="526" y="154"/>
      <point x="516" y="158" type="curve" smooth="yes"/>
      <point x="491" y="170"/>
      <point x="471" y="206"/>
      <point x="461" y="241" type="curve" smooth="yes"/>
      <point x="451" y="275"/>
      <point x="434" y="333"/>
      <point x="421" y="364" type="curve" smooth="yes"/>
      <point x="414" y="379" type="line"/>
      <point x="435" y="399"/>
      <point x="448" y="416"/>
      <point x="462" y="445" type="curve" smooth="yes"/>
      <point x="464" y="449"/>
      <point x="469" y="460"/>
      <point x="476" y="477" type="curve" smooth="yes"/>
      <point x="483" y="494"/>
      <point x="488" y="506"/>
      <point x="491" y="514" type="curve" smooth="yes"/>
      <point x="497" y="526"/>
      <point x="503" y="530"/>
      <point x="512" y="530" type="curve" smooth="yes"/>
      <point x="527" y="530"/>
      <point x="545" y="515"/>
      <point x="562" y="496" type="curve" smooth="yes"/>
      <point x="577" y="478"/>
      <point x="607" y="441"/>
      <point x="624" y="421" type="curve" smooth="yes"/>
      <point x="636" y="407"/>
      <point x="646" y="395"/>
      <point x="655" y="387" type="curve" smooth="yes"/>
      <point x="672" y="370"/>
      <point x="690" y="364"/>
      <point x="705" y="364" type="curve" smooth="yes"/>
      <point x="713" y="364"/>
      <point x="738" y="370"/>
      <point x="747" y="370" type="curve" smooth="yes"/>
      <point x="769" y="370"/>
      <point x="812" y="416"/>
      <point x="842" y="451" type="curve" smooth="yes"/>
      <point x="859" y="469"/>
      <point x="890" y="509"/>
      <point x="906" y="529" type="curve" smooth="yes"/>
      <point x="925" y="552"/>
      <point x="952" y="586"/>
      <point x="969" y="608" type="curve"/>
      <point x="895" y="560"/>
      <point x="824" y="526"/>
      <point x="784" y="526" type="curve" smooth="yes"/>
      <point x="774" y="526"/>
      <point x="766" y="528"/>
      <point x="760" y="532" type="curve"/>
      <point x="760" y="533"/>
      <point x="694" y="588"/>
      <point x="683" y="607" type="curve" smooth="yes"/>
      <point x="656" y="650"/>
      <point x="620" y="726"/>
      <point x="590" y="768" type="curve" smooth="yes"/>
      <point x="580" y="781"/>
      <point x="571" y="788"/>
      <point x="564" y="788" type="curve" smooth="yes"/>
      <point x="563" y="788"/>
      <point x="562" y="788"/>
      <point x="560" y="786" type="curve" smooth="yes"/>
      <point x="547" y="781" type="line"/>
      <point x="556" y="808" type="line" smooth="yes"/>
      <point x="584" y="896"/>
      <point x="616" y="936"/>
      <point x="648" y="946" type="curve" smooth="yes"/>
      <point x="667" y="952"/>
      <point x="675" y="954"/>
      <point x="699" y="956" type="curve" smooth="yes"/>
      <point x="710" y="957"/>
      <point x="719" y="957"/>
      <point x="725" y="958" type="curve" smooth="yes"/>
      <point x="769" y="966"/>
      <point x="802" y="994"/>
      <point x="847" y="1056" type="curve"/>
      <point x="835" y="1049"/>
      <point x="824" y="1047"/>
      <point x="812" y="1047" type="curve" smooth="yes"/>
      <point x="802" y="1047"/>
      <point x="792" y="1049"/>
      <point x="783" y="1055" type="curve" smooth="yes"/>
      <point x="754" y="1072"/>
      <point x="742" y="1069"/>
      <point x="712" y="1091" type="curve" smooth="yes"/>
      <point x="694" y="1103"/>
      <point x="679" y="1122"/>
      <point x="667" y="1150" type="curve" smooth="yes"/>
      <point x="661" y="1166" type="line"/>
      <point x="680" y="1180"/>
      <point x="706" y="1208"/>
      <point x="730" y="1249" type="curve" smooth="yes"/>
      <point x="736" y="1259"/>
      <point x="775" y="1334"/>
      <point x="777" y="1336" type="curve"/>
      <point x="809" y="1398"/>
      <point x="849" y="1430"/>
      <point x="884" y="1433" type="curve" smooth="yes"/>
      <point x="890" y="1433"/>
      <point x="895" y="1434"/>
      <point x="901" y="1434" type="curve" smooth="yes"/>
      <point x="932" y="1434"/>
      <point x="965" y="1428"/>
      <point x="994" y="1417" type="curve" smooth="yes"/>
      <point x="1016" y="1408"/>
      <point x="1039" y="1404"/>
      <point x="1062" y="1404" type="curve" smooth="yes"/>
      <point x="1076" y="1404"/>
      <point x="1089" y="1405"/>
      <point x="1102" y="1408" type="curve" smooth="yes"/>
      <point x="1135" y="1417"/>
      <point x="1171" y="1457"/>
      <point x="1200" y="1531" type="curve"/>
      <point x="1174" y="1491"/>
      <point x="1146" y="1476"/>
      <point x="1121" y="1476" type="curve" smooth="yes"/>
      <point x="1105" y="1476"/>
      <point x="1086" y="1484"/>
      <point x="1065" y="1503" type="curve" smooth="yes"/>
      <point x="1032" y="1533"/>
      <point x="1009" y="1563"/>
      <point x="972" y="1617" type="curve" smooth="yes"/>
      <point x="915" y="1700"/>
      <point x="858" y="1743"/>
      <point x="803" y="1743" type="curve" smooth="yes"/>
      <point x="772" y="1743"/>
      <point x="741" y="1730"/>
      <point x="711" y="1704" type="curve" smooth="yes"/>
      <point x="679" y="1675"/>
      <point x="636" y="1607"/>
      <point x="605" y="1561" type="curve" smooth="yes"/>
      <point x="578" y="1521"/>
      <point x="545" y="1488"/>
      <point x="513" y="1488" type="curve" smooth="yes"/>
      <point x="505" y="1488"/>
      <point x="497" y="1490"/>
      <point x="489" y="1495" type="curve" smooth="yes"/>
      <point x="445" y="1518"/>
      <point x="418" y="1589"/>
      <point x="418" y="1670" type="curve" smooth="yes"/>
      <point x="418" y="1740"/>
      <point x="437" y="1802"/>
      <point x="474" y="1838" type="curve" smooth="yes"/>
      <point x="493" y="1859"/>
      <point x="521" y="1883"/>
      <point x="540" y="1903" type="curve" smooth="yes"/>
      <point x="548" y="1912"/>
      <point x="557" y="1922"/>
      <point x="567" y="1936" type="curve" smooth="yes"/>
      <point x="588" y="1962"/>
      <point x="605" y="1995"/>
      <point x="622" y="2038" type="curve"/>
      <point x="591" y="1987"/>
      <point x="562" y="1954"/>
      <point x="531" y="1954" type="curve" smooth="yes"/>
      <point x="512" y="1954"/>
      <point x="493" y="1966"/>
      <point x="471" y="1994" type="curve" smooth="yes"/>
      <point x="448" y="2022"/>
      <point x="427" y="2035"/>
      <point x="407" y="2035" type="curve" smooth="yes"/>
      <point x="391" y="2035"/>
      <point x="377" y="2028"/>
      <point x="363" y="2012" type="curve" smooth="yes"/>
      <point x="347" y="1995"/>
      <point x="328" y="1966"/>
      <point x="308" y="1926" type="curve" smooth="yes"/>
      <point x="297" y="1903"/>
      <point x="277" y="1863"/>
      <point x="259" y="1832" type="curve" smooth="yes"/>
      <point x="250" y="1815"/>
      <point x="243" y="1803"/>
      <point x="237" y="1795" type="curve" smooth="yes"/>
      <point x="230" y="1788"/>
      <point x="222" y="1778"/>
      <point x="214" y="1767" type="curve" smooth="yes"/>
      <point x="201" y="1751"/>
      <point x="188" y="1742"/>
      <point x="176" y="1742" type="curve" smooth="yes"/>
      <point x="159" y="1742"/>
      <point x="144" y="1759"/>
      <point x="134" y="1798" type="curve" smooth="yes"/>
      <point x="130" y="1810"/>
      <point x="129" y="1821"/>
      <point x="129" y="1833" type="curve" smooth="yes"/>
      <point x="129" y="1852"/>
      <point x="134" y="1872"/>
      <point x="143" y="1891" type="curve" smooth="yes"/>
      <point x="150" y="1904"/>
      <point x="163" y="1925"/>
      <point x="182" y="1950" type="curve" smooth="yes"/>
      <point x="201" y="1975"/>
      <point x="213" y="1995"/>
      <point x="216" y="2007" type="curve" smooth="yes"/>
      <point x="224" y="2035"/>
      <point x="252" y="2129"/>
      <point x="263" y="2151" type="curve" smooth="yes"/>
      <point x="279" y="2186"/>
      <point x="294" y="2206"/>
      <point x="321" y="2203" type="curve"/>
      <point x="303" y="2228"/>
      <point x="285" y="2241"/>
      <point x="267" y="2241" type="curve" smooth="yes"/>
      <point x="241" y="2241"/>
      <point x="216" y="2218"/>
      <point x="190" y="2172" type="curve" smooth="yes"/>
      <point x="172" y="2140"/>
      <point x="160" y="2123"/>
      <point x="142" y="2101" type="curve" smooth="yes"/>
      <point x="132" y="2089"/>
      <point x="124" y="2080"/>
      <point x="116" y="2077" type="curve" smooth="yes"/>
      <point x="110" y="2074"/>
      <point x="104" y="2072"/>
      <point x="98" y="2072" type="curve" smooth="yes"/>
      <point x="78" y="2072"/>
      <point x="60" y="2092"/>
      <point x="43" y="2141" type="curve" smooth="yes"/>
      <point x="32" y="2173"/>
      <point x="29" y="2194"/>
      <point x="20" y="2211" type="curve" smooth="yes"/>
      <point x="14" y="2221"/>
      <point x="10" y="2221"/>
      <point x="1" y="2222" type="curve"/>
      <point x="1" y="2198"/>
      <point x="0" y="2170"/>
      <point x="0" y="2138" type="curve" smooth="yes"/>
      <point x="0" y="2076"/>
      <point x="1" y="1999"/>
      <point x="2" y="1910" type="curve" smooth="yes"/>
      <point x="3" y="1776"/>
      <point x="3" y="1687"/>
      <point x="4" y="1650" type="curve" smooth="yes"/>
      <point x="4" y="1171"/>
      <point x="2" y="-258"/>
      <point x="1" y="-478" type="curve"/>
      <point x="4" y="-480"/>
      <point x="7" y="-480"/>
      <point x="10" y="-480" type="curve"/>
    </contour>
  </outline>
</glyph>
<glyph name="uniE0C1" format="2">
  <advance width="1200"/>
  <unicode hex="E0C1"/>
  <note>
uniE0C1
</note>
  <outline>
    <contour>
      <point x="16" y="-480" type="line"/>
      <point x="84" y="-480"/>
      <point x="135" y="-251"/>
      <point x="187" y="-251" type="curve" smooth="yes"/>
      <point x="196" y="-251"/>
      <point x="207" y="-264"/>
      <point x="227" y="-264" type="curve" smooth="yes"/>
      <point x="276" y="-264"/>
      <point x="339" y="-187"/>
      <point x="364" y="-183" type="curve"/>
      <point x="399" y="-62" type="line"/>
      <point x="360" y="-40"/>
      <point x="328" y="-33"/>
      <point x="301" y="8" type="curve" smooth="yes"/>
      <point x="288" y="28"/>
      <point x="265" y="64"/>
      <point x="240" y="64" type="curve" smooth="yes"/>
      <point x="220" y="64"/>
      <point x="203" y="47"/>
      <point x="191" y="31" type="curve"/>
      <point x="191" y="43" type="line" smooth="yes"/>
      <point x="191" y="86"/>
      <point x="200" y="190"/>
      <point x="255" y="190" type="curve" smooth="yes"/>
      <point x="310" y="190"/>
      <point x="372" y="52"/>
      <point x="438" y="52" type="curve" smooth="yes"/>
      <point x="516" y="52"/>
      <point x="573" y="97"/>
      <point x="617" y="166" type="curve" smooth="yes"/>
      <point x="636" y="196"/>
      <point x="637" y="244"/>
      <point x="639" y="278" type="curve"/>
      <point x="618" y="261"/>
      <point x="593" y="247"/>
      <point x="566" y="247" type="curve" smooth="yes"/>
      <point x="495" y="247"/>
      <point x="479" y="359"/>
      <point x="461" y="416" type="curve"/>
      <point x="471" y="439"/>
      <point x="481" y="461"/>
      <point x="491" y="484" type="curve"/>
      <point x="493" y="484"/>
      <point x="494" y="485"/>
      <point x="496" y="485" type="curve" smooth="yes"/>
      <point x="544" y="485"/>
      <point x="613" y="327"/>
      <point x="685" y="327" type="curve" smooth="yes"/>
      <point x="796" y="327"/>
      <point x="871" y="492"/>
      <point x="944" y="565" type="curve"/>
      <point x="953" y="604"/>
      <point x="961" y="643"/>
      <point x="971" y="683" type="curve"/>
      <point x="930" y="656"/>
      <point x="843" y="604"/>
      <point x="795" y="604" type="curve" smooth="yes"/>
      <point x="788" y="604"/>
      <point x="780" y="604"/>
      <point x="774" y="610" type="curve" smooth="yes"/>
      <point x="750" y="630"/>
      <point x="717" y="652"/>
      <point x="700" y="681" type="curve" smooth="yes"/>
      <point x="675" y="719"/>
      <point x="623" y="831"/>
      <point x="592" y="853" type="curve"/>
      <point x="619" y="893"/>
      <point x="665" y="886"/>
      <point x="704" y="894" type="curve" smooth="yes"/>
      <point x="755" y="904"/>
      <point x="796" y="950"/>
      <point x="828" y="993" type="curve" smooth="yes"/>
      <point x="839" y="1007"/>
      <point x="855" y="1089"/>
      <point x="854" y="1110" type="curve"/>
      <point x="843" y="1107"/>
      <point x="834" y="1102"/>
      <point x="822" y="1102" type="curve" smooth="yes"/>
      <point x="795" y="1102"/>
      <point x="724" y="1141"/>
      <point x="706" y="1162" type="curve"/>
      <point x="741" y="1218"/>
      <point x="779" y="1332"/>
      <point x="849" y="1332" type="curve" smooth="yes"/>
      <point x="902" y="1332"/>
      <point x="950" y="1305"/>
      <point x="1001" y="1305" type="curve" smooth="yes"/>
      <point x="1097" y="1305"/>
      <point x="1146" y="1385"/>
      <point x="1182" y="1471" type="curve" smooth="yes"/>
      <point x="1190" y="1490"/>
      <point x="1200" y="1517"/>
      <point x="1200" y="1538" type="curve" smooth="yes"/>
      <point x="1200" y="1544"/>
      <point x="1200" y="1551"/>
      <point x="1196" y="1554" type="curve"/>
      <point x="1188" y="1557" type="line"/>
      <point x="1173" y="1534"/>
      <point x="1152" y="1513"/>
      <point x="1125" y="1513" type="curve" smooth="yes"/>
      <point x="1019" y="1513"/>
      <point x="955" y="1767"/>
      <point x="813" y="1767" type="curve" smooth="yes"/>
      <point x="673" y="1767"/>
      <point x="620" y="1524"/>
      <point x="538" y="1524" type="curve" smooth="yes"/>
      <point x="473" y="1524"/>
      <point x="446" y="1628"/>
      <point x="446" y="1684" type="curve" smooth="yes"/>
      <point x="446" y="1689"/>
      <point x="447" y="1710"/>
      <point x="449" y="1714" type="curve" smooth="yes"/>
      <point x="455" y="1731"/>
      <point x="540" y="1808"/>
      <point x="559" y="1831" type="curve" smooth="yes"/>
      <point x="588" y="1866"/>
      <point x="609" y="1919"/>
      <point x="626" y="1962" type="curve" smooth="yes"/>
      <point x="633" y="1980"/>
      <point x="643" y="2006"/>
      <point x="643" y="2026" type="curve" smooth="yes"/>
      <point x="643" y="2031"/>
      <point x="643" y="2037"/>
      <point x="638" y="2040" type="curve"/>
      <point x="629" y="2038" type="line"/>
      <point x="616" y="2012"/>
      <point x="582" y="1967"/>
      <point x="551" y="1967" type="curve" smooth="yes"/>
      <point x="504" y="1967"/>
      <point x="486" y="2045"/>
      <point x="433" y="2045" type="curve" smooth="yes"/>
      <point x="341" y="2045"/>
      <point x="279" y="1765"/>
      <point x="208" y="1765" type="curve" smooth="yes"/>
      <point x="186" y="1765"/>
      <point x="173" y="1805"/>
      <point x="170" y="1824" type="curve"/>
      <point x="208" y="1868"/>
      <point x="224" y="1894"/>
      <point x="242" y="1952" type="curve" smooth="yes"/>
      <point x="253" y="1987"/>
      <point x="260" y="2029"/>
      <point x="274" y="2061" type="curve" smooth="yes"/>
      <point x="283" y="2083"/>
      <point x="295" y="2083"/>
      <point x="314" y="2083" type="curve"/>
      <point x="352" y="2204" type="line"/>
      <point x="338" y="2223"/>
      <point x="320" y="2241"/>
      <point x="296" y="2241" type="curve" smooth="yes"/>
      <point x="224" y="2241"/>
      <point x="192" y="2081"/>
      <point x="134" y="2081" type="curve" smooth="yes"/>
      <point x="77" y="2081"/>
      <point x="83" y="2225"/>
      <point x="41" y="2225" type="curve" smooth="yes"/>
      <point x="23" y="2225"/>
      <point x="0" y="2130"/>
      <point x="0" y="2113" type="curve" smooth="yes"/>
      <point x="0" y="2108"/>
      <point x="2" y="2104"/>
      <point x="5" y="2102" type="curve"/>
      <point x="40" y="2103"/>
      <point x="39" y="1957"/>
      <point x="99" y="1957" type="curve" smooth="yes"/>
      <point x="162" y="1957"/>
      <point x="200" y="2119"/>
      <point x="262" y="2119" type="curve" smooth="yes"/>
      <point x="264" y="2119"/>
      <point x="267" y="2118"/>
      <point x="269" y="2118" type="curve"/>
      <point x="251" y="2075"/>
      <point x="243" y="2021"/>
      <point x="224" y="1981" type="curve" smooth="yes"/>
      <point x="208" y="1949"/>
      <point x="180" y="1922"/>
      <point x="163" y="1888" type="curve" smooth="yes"/>
      <point x="142" y="1846"/>
      <point x="125" y="1791"/>
      <point x="125" y="1742" type="curve" smooth="yes"/>
      <point x="125" y="1712"/>
      <point x="136" y="1645"/>
      <point x="171" y="1645" type="curve" smooth="yes"/>
      <point x="256" y="1645"/>
      <point x="322" y="1923"/>
      <point x="397" y="1923" type="curve" smooth="yes"/>
      <point x="437" y="1923"/>
      <point x="457" y="1871"/>
      <point x="489" y="1852" type="curve"/>
      <point x="433" y="1791"/>
      <point x="402" y="1668"/>
      <point x="402" y="1584" type="curve" smooth="yes"/>
      <point x="402" y="1524"/>
      <point x="426" y="1401"/>
      <point x="498" y="1401" type="curve" smooth="yes"/>
      <point x="603" y="1401"/>
      <point x="643" y="1644"/>
      <point x="778" y="1644" type="curve" smooth="yes"/>
      <point x="876" y="1644"/>
      <point x="931" y="1524"/>
      <point x="989" y="1456" type="curve"/>
      <point x="973" y="1465"/>
      <point x="923" y="1473"/>
      <point x="904" y="1473" type="curve" smooth="yes"/>
      <point x="791" y="1473"/>
      <point x="759" y="1274"/>
      <point x="673" y="1216" type="curve"/>
      <point x="661" y="1188"/>
      <point x="636" y="1136"/>
      <point x="636" y="1107" type="curve" smooth="yes"/>
      <point x="636" y="1075"/>
      <point x="675" y="1028"/>
      <point x="700" y="1013" type="curve"/>
      <point x="608" y="1004"/>
      <point x="578" y="912"/>
      <point x="549" y="826" type="curve" smooth="yes"/>
      <point x="541" y="802"/>
      <point x="524" y="761"/>
      <point x="524" y="735" type="curve" smooth="yes"/>
      <point x="524" y="732"/>
      <point x="524" y="725"/>
      <point x="529" y="725" type="curve" smooth="yes"/>
      <point x="535" y="725"/>
      <point x="541" y="732"/>
      <point x="547" y="732" type="curve" smooth="yes"/>
      <point x="566" y="732"/>
      <point x="643" y="587"/>
      <point x="660" y="560" type="curve" smooth="yes"/>
      <point x="679" y="532"/>
      <point x="698" y="515"/>
      <point x="725" y="497" type="curve" smooth="yes"/>
      <point x="737" y="487"/>
      <point x="744" y="480"/>
      <point x="760" y="480" type="curve" smooth="yes"/>
      <point x="778" y="480"/>
      <point x="795" y="486"/>
      <point x="812" y="493" type="curve"/>
      <point x="781" y="461"/>
      <point x="758" y="451"/>
      <point x="715" y="451" type="curve" smooth="yes"/>
      <point x="650" y="451"/>
      <point x="595" y="611"/>
      <point x="538" y="611" type="curve" smooth="yes"/>
      <point x="499" y="611"/>
      <point x="482" y="521"/>
      <point x="462" y="492" type="curve" smooth="yes"/>
      <point x="455" y="480"/>
      <point x="441" y="473"/>
      <point x="435" y="463" type="curve" smooth="yes"/>
      <point x="421" y="440"/>
      <point x="398" y="384"/>
      <point x="398" y="357" type="curve" smooth="yes"/>
      <point x="398" y="352"/>
      <point x="455" y="188"/>
      <point x="460" y="176" type="curve"/>
      <point x="404" y="193"/>
      <point x="360" y="316"/>
      <point x="295" y="316" type="curve" smooth="yes"/>
      <point x="252" y="316"/>
      <point x="222" y="254"/>
      <point x="206" y="217" type="curve" smooth="yes"/>
      <point x="169" y="132"/>
      <point x="147" y="36"/>
      <point x="147" y="-59" type="curve" smooth="yes"/>
      <point x="147" y="-69"/>
      <point x="145" y="-98"/>
      <point x="152" y="-102" type="curve"/>
      <point x="162" y="-98"/>
      <point x="176" y="-61"/>
      <point x="202" y="-61" type="curve" smooth="yes"/>
      <point x="236" y="-61"/>
      <point x="257" y="-118"/>
      <point x="281" y="-137" type="curve"/>
      <point x="275" y="-139"/>
      <point x="268" y="-140"/>
      <point x="262" y="-140" type="curve" smooth="yes"/>
      <point x="243" y="-140"/>
      <point x="232" y="-127"/>
      <point x="218" y="-127" type="curve" smooth="yes"/>
      <point x="143" y="-127"/>
      <point x="107" y="-354"/>
      <point x="41" y="-354" type="curve" smooth="yes"/>
      <point x="24" y="-354"/>
      <point x="0" y="-447"/>
      <point x="0" y="-465" type="curve" smooth="yes"/>
      <point x="0" y="-469"/>
      <point x="2" y="-473"/>
      <point x="4" y="-477" type="curve"/>
      <point x="8" y="-479"/>
      <point x="12" y="-480"/>
      <point x="16" y="-480" type="curve"/>
    </contour>
  </outline>
</glyph>
<glyph name="uniE0C2" format="2">
  <advance width="1200"/>
  <unicode hex="E0C2"/>
  <note>
uniE0C2
</note>
  <outline>
    <contour>
      <point x="1190" y="-480" type="curve"/>
      <point x="1200" y="-480" type="line"/>
      <point x="1200" y="2226" type="line"/>
      <point x="1189" y="2223"/>
      <point x="1182" y="2221"/>
      <point x="1178" y="2209" type="curve" smooth="yes"/>
      <point x="1174" y="2198"/>
      <point x="1164" y="2166"/>
      <point x="1158" y="2144" type="curve"/>
      <point x="1140" y="2095"/>
      <point x="1122" y="2075"/>
      <point x="1102" y="2075" type="curve" smooth="yes"/>
      <point x="1096" y="2075"/>
      <point x="1091" y="2077"/>
      <point x="1085" y="2081" type="curve" smooth="yes"/>
      <point x="1068" y="2088"/>
      <point x="1048" y="2115"/>
      <point x="1034" y="2136" type="curve" smooth="yes"/>
      <point x="1027" y="2145"/>
      <point x="1019" y="2159"/>
      <point x="1010" y="2175" type="curve" smooth="yes"/>
      <point x="984" y="2221"/>
      <point x="959" y="2245"/>
      <point x="934" y="2245" type="curve" smooth="yes"/>
      <point x="915" y="2245"/>
      <point x="897" y="2232"/>
      <point x="879" y="2206" type="curve"/>
      <point x="899" y="2209"/>
      <point x="915" y="2195"/>
      <point x="929" y="2174" type="curve" smooth="yes"/>
      <point x="942" y="2153"/>
      <point x="959" y="2095"/>
      <point x="970" y="2058" type="curve"/>
      <point x="970" y="2060"/>
      <point x="974" y="2044"/>
      <point x="984" y="2010" type="curve" smooth="yes"/>
      <point x="988" y="1998"/>
      <point x="999" y="1978"/>
      <point x="1018" y="1953" type="curve" smooth="yes"/>
      <point x="1038" y="1927"/>
      <point x="1051" y="1907"/>
      <point x="1057" y="1894" type="curve" smooth="yes"/>
      <point x="1066" y="1875"/>
      <point x="1071" y="1855"/>
      <point x="1071" y="1835" type="curve" smooth="yes"/>
      <point x="1071" y="1824"/>
      <point x="1070" y="1813"/>
      <point x="1067" y="1801" type="curve" smooth="yes"/>
      <point x="1055" y="1758"/>
      <point x="1042" y="1745"/>
      <point x="1026" y="1745" type="curve" smooth="yes"/>
      <point x="1021" y="1745"/>
      <point x="1016" y="1747"/>
      <point x="1010" y="1749" type="curve" smooth="yes"/>
      <point x="1003" y="1752"/>
      <point x="995" y="1758"/>
      <point x="986" y="1769" type="curve" smooth="yes"/>
      <point x="964" y="1798" type="line" smooth="yes"/>
      <point x="946" y="1821"/>
      <point x="903" y="1907"/>
      <point x="892" y="1928" type="curve" smooth="yes"/>
      <point x="854" y="2004"/>
      <point x="826" y="2038"/>
      <point x="793" y="2038" type="curve" smooth="yes"/>
      <point x="773" y="2038"/>
      <point x="752" y="2025"/>
      <point x="730" y="1997" type="curve" smooth="yes"/>
      <point x="708" y="1969"/>
      <point x="688" y="1957"/>
      <point x="669" y="1957" type="curve" smooth="yes"/>
      <point x="638" y="1957"/>
      <point x="610" y="1990"/>
      <point x="578" y="2041" type="curve"/>
      <point x="595" y="1998"/>
      <point x="612" y="1965"/>
      <point x="633" y="1939" type="curve" smooth="yes"/>
      <point x="643" y="1924"/>
      <point x="652" y="1914"/>
      <point x="660" y="1906" type="curve" smooth="yes"/>
      <point x="668" y="1899"/>
      <point x="679" y="1888"/>
      <point x="693" y="1875" type="curve" smooth="yes"/>
      <point x="707" y="1861"/>
      <point x="719" y="1850"/>
      <point x="726" y="1841" type="curve"/>
      <point x="763" y="1805"/>
      <point x="783" y="1742"/>
      <point x="783" y="1674" type="curve" smooth="yes"/>
      <point x="783" y="1592"/>
      <point x="755" y="1521"/>
      <point x="711" y="1498" type="curve" smooth="yes"/>
      <point x="703" y="1492"/>
      <point x="695" y="1490"/>
      <point x="687" y="1490" type="curve" smooth="yes"/>
      <point x="656" y="1490"/>
      <point x="622" y="1524"/>
      <point x="596" y="1563" type="curve" smooth="yes"/>
      <point x="564" y="1609"/>
      <point x="522" y="1678"/>
      <point x="489" y="1707" type="curve" smooth="yes"/>
      <point x="459" y="1733"/>
      <point x="429" y="1745"/>
      <point x="398" y="1745" type="curve" smooth="yes"/>
      <point x="342" y="1745"/>
      <point x="286" y="1703"/>
      <point x="228" y="1619" type="curve" smooth="yes"/>
      <point x="191" y="1565"/>
      <point x="169" y="1536"/>
      <point x="136" y="1506" type="curve" smooth="yes"/>
      <point x="115" y="1486"/>
      <point x="95" y="1478"/>
      <point x="79" y="1478" type="curve" smooth="yes"/>
      <point x="54" y="1478"/>
      <point x="26" y="1493"/>
      <point x="0" y="1534" type="curve"/>
      <point x="34" y="1450"/>
      <point x="75" y="1410"/>
      <point x="115" y="1406" type="curve"/>
      <point x="119" y="1405"/>
      <point x="125" y="1405"/>
      <point x="130" y="1405" type="curve" smooth="yes"/>
      <point x="165" y="1405"/>
      <point x="201" y="1417"/>
      <point x="238" y="1427" type="curve" smooth="yes"/>
      <point x="259" y="1433"/>
      <point x="278" y="1437"/>
      <point x="297" y="1437" type="curve" smooth="yes"/>
      <point x="319" y="1437"/>
      <point x="340" y="1432"/>
      <point x="364" y="1415" type="curve" smooth="yes"/>
      <point x="385" y="1399"/>
      <point x="405" y="1374"/>
      <point x="423" y="1338" type="curve" smooth="yes"/>
      <point x="434" y="1319"/>
      <point x="468" y="1254"/>
      <point x="479" y="1237" type="curve" smooth="yes"/>
      <point x="499" y="1209"/>
      <point x="515" y="1186"/>
      <point x="539" y="1168" type="curve"/>
      <point x="533" y="1152" type="line" smooth="yes"/>
      <point x="517" y="1110"/>
      <point x="488" y="1089"/>
      <point x="464" y="1077" type="curve" smooth="yes"/>
      <point x="456" y="1074"/>
      <point x="448" y="1070"/>
      <point x="439" y="1066" type="curve" smooth="yes"/>
      <point x="429" y="1063"/>
      <point x="422" y="1060"/>
      <point x="418" y="1057" type="curve"/>
      <point x="408" y="1050"/>
      <point x="399" y="1048"/>
      <point x="388" y="1048" type="curve" smooth="yes"/>
      <point x="377" y="1048"/>
      <point x="365" y="1050"/>
      <point x="353" y="1058" type="curve"/>
      <point x="399" y="996"/>
      <point x="431" y="968"/>
      <point x="475" y="960" type="curve" smooth="yes"/>
      <point x="491" y="958"/>
      <point x="514" y="957"/>
      <point x="529" y="955" type="curve" smooth="yes"/>
      <point x="541" y="953"/>
      <point x="564" y="947"/>
      <point x="577" y="935" type="curve" smooth="yes"/>
      <point x="590" y="922"/>
      <point x="607" y="902"/>
      <point x="622" y="869" type="curve" smooth="yes"/>
      <point x="630" y="853"/>
      <point x="636" y="833"/>
      <point x="644" y="810" type="curve" smooth="yes"/>
      <point x="654" y="783" type="line"/>
      <point x="640" y="788" type="line" smooth="yes"/>
      <point x="623" y="794"/>
      <point x="595" y="749"/>
      <point x="562" y="688" type="curve" smooth="yes"/>
      <point x="541" y="649"/>
      <point x="526" y="623"/>
      <point x="518" y="608" type="curve" smooth="yes"/>
      <point x="510" y="596"/>
      <point x="442" y="538"/>
      <point x="440" y="533" type="curve"/>
      <point x="434" y="529"/>
      <point x="426" y="527"/>
      <point x="416" y="527" type="curve" smooth="yes"/>
      <point x="376" y="527"/>
      <point x="305" y="561"/>
      <point x="232" y="609" type="curve"/>
      <point x="295" y="530" type="line" smooth="yes"/>
      <point x="311" y="510"/>
      <point x="342" y="470"/>
      <point x="358" y="452" type="curve" smooth="yes"/>
      <point x="388" y="417"/>
      <point x="431" y="371"/>
      <point x="454" y="371" type="curve" smooth="yes"/>
      <point x="461" y="371"/>
      <point x="478" y="365"/>
      <point x="496" y="365" type="curve" smooth="yes"/>
      <point x="501" y="365"/>
      <point x="506" y="366"/>
      <point x="512" y="367" type="curve" smooth="yes"/>
      <point x="523" y="370"/>
      <point x="534" y="377"/>
      <point x="546" y="388" type="curve" smooth="yes"/>
      <point x="563" y="404"/>
      <point x="589" y="437"/>
      <point x="609" y="461" type="curve" smooth="yes"/>
      <point x="618" y="474"/>
      <point x="628" y="485"/>
      <point x="639" y="497" type="curve" smooth="yes"/>
      <point x="656" y="515"/>
      <point x="674" y="531"/>
      <point x="689" y="531" type="curve" smooth="yes"/>
      <point x="697" y="531"/>
      <point x="704" y="527"/>
      <point x="709" y="515" type="curve" smooth="yes"/>
      <point x="725" y="478"/>
      <point x="735" y="450"/>
      <point x="750" y="424" type="curve" smooth="yes"/>
      <point x="761" y="405"/>
      <point x="770" y="394"/>
      <point x="786" y="380" type="curve"/>
      <point x="780" y="365" type="line" smooth="yes"/>
      <point x="767" y="333"/>
      <point x="749" y="276"/>
      <point x="739" y="242" type="curve" smooth="yes"/>
      <point x="729" y="207"/>
      <point x="709" y="170"/>
      <point x="684" y="158" type="curve" smooth="yes"/>
      <point x="674" y="154"/>
      <point x="664" y="150"/>
      <point x="653" y="150" type="curve" smooth="yes"/>
      <point x="630" y="150"/>
      <point x="604" y="162"/>
      <point x="576" y="186" type="curve"/>
      <point x="622" y="109"/>
      <point x="692" y="77"/>
      <point x="752" y="77" type="curve" smooth="yes"/>
      <point x="773" y="77"/>
      <point x="803" y="98"/>
      <point x="826" y="127" type="curve" smooth="yes"/>
      <point x="837" y="142"/>
      <point x="850" y="156"/>
      <point x="863" y="170" type="curve" smooth="yes"/>
      <point x="891" y="202"/>
      <point x="912" y="224"/>
      <point x="941" y="224" type="curve" smooth="yes"/>
      <point x="953" y="224"/>
      <point x="965" y="217"/>
      <point x="975" y="205" type="curve" smooth="yes"/>
      <point x="1012" y="165"/>
      <point x="1048" y="58"/>
      <point x="1048" y="-64" type="curve" smooth="yes"/>
      <point x="1048" y="-85" type="line"/>
      <point x="1027" y="-54"/>
      <point x="1010" y="-40"/>
      <point x="994" y="-40" type="curve" smooth="yes"/>
      <point x="975" y="-40"/>
      <point x="956" y="-61"/>
      <point x="932" y="-97" type="curve" smooth="yes"/>
      <point x="913" y="-128"/>
      <point x="892" y="-141"/>
      <point x="862" y="-154" type="curve" smooth="yes"/>
      <point x="847" y="-160"/>
      <point x="836" y="-166"/>
      <point x="829" y="-170" type="curve"/>
      <point x="846" y="-179"/>
      <point x="870" y="-197"/>
      <point x="887" y="-211" type="curve" smooth="yes"/>
      <point x="896" y="-218"/>
      <point x="905" y="-225"/>
      <point x="916" y="-233" type="curve" smooth="yes"/>
      <point x="936" y="-246"/>
      <point x="951" y="-255"/>
      <point x="970" y="-255" type="curve" smooth="yes"/>
      <point x="981" y="-255"/>
      <point x="992" y="-250"/>
      <point x="1001" y="-244" type="curve" smooth="yes"/>
      <point x="1005" y="-241"/>
      <point x="1009" y="-240"/>
      <point x="1013" y="-240" type="curve" smooth="yes"/>
      <point x="1034" y="-240"/>
      <point x="1059" y="-274"/>
      <point x="1081" y="-318" type="curve" smooth="yes"/>
      <point x="1095" y="-344"/>
      <point x="1108" y="-370"/>
      <point x="1121" y="-397" type="curve" smooth="yes"/>
      <point x="1144" y="-444"/>
      <point x="1169" y="-480"/>
    </contour>
    <contour>
      <point x="1200" y="-480" type="line"/>
      <point x="1300" y="-480" type="line"/>
      <point x="1300" y="2226" type="line"/>
      <point x="1200" y="2226" type="line"/>
    </contour>
  </outline>
</glyph>
<glyph name="uniE0C3" format="2">
  <advance width="1200"/>
  <unicode hex="E0C3"/>
  <note>
uniE0C3
</note>
  <outline>
    <contour>
      <point x="1185" y="-480" type="line"/>
      <point x="1189" y="-480"/>
      <point x="1193" y="-479"/>
      <point x="1197" y="-477" type="curve"/>
      <point x="1199" y="-473"/>
      <point x="1200" y="-469"/>
      <point x="1200" y="-465" type="curve" smooth="yes"/>
      <point x="1200" y="-438"/>
      <point x="1181" y="-355"/>
      <point x="1154" y="-355" type="curve" smooth="yes"/>
      <point x="1106" y="-355"/>
      <point x="1052" y="-127"/>
      <point x="983" y="-127" type="curve" smooth="yes"/>
      <point x="969" y="-127"/>
      <point x="957" y="-140"/>
      <point x="939" y="-140" type="curve" smooth="yes"/>
      <point x="933" y="-140"/>
      <point x="926" y="-139"/>
      <point x="920" y="-137" type="curve"/>
      <point x="943" y="-119"/>
      <point x="966" y="-61"/>
      <point x="998" y="-61" type="curve" smooth="yes"/>
      <point x="1024" y="-61"/>
      <point x="1039" y="-98"/>
      <point x="1049" y="-102" type="curve"/>
      <point x="1050" y="-102" type="line"/>
      <point x="1056" y="-97"/>
      <point x="1054" y="-79"/>
      <point x="1054" y="-72" type="curve" smooth="yes"/>
      <point x="1054" y="-61" type="line" smooth="yes"/>
      <point x="1054" y="33"/>
      <point x="1031" y="133"/>
      <point x="995" y="217" type="curve" smooth="yes"/>
      <point x="979" y="255"/>
      <point x="948" y="316"/>
      <point x="905" y="316" type="curve" smooth="yes"/>
      <point x="845" y="316"/>
      <point x="796" y="196"/>
      <point x="741" y="176" type="curve"/>
      <point x="746" y="187"/>
      <point x="803" y="354"/>
      <point x="803" y="357" type="curve" smooth="yes"/>
      <point x="803" y="387"/>
      <point x="780" y="436"/>
      <point x="766" y="464" type="curve"/>
      <point x="752" y="476"/>
      <point x="738" y="489"/>
      <point x="731" y="506" type="curve" smooth="yes"/>
      <point x="719" y="536"/>
      <point x="696" y="611"/>
      <point x="662" y="611" type="curve" smooth="yes"/>
      <point x="607" y="611"/>
      <point x="552" y="452"/>
      <point x="485" y="452" type="curve" smooth="yes"/>
      <point x="443" y="452"/>
      <point x="420" y="463"/>
      <point x="389" y="493" type="curve"/>
      <point x="405" y="488"/>
      <point x="423" y="481"/>
      <point x="440" y="481" type="curve" smooth="yes"/>
      <point x="531" y="481"/>
      <point x="620" y="732"/>
      <point x="653" y="732" type="curve" smooth="yes"/>
      <point x="657" y="732"/>
      <point x="666" y="727"/>
      <point x="672" y="725" type="curve"/>
      <point x="675" y="728"/>
      <point x="677" y="732"/>
      <point x="677" y="735" type="curve" smooth="yes"/>
      <point x="677" y="789"/>
      <point x="614" y="936"/>
      <point x="578" y="979" type="curve" smooth="yes"/>
      <point x="558" y="1003"/>
      <point x="530" y="1010"/>
      <point x="501" y="1014" type="curve"/>
      <point x="526" y="1028"/>
      <point x="565" y="1076"/>
      <point x="565" y="1108" type="curve" smooth="yes"/>
      <point x="565" y="1137"/>
      <point x="540" y="1191"/>
      <point x="527" y="1216" type="curve"/>
      <point x="442" y="1277"/>
      <point x="411" y="1474"/>
      <point x="298" y="1474" type="curve" smooth="yes"/>
      <point x="268" y="1474"/>
      <point x="240" y="1467"/>
      <point x="212" y="1456" type="curve"/>
      <point x="270" y="1525"/>
      <point x="325" y="1645"/>
      <point x="423" y="1645" type="curve" smooth="yes"/>
      <point x="559" y="1645"/>
      <point x="598" y="1401"/>
      <point x="703" y="1401" type="curve" smooth="yes"/>
      <point x="775" y="1401"/>
      <point x="799" y="1525"/>
      <point x="799" y="1584" type="curve" smooth="yes"/>
      <point x="799" y="1666"/>
      <point x="767" y="1795"/>
      <point x="711" y="1853" type="curve"/>
      <point x="742" y="1872"/>
      <point x="765" y="1923"/>
      <point x="803" y="1923" type="curve" smooth="yes"/>
      <point x="878" y="1923"/>
      <point x="947" y="1648"/>
      <point x="1023" y="1648" type="curve" smooth="yes"/>
      <point x="1032" y="1648"/>
      <point x="1040" y="1654"/>
      <point x="1047" y="1661" type="curve"/>
      <point x="1047" y="1661"/>
      <point x="1047" y="1659"/>
      <point x="1048" y="1659" type="curve" smooth="yes"/>
      <point x="1062" y="1659"/>
      <point x="1076" y="1726"/>
      <point x="1076" y="1742" type="curve" smooth="yes"/>
      <point x="1076" y="1791"/>
      <point x="1059" y="1847"/>
      <point x="1038" y="1889" type="curve" smooth="yes"/>
      <point x="1021" y="1923"/>
      <point x="993" y="1949"/>
      <point x="976" y="1982" type="curve" smooth="yes"/>
      <point x="960" y="2014"/>
      <point x="948" y="2079"/>
      <point x="932" y="2118" type="curve"/>
      <point x="939" y="2119" type="line"/>
      <point x="1002" y="2119"/>
      <point x="1038" y="1957"/>
      <point x="1101" y="1957" type="curve" smooth="yes"/>
      <point x="1153" y="1957"/>
      <point x="1160" y="2060"/>
      <point x="1180" y="2094" type="curve" smooth="yes"/>
      <point x="1185" y="2102"/>
      <point x="1188" y="2102"/>
      <point x="1196" y="2102" type="curve"/>
      <point x="1199" y="2104"/>
      <point x="1200" y="2109"/>
      <point x="1200" y="2113" type="curve" smooth="yes"/>
      <point x="1200" y="2131"/>
      <point x="1179" y="2226"/>
      <point x="1160" y="2226" type="curve" smooth="yes"/>
      <point x="1117" y="2226"/>
      <point x="1124" y="2081"/>
      <point x="1067" y="2081" type="curve" smooth="yes"/>
      <point x="1009" y="2081"/>
      <point x="976" y="2242"/>
      <point x="904" y="2242" type="curve" smooth="yes"/>
      <point x="881" y="2242"/>
      <point x="862" y="2223"/>
      <point x="849" y="2205" type="curve"/>
      <point x="887" y="2083" type="line"/>
      <point x="906" y="2083"/>
      <point x="917" y="2084"/>
      <point x="926" y="2062" type="curve" smooth="yes"/>
      <point x="965" y="1963"/>
      <point x="954" y="1911"/>
      <point x="1031" y="1825" type="curve"/>
      <point x="1026" y="1805"/>
      <point x="1018" y="1766"/>
      <point x="993" y="1766" type="curve" smooth="yes"/>
      <point x="922" y="1766"/>
      <point x="859" y="2046"/>
      <point x="768" y="2046" type="curve" smooth="yes"/>
      <point x="715" y="2046"/>
      <point x="696" y="1967"/>
      <point x="650" y="1967" type="curve" smooth="yes"/>
      <point x="619" y="1967"/>
      <point x="586" y="2012"/>
      <point x="572" y="2039" type="curve"/>
      <point x="563" y="2041" type="line"/>
      <point x="558" y="2038"/>
      <point x="558" y="2032"/>
      <point x="558" y="2027" type="curve" smooth="yes"/>
      <point x="558" y="2007"/>
      <point x="568" y="1981"/>
      <point x="575" y="1962" type="curve" smooth="yes"/>
      <point x="593" y="1916"/>
      <point x="612" y="1871"/>
      <point x="642" y="1832" type="curve" smooth="yes"/>
      <point x="662" y="1806"/>
      <point x="746" y="1733"/>
      <point x="752" y="1715" type="curve" smooth="yes"/>
      <point x="754" y="1709"/>
      <point x="754" y="1692"/>
      <point x="754" y="1685" type="curve" smooth="yes"/>
      <point x="754" y="1629"/>
      <point x="728" y="1525"/>
      <point x="664" y="1525" type="curve" smooth="yes"/>
      <point x="580" y="1525"/>
      <point x="528" y="1767"/>
      <point x="388" y="1767" type="curve" smooth="yes"/>
      <point x="246" y="1767"/>
      <point x="181" y="1515"/>
      <point x="78" y="1515" type="curve" smooth="yes"/>
      <point x="51" y="1515"/>
      <point x="28" y="1534"/>
      <point x="13" y="1557" type="curve"/>
      <point x="5" y="1554" type="line"/>
      <point x="1" y="1550"/>
      <point x="0" y="1545"/>
      <point x="0" y="1539" type="curve" smooth="yes"/>
      <point x="0" y="1519"/>
      <point x="12" y="1490"/>
      <point x="19" y="1472" type="curve" smooth="yes"/>
      <point x="53" y="1388"/>
      <point x="102" y="1307"/>
      <point x="194" y="1307" type="curve" smooth="yes"/>
      <point x="245" y="1307"/>
      <point x="293" y="1333"/>
      <point x="343" y="1333" type="curve" smooth="yes"/>
      <point x="430" y="1333"/>
      <point x="451" y="1225"/>
      <point x="495" y="1163" type="curve"/>
      <point x="476" y="1140"/>
      <point x="406" y="1102"/>
      <point x="379" y="1102" type="curve" smooth="yes"/>
      <point x="367" y="1102"/>
      <point x="357" y="1108"/>
      <point x="346" y="1110" type="curve"/>
      <point x="350" y="1081"/>
      <point x="358" y="1014"/>
      <point x="373" y="994" type="curve" smooth="yes"/>
      <point x="492" y="835"/>
      <point x="558" y="926"/>
      <point x="609" y="853" type="curve"/>
      <point x="576" y="834"/>
      <point x="527" y="719"/>
      <point x="501" y="681" type="curve" smooth="yes"/>
      <point x="483" y="654"/>
      <point x="451" y="631"/>
      <point x="427" y="610" type="curve" smooth="yes"/>
      <point x="421" y="604"/>
      <point x="413" y="604"/>
      <point x="406" y="604" type="curve" smooth="yes"/>
      <point x="358" y="604"/>
      <point x="271" y="657"/>
      <point x="230" y="683" type="curve"/>
      <point x="241" y="646"/>
      <point x="249" y="603"/>
      <point x="256" y="565" type="curve"/>
      <point x="261" y="561"/>
      <point x="320" y="487"/>
      <point x="329" y="475" type="curve" smooth="yes"/>
      <point x="379" y="410"/>
      <point x="434" y="327"/>
      <point x="518" y="327" type="curve" smooth="yes"/>
      <point x="584" y="327"/>
      <point x="659" y="486"/>
      <point x="704" y="486" type="curve" smooth="yes"/>
      <point x="706" y="486"/>
      <point x="707" y="485"/>
      <point x="709" y="485" type="curve"/>
      <point x="719" y="463"/>
      <point x="728" y="436"/>
      <point x="740" y="416" type="curve"/>
      <point x="722" y="359"/>
      <point x="704" y="247"/>
      <point x="635" y="247" type="curve" smooth="yes"/>
      <point x="608" y="247"/>
      <point x="583" y="261"/>
      <point x="562" y="278" type="curve"/>
      <point x="562" y="243"/>
      <point x="566" y="196"/>
      <point x="584" y="166" type="curve" smooth="yes"/>
      <point x="627" y="98"/>
      <point x="686" y="52"/>
      <point x="763" y="52" type="curve" smooth="yes"/>
      <point x="831" y="52"/>
      <point x="888" y="190"/>
      <point x="948" y="190" type="curve" smooth="yes"/>
      <point x="1001" y="190"/>
      <point x="1010" y="83"/>
      <point x="1010" y="42" type="curve" smooth="yes"/>
      <point x="1010" y="31" type="line"/>
      <point x="998" y="47"/>
      <point x="981" y="64"/>
      <point x="961" y="64" type="curve" smooth="yes"/>
      <point x="936" y="64"/>
      <point x="913" y="28"/>
      <point x="900" y="8" type="curve" smooth="yes"/>
      <point x="872" y="-33"/>
      <point x="841" y="-39"/>
      <point x="801" y="-62" type="curve"/>
      <point x="837" y="-183" type="line"/>
      <point x="864" y="-188"/>
      <point x="923" y="-264"/>
      <point x="975" y="-264" type="curve" smooth="yes"/>
      <point x="993" y="-264"/>
      <point x="1005" y="-251"/>
      <point x="1014" y="-251" type="curve" smooth="yes"/>
      <point x="1066" y="-251"/>
      <point x="1117" y="-480"/>
      <point x="1185" y="-480" type="curve"/>
    </contour>
  </outline>
</glyph>
<glyph name="uniE0C4" format="2">
  <advance width="1200"/>
  <unicode hex="E0C4"/>
  <note>
uniE0C4
</note>
  <outline>
    <contour>
      <point x="487" y="885" type="curve" smooth="yes"/>
      <point x="596" y="885" type="line" smooth="yes"/>
      <point x="603" y="885"/>
      <point x="610" y="893"/>
      <point x="610" y="913" type="curve" smooth="yes"/>
      <point x="610" y="1122" type="line" smooth="yes"/>
      <point x="610" y="1135"/>
      <point x="604" y="1150"/>
      <point x="596" y="1150" type="curve"/>
      <point x="596" y="1150" type="line"/>
      <point x="487" y="1150" type="line" smooth="yes"/>
      <point x="480" y="1150"/>
      <point x="473" y="1139"/>
      <point x="473" y="1122" type="curve" smooth="yes"/>
      <point x="473" y="913" type="line" smooth="yes"/>
      <point x="473" y="898"/>
      <point x="479" y="885"/>
    </contour>
    <contour>
      <point x="0" y="-475" type="line"/>
      <point x="108" y="-475" type="line"/>
      <point x="108" y="-264" type="line"/>
      <point x="0" y="-264" type="line"/>
      <point x="0" y="-264" type="line"/>
    </contour>
    <contour>
      <point x="165" y="-475" type="line"/>
      <point x="273" y="-475" type="line"/>
      <point x="273" y="-264" type="line"/>
      <point x="165" y="-264" type="line"/>
      <point x="165" y="-264" type="line"/>
    </contour>
    <contour>
      <point x="0" y="-189" type="line"/>
      <point x="108" y="-189" type="line"/>
      <point x="108" y="21" type="line"/>
      <point x="0" y="21" type="line"/>
      <point x="0" y="21" type="line"/>
    </contour>
    <contour>
      <point x="165" y="-189" type="line"/>
      <point x="273" y="-189" type="line"/>
      <point x="273" y="21" type="line"/>
      <point x="165" y="21" type="line"/>
      <point x="165" y="21" type="line"/>
    </contour>
    <contour>
      <point x="487" y="-480" type="curve" smooth="yes"/>
      <point x="596" y="-480" type="line" smooth="yes"/>
      <point x="597" y="-480"/>
      <point x="599" y="-478"/>
      <point x="599" y="-475" type="curve" smooth="yes"/>
      <point x="599" y="-264" type="line" smooth="yes"/>
      <point x="599" y="-260"/>
      <point x="597" y="-258"/>
      <point x="596" y="-258" type="curve"/>
      <point x="596" y="-258" type="line"/>
      <point x="487" y="-258" type="line" smooth="yes"/>
      <point x="486" y="-258"/>
      <point x="485" y="-260"/>
      <point x="485" y="-264" type="curve" smooth="yes"/>
      <point x="485" y="-475" type="line" smooth="yes"/>
      <point x="485" y="-478"/>
      <point x="486" y="-480"/>
    </contour>
    <contour>
      <point x="490" y="-469" type="line"/>
      <point x="490" y="-270" type="line"/>
      <point x="593" y="-270" type="line"/>
      <point x="593" y="-270" type="line"/>
      <point x="593" y="-469" type="line"/>
    </contour>
    <contour>
      <point x="0" y="92" type="line"/>
      <point x="108" y="92" type="line"/>
      <point x="108" y="301" type="line"/>
      <point x="0" y="301" type="line"/>
      <point x="0" y="301" type="line"/>
    </contour>
    <contour>
      <point x="323" y="-189" type="line"/>
      <point x="431" y="-189" type="line"/>
      <point x="431" y="21" type="line"/>
      <point x="323" y="21" type="line"/>
      <point x="323" y="21" type="line"/>
    </contour>
    <contour>
      <point x="165" y="92" type="line"/>
      <point x="273" y="92" type="line"/>
      <point x="273" y="301" type="line"/>
      <point x="165" y="301" type="line"/>
      <point x="165" y="301" type="line"/>
    </contour>
    <contour>
      <point x="0" y="373" type="line"/>
      <point x="108" y="373" type="line"/>
      <point x="108" y="584" type="line"/>
      <point x="0" y="584" type="line"/>
      <point x="0" y="584" type="line"/>
    </contour>
    <contour>
      <point x="323" y="92" type="line"/>
      <point x="431" y="92" type="line"/>
      <point x="431" y="301" type="line"/>
      <point x="323" y="301" type="line"/>
      <point x="323" y="301" type="line"/>
    </contour>
    <contour>
      <point x="165" y="373" type="line"/>
      <point x="273" y="373" type="line"/>
      <point x="273" y="584" type="line"/>
      <point x="165" y="584" type="line"/>
      <point x="165" y="584" type="line"/>
    </contour>
    <contour>
      <point x="487" y="88" type="curve" smooth="yes"/>
      <point x="596" y="88" type="line" smooth="yes"/>
      <point x="597" y="88"/>
      <point x="599" y="90"/>
      <point x="599" y="92" type="curve" smooth="yes"/>
      <point x="599" y="301" type="line" smooth="yes"/>
      <point x="599" y="305"/>
      <point x="597" y="307"/>
      <point x="596" y="307" type="curve"/>
      <point x="596" y="307" type="line"/>
      <point x="487" y="307" type="line" smooth="yes"/>
      <point x="486" y="307"/>
      <point x="485" y="305"/>
      <point x="485" y="301" type="curve" smooth="yes"/>
      <point x="485" y="92" type="line" smooth="yes"/>
      <point x="485" y="90"/>
      <point x="486" y="88"/>
    </contour>
    <contour>
      <point x="490" y="98" type="line"/>
      <point x="490" y="295" type="line"/>
      <point x="593" y="295" type="line"/>
      <point x="593" y="295" type="line"/>
      <point x="593" y="98" type="line"/>
    </contour>
    <contour>
      <point x="0" y="646" type="line"/>
      <point x="108" y="646" type="line"/>
      <point x="108" y="855" type="line"/>
      <point x="0" y="855" type="line"/>
      <point x="0" y="855" type="line"/>
    </contour>
    <contour>
      <point x="165" y="646" type="line"/>
      <point x="273" y="646" type="line"/>
      <point x="273" y="855" type="line"/>
      <point x="165" y="855" type="line"/>
      <point x="165" y="855" type="line"/>
    </contour>
    <contour>
      <point x="792" y="88" type="curve" smooth="yes"/>
      <point x="900" y="88" type="line" smooth="yes"/>
      <point x="902" y="88"/>
      <point x="903" y="90"/>
      <point x="903" y="92" type="curve" smooth="yes"/>
      <point x="903" y="301" type="line" smooth="yes"/>
      <point x="903" y="305"/>
      <point x="902" y="307"/>
      <point x="900" y="307" type="curve"/>
      <point x="900" y="307" type="line"/>
      <point x="792" y="307" type="line" smooth="yes"/>
      <point x="790" y="307"/>
      <point x="789" y="305"/>
      <point x="789" y="301" type="curve" smooth="yes"/>
      <point x="789" y="92" type="line" smooth="yes"/>
      <point x="789" y="90"/>
      <point x="790" y="88"/>
    </contour>
    <contour>
      <point x="795" y="98" type="line"/>
      <point x="795" y="295" type="line"/>
      <point x="897" y="295" type="line"/>
      <point x="897" y="295" type="line"/>
      <point x="897" y="98" type="line"/>
    </contour>
    <contour>
      <point x="0" y="913" type="line"/>
      <point x="108" y="913" type="line"/>
      <point x="108" y="1122" type="line"/>
      <point x="0" y="1122" type="line"/>
      <point x="0" y="1122" type="line"/>
    </contour>
    <contour>
      <point x="323" y="646" type="line"/>
      <point x="431" y="646" type="line"/>
      <point x="431" y="855" type="line"/>
      <point x="323" y="855" type="line"/>
      <point x="323" y="855" type="line"/>
    </contour>
    <contour>
      <point x="637" y="353" type="curve" smooth="yes"/>
      <point x="745" y="353" type="line" smooth="yes"/>
      <point x="751" y="353"/>
      <point x="757" y="362"/>
      <point x="757" y="373" type="curve" smooth="yes"/>
      <point x="757" y="584" type="line" smooth="yes"/>
      <point x="757" y="595"/>
      <point x="752" y="607"/>
      <point x="745" y="607" type="curve"/>
      <point x="745" y="607" type="line"/>
      <point x="637" y="607" type="line" smooth="yes"/>
      <point x="632" y="607"/>
      <point x="625" y="598"/>
      <point x="625" y="584" type="curve" smooth="yes"/>
      <point x="625" y="373" type="line" smooth="yes"/>
      <point x="625" y="365"/>
      <point x="630" y="353"/>
    </contour>
    <contour>
      <point x="649" y="397" type="line"/>
      <point x="649" y="562" type="line"/>
      <point x="734" y="562" type="line"/>
      <point x="734" y="562" type="line"/>
      <point x="734" y="397" type="line"/>
    </contour>
    <contour>
      <point x="165" y="913" type="line"/>
      <point x="273" y="913" type="line"/>
      <point x="273" y="1122" type="line"/>
      <point x="165" y="1122" type="line"/>
      <point x="165" y="1122" type="line"/>
    </contour>
    <contour>
      <point x="487" y="646" type="line"/>
      <point x="596" y="646" type="line"/>
      <point x="596" y="646" type="line"/>
      <point x="596" y="855" type="line"/>
      <point x="487" y="855" type="line"/>
    </contour>
    <contour>
      <point x="0" y="1177" type="line"/>
      <point x="108" y="1177" type="line"/>
      <point x="108" y="1388" type="line"/>
      <point x="0" y="1388" type="line"/>
      <point x="0" y="1388" type="line"/>
    </contour>
    <contour>
      <point x="323" y="913" type="line"/>
      <point x="431" y="913" type="line"/>
      <point x="431" y="1122" type="line"/>
      <point x="323" y="1122" type="line"/>
      <point x="323" y="1122" type="line"/>
    </contour>
    <contour>
      <point x="637" y="646" type="line"/>
      <point x="745" y="646" type="line"/>
      <point x="745" y="855" type="line"/>
      <point x="637" y="855" type="line"/>
      <point x="637" y="855" type="line"/>
    </contour>
    <contour>
      <point x="939" y="369" type="curve" smooth="yes"/>
      <point x="1047" y="369" type="line" smooth="yes"/>
      <point x="1049" y="369"/>
      <point x="1050" y="370"/>
      <point x="1050" y="373" type="curve" smooth="yes"/>
      <point x="1050" y="584" type="line" smooth="yes"/>
      <point x="1050" y="588"/>
      <point x="1049" y="591"/>
      <point x="1047" y="591" type="curve"/>
      <point x="1047" y="591" type="line"/>
      <point x="939" y="591" type="line" smooth="yes"/>
      <point x="938" y="591"/>
      <point x="936" y="588"/>
      <point x="936" y="584" type="curve" smooth="yes"/>
      <point x="936" y="373" type="line" smooth="yes"/>
      <point x="936" y="370"/>
      <point x="938" y="369"/>
    </contour>
    <contour>
      <point x="942" y="381" type="line"/>
      <point x="942" y="578" type="line"/>
      <point x="1045" y="578" type="line"/>
      <point x="1045" y="578" type="line"/>
      <point x="1045" y="381" type="line"/>
    </contour>
    <contour>
      <point x="165" y="1177" type="line"/>
      <point x="273" y="1177" type="line"/>
      <point x="273" y="1388" type="line"/>
      <point x="165" y="1388" type="line"/>
      <point x="165" y="1388" type="line"/>
    </contour>
    <contour>
      <point x="502" y="940" type="line"/>
      <point x="502" y="1094" type="line"/>
      <point x="581" y="1094" type="line"/>
      <point x="581" y="1094" type="line"/>
      <point x="581" y="940" type="line"/>
    </contour>
    <contour>
      <point x="0" y="1437" type="line"/>
      <point x="108" y="1437" type="line"/>
      <point x="108" y="1645" type="line"/>
      <point x="0" y="1645" type="line"/>
      <point x="0" y="1645" type="line"/>
    </contour>
    <contour>
      <point x="323" y="1177" type="line"/>
      <point x="431" y="1177" type="line"/>
      <point x="431" y="1388" type="line"/>
      <point x="323" y="1388" type="line"/>
      <point x="323" y="1388" type="line"/>
    </contour>
    <contour>
      <point x="637" y="913" type="line"/>
      <point x="745" y="913" type="line"/>
      <point x="745" y="913" type="line"/>
      <point x="745" y="1122" type="line"/>
      <point x="637" y="1122" type="line"/>
    </contour>
    <contour>
      <point x="165" y="1437" type="line"/>
      <point x="273" y="1437" type="line"/>
      <point x="273" y="1645" type="line"/>
      <point x="165" y="1645" type="line"/>
      <point x="165" y="1645" type="line"/>
    </contour>
    <contour>
      <point x="792" y="906" type="curve" smooth="yes"/>
      <point x="900" y="906" type="line" smooth="yes"/>
      <point x="902" y="906"/>
      <point x="903" y="908"/>
      <point x="903" y="913" type="curve" smooth="yes"/>
      <point x="903" y="1122" type="line" smooth="yes"/>
      <point x="903" y="1125"/>
      <point x="902" y="1127"/>
      <point x="900" y="1127" type="curve"/>
      <point x="900" y="1127" type="line"/>
      <point x="792" y="1127" type="line" smooth="yes"/>
      <point x="790" y="1127"/>
      <point x="789" y="1125"/>
      <point x="789" y="1122" type="curve" smooth="yes"/>
      <point x="789" y="913" type="line" smooth="yes"/>
      <point x="789" y="908"/>
      <point x="790" y="906"/>
    </contour>
    <contour>
      <point x="795" y="919" type="line"/>
      <point x="795" y="1117" type="line"/>
      <point x="897" y="1117" type="line"/>
      <point x="897" y="1117" type="line"/>
      <point x="897" y="919" type="line"/>
    </contour>
    <contour>
      <point x="0" y="1710" type="line"/>
      <point x="108" y="1710" type="line"/>
      <point x="108" y="1919" type="line"/>
      <point x="0" y="1919" type="line"/>
      <point x="0" y="1919" type="line"/>
    </contour>
    <contour>
      <point x="323" y="1437" type="line"/>
      <point x="431" y="1437" type="line"/>
      <point x="431" y="1645" type="line"/>
      <point x="323" y="1645" type="line"/>
      <point x="323" y="1645" type="line"/>
    </contour>
    <contour>
      <point x="637" y="1154" type="curve" smooth="yes"/>
      <point x="745" y="1154" type="line" smooth="yes"/>
      <point x="751" y="1154"/>
      <point x="757" y="1164"/>
      <point x="757" y="1177" type="curve" smooth="yes"/>
      <point x="757" y="1388" type="line" smooth="yes"/>
      <point x="757" y="1397"/>
      <point x="752" y="1411"/>
      <point x="745" y="1411" type="curve"/>
      <point x="745" y="1411" type="line"/>
      <point x="637" y="1411" type="line" smooth="yes"/>
      <point x="632" y="1411"/>
      <point x="625" y="1400"/>
      <point x="625" y="1388" type="curve" smooth="yes"/>
      <point x="625" y="1177" type="line" smooth="yes"/>
      <point x="625" y="1167"/>
      <point x="630" y="1154"/>
    </contour>
    <contour>
      <point x="649" y="1200" type="line"/>
      <point x="649" y="1364" type="line"/>
      <point x="734" y="1364" type="line"/>
      <point x="734" y="1364" type="line"/>
      <point x="734" y="1200" type="line"/>
    </contour>
    <contour>
      <point x="165" y="1710" type="line"/>
      <point x="273" y="1710" type="line"/>
      <point x="273" y="1919" type="line"/>
      <point x="165" y="1919" type="line"/>
      <point x="165" y="1919" type="line"/>
    </contour>
    <contour>
      <point x="487" y="1437" type="line"/>
      <point x="596" y="1437" type="line"/>
      <point x="596" y="1645" type="line"/>
      <point x="487" y="1645" type="line"/>
      <point x="487" y="1645" type="line"/>
    </contour>
    <contour>
      <point x="0" y="1998" type="line"/>
      <point x="108" y="1998" type="line"/>
      <point x="108" y="2209" type="line"/>
      <point x="0" y="2209" type="line"/>
      <point x="0" y="2209" type="line"/>
    </contour>
    <contour>
      <point x="323" y="1710" type="line"/>
      <point x="431" y="1710" type="line"/>
      <point x="431" y="1919" type="line"/>
      <point x="323" y="1919" type="line"/>
      <point x="323" y="1919" type="line"/>
    </contour>
    <contour>
      <point x="637" y="1414" type="curve" smooth="yes"/>
      <point x="745" y="1414" type="line" smooth="yes"/>
      <point x="751" y="1414"/>
      <point x="757" y="1424"/>
      <point x="757" y="1437" type="curve" smooth="yes"/>
      <point x="757" y="1645" type="line" smooth="yes"/>
      <point x="757" y="1655"/>
      <point x="752" y="1668"/>
      <point x="745" y="1668" type="curve"/>
      <point x="745" y="1668" type="line"/>
      <point x="637" y="1668" type="line" smooth="yes"/>
      <point x="632" y="1668"/>
      <point x="625" y="1657"/>
      <point x="625" y="1645" type="curve" smooth="yes"/>
      <point x="625" y="1437" type="line" smooth="yes"/>
      <point x="625" y="1426"/>
      <point x="630" y="1414"/>
    </contour>
    <contour>
      <point x="649" y="1460" type="line"/>
      <point x="649" y="1623" type="line"/>
      <point x="734" y="1623" type="line"/>
      <point x="734" y="1623" type="line"/>
      <point x="734" y="1460" type="line"/>
    </contour>
    <contour>
      <point x="165" y="1998" type="line"/>
      <point x="273" y="1998" type="line"/>
      <point x="273" y="2209" type="line"/>
      <point x="165" y="2209" type="line"/>
      <point x="165" y="2209" type="line"/>
    </contour>
    <contour>
      <point x="487" y="1710" type="line"/>
      <point x="596" y="1710" type="line"/>
      <point x="596" y="1710" type="line"/>
      <point x="596" y="1919" type="line"/>
      <point x="487" y="1919" type="line"/>
    </contour>
    <contour>
      <point x="323" y="1998" type="line"/>
      <point x="431" y="1998" type="line"/>
      <point x="431" y="2209" type="line"/>
      <point x="323" y="2209" type="line"/>
      <point x="323" y="2209" type="line"/>
    </contour>
    <contour>
      <point x="485" y="1983" type="line"/>
      <point x="593" y="1983" type="line" smooth="yes"/>
      <point x="597" y="1983"/>
      <point x="602" y="1991"/>
      <point x="602" y="1998" type="curve" smooth="yes"/>
      <point x="602" y="2209" type="line" smooth="yes"/>
      <point x="602" y="2217"/>
      <point x="598" y="2226"/>
      <point x="593" y="2226" type="curve" smooth="yes"/>
      <point x="485" y="2226" type="line" smooth="yes"/>
      <point x="481" y="2226"/>
      <point x="476" y="2218"/>
      <point x="476" y="2209" type="curve" smooth="yes"/>
      <point x="476" y="1998" type="line" smooth="yes"/>
      <point x="476" y="1992"/>
      <point x="480" y="1983"/>
      <point x="485" y="1983" type="curve"/>
    </contour>
    <contour>
      <point x="494" y="2016" type="line"/>
      <point x="494" y="2193" type="line"/>
      <point x="585" y="2193" type="line"/>
      <point x="585" y="2016" type="line"/>
      <point x="494" y="2016" type="line"/>
    </contour>
    <contour>
      <point x="792" y="1710" type="line"/>
      <point x="900" y="1710" type="line"/>
      <point x="900" y="1710" type="line"/>
      <point x="900" y="1919" type="line"/>
      <point x="792" y="1919" type="line"/>
    </contour>
    <contour>
      <point x="637" y="1998" type="line"/>
      <point x="745" y="1998" type="line"/>
      <point x="745" y="1998" type="line"/>
      <point x="745" y="2209" type="line"/>
      <point x="637" y="2209" type="line"/>
    </contour>
    <contour>
      <point x="792" y="1998" type="line"/>
      <point x="900" y="1998" type="line"/>
      <point x="900" y="1998" type="line"/>
      <point x="900" y="2209" type="line"/>
      <point x="792" y="2209" type="line"/>
    </contour>
    <contour>
      <point x="1089" y="1703" type="curve" smooth="yes"/>
      <point x="1197" y="1703" type="line" smooth="yes"/>
      <point x="1199" y="1703"/>
      <point x="1200" y="1705"/>
      <point x="1200" y="1710" type="curve" smooth="yes"/>
      <point x="1200" y="1919" type="line" smooth="yes"/>
      <point x="1200" y="1922"/>
      <point x="1199" y="1923"/>
      <point x="1197" y="1923" type="curve"/>
      <point x="1197" y="1923" type="line"/>
      <point x="1089" y="1923" type="line" smooth="yes"/>
      <point x="1087" y="1923"/>
      <point x="1086" y="1922"/>
      <point x="1086" y="1919" type="curve" smooth="yes"/>
      <point x="1086" y="1710" type="line" smooth="yes"/>
      <point x="1086" y="1705"/>
      <point x="1087" y="1703"/>
    </contour>
    <contour>
      <point x="1092" y="1716" type="line"/>
      <point x="1092" y="1914" type="line"/>
      <point x="1194" y="1914" type="line"/>
      <point x="1194" y="1914" type="line"/>
      <point x="1194" y="1716" type="line"/>
    </contour>
    <contour>
      <point x="1089" y="1994" type="curve" smooth="yes"/>
      <point x="1197" y="1994" type="line" smooth="yes"/>
      <point x="1199" y="1994"/>
      <point x="1200" y="1995"/>
      <point x="1200" y="1998" type="curve" smooth="yes"/>
      <point x="1200" y="2209" type="line" smooth="yes"/>
      <point x="1200" y="2213"/>
      <point x="1199" y="2215"/>
      <point x="1197" y="2215" type="curve"/>
      <point x="1197" y="2215" type="line"/>
      <point x="1089" y="2215" type="line" smooth="yes"/>
      <point x="1087" y="2215"/>
      <point x="1086" y="2213"/>
      <point x="1086" y="2209" type="curve" smooth="yes"/>
      <point x="1086" y="1998" type="line" smooth="yes"/>
      <point x="1086" y="1995"/>
      <point x="1087" y="1994"/>
    </contour>
    <contour>
      <point x="1092" y="2002" type="line"/>
      <point x="1092" y="2203" type="line"/>
      <point x="1194" y="2203" type="line"/>
      <point x="1194" y="2203" type="line"/>
      <point x="1194" y="2002" type="line"/>
    </contour>
  </outline>
</glyph>
<glyph name="uniE0C5" format="2">
  <advance width="1200"/>
  <unicode hex="E0C5"/>
  <note>
uniE0C5
</note>
  <outline>
    <contour>
      <point x="604" y="884" type="curve" smooth="yes"/>
      <point x="713" y="884" type="line" smooth="yes"/>
      <point x="721" y="884"/>
      <point x="727" y="898"/>
      <point x="727" y="913" type="curve" smooth="yes"/>
      <point x="727" y="1122" type="line" smooth="yes"/>
      <point x="727" y="1138"/>
      <point x="720" y="1150"/>
      <point x="713" y="1150" type="curve"/>
      <point x="713" y="1150" type="line"/>
      <point x="604" y="1150" type="line" smooth="yes"/>
      <point x="596" y="1150"/>
      <point x="590" y="1135"/>
      <point x="590" y="1122" type="curve" smooth="yes"/>
      <point x="590" y="913" type="line" smooth="yes"/>
      <point x="590" y="895"/>
      <point x="597" y="884"/>
    </contour>
    <contour>
      <point x="604" y="-480" type="curve" smooth="yes"/>
      <point x="713" y="-480" type="line" smooth="yes"/>
      <point x="714" y="-480"/>
      <point x="715" y="-478"/>
      <point x="715" y="-474" type="curve" smooth="yes"/>
      <point x="715" y="-264" type="line" smooth="yes"/>
      <point x="715" y="-261"/>
      <point x="714" y="-258"/>
      <point x="713" y="-258" type="curve"/>
      <point x="713" y="-258" type="line"/>
      <point x="604" y="-258" type="line" smooth="yes"/>
      <point x="603" y="-258"/>
      <point x="601" y="-261"/>
      <point x="601" y="-264" type="curve" smooth="yes"/>
      <point x="601" y="-474" type="line" smooth="yes"/>
      <point x="601" y="-478"/>
      <point x="603" y="-480"/>
    </contour>
    <contour>
      <point x="607" y="-469" type="line"/>
      <point x="607" y="-270" type="line"/>
      <point x="710" y="-270" type="line"/>
      <point x="710" y="-270" type="line"/>
      <point x="710" y="-469" type="line"/>
    </contour>
    <contour>
      <point x="300" y="87" type="curve" smooth="yes"/>
      <point x="408" y="87" type="line" smooth="yes"/>
      <point x="410" y="87"/>
      <point x="411" y="90"/>
      <point x="411" y="92" type="curve" smooth="yes"/>
      <point x="411" y="302" type="line" smooth="yes"/>
      <point x="411" y="306"/>
      <point x="410" y="308"/>
      <point x="408" y="308" type="curve"/>
      <point x="408" y="308" type="line"/>
      <point x="300" y="308" type="line" smooth="yes"/>
      <point x="298" y="308"/>
      <point x="297" y="306"/>
      <point x="297" y="302" type="curve" smooth="yes"/>
      <point x="297" y="92" type="line" smooth="yes"/>
      <point x="297" y="90"/>
      <point x="298" y="87"/>
    </contour>
    <contour>
      <point x="303" y="98" type="line"/>
      <point x="303" y="297" type="line"/>
      <point x="405" y="297" type="line"/>
      <point x="405" y="297" type="line"/>
      <point x="405" y="98" type="line"/>
    </contour>
    <contour>
      <point x="927" y="-474" type="line"/>
      <point x="1035" y="-474" type="line"/>
      <point x="1035" y="-264" type="line"/>
      <point x="927" y="-264" type="line"/>
      <point x="927" y="-264" type="line"/>
    </contour>
    <contour>
      <point x="153" y="369" type="curve" smooth="yes"/>
      <point x="261" y="369" type="line" smooth="yes"/>
      <point x="262" y="369"/>
      <point x="264" y="370"/>
      <point x="264" y="374" type="curve" smooth="yes"/>
      <point x="264" y="584" type="line" smooth="yes"/>
      <point x="264" y="588"/>
      <point x="262" y="590"/>
      <point x="261" y="590" type="curve"/>
      <point x="261" y="590" type="line"/>
      <point x="153" y="590" type="line" smooth="yes"/>
      <point x="151" y="590"/>
      <point x="150" y="588"/>
      <point x="150" y="584" type="curve" smooth="yes"/>
      <point x="150" y="374" type="line" smooth="yes"/>
      <point x="150" y="370"/>
      <point x="151" y="369"/>
    </contour>
    <contour>
      <point x="155" y="381" type="line"/>
      <point x="155" y="579" type="line"/>
      <point x="258" y="579" type="line"/>
      <point x="258" y="579" type="line"/>
      <point x="258" y="381" type="line"/>
    </contour>
    <contour>
      <point x="769" y="-189" type="line"/>
      <point x="877" y="-189" type="line"/>
      <point x="877" y="20" type="line"/>
      <point x="769" y="20" type="line"/>
      <point x="769" y="20" type="line"/>
    </contour>
    <contour>
      <point x="1092" y="-474" type="line"/>
      <point x="1200" y="-474" type="line"/>
      <point x="1200" y="-264" type="line"/>
      <point x="1092" y="-264" type="line"/>
      <point x="1092" y="-264" type="line"/>
    </contour>
    <contour>
      <point x="604" y="87" type="curve" smooth="yes"/>
      <point x="713" y="87" type="line" smooth="yes"/>
      <point x="714" y="87"/>
      <point x="715" y="90"/>
      <point x="715" y="92" type="curve" smooth="yes"/>
      <point x="715" y="302" type="line" smooth="yes"/>
      <point x="715" y="306"/>
      <point x="714" y="308"/>
      <point x="713" y="308" type="curve"/>
      <point x="713" y="308" type="line"/>
      <point x="604" y="308" type="line" smooth="yes"/>
      <point x="603" y="308"/>
      <point x="601" y="306"/>
      <point x="601" y="302" type="curve" smooth="yes"/>
      <point x="601" y="92" type="line" smooth="yes"/>
      <point x="601" y="90"/>
      <point x="603" y="87"/>
    </contour>
    <contour>
      <point x="607" y="98" type="line"/>
      <point x="607" y="297" type="line"/>
      <point x="710" y="297" type="line"/>
      <point x="710" y="297" type="line"/>
      <point x="710" y="98" type="line"/>
    </contour>
    <contour>
      <point x="927" y="-189" type="line"/>
      <point x="1035" y="-189" type="line"/>
      <point x="1035" y="20" type="line"/>
      <point x="927" y="20" type="line"/>
      <point x="927" y="20" type="line"/>
    </contour>
    <contour>
      <point x="455" y="352" type="curve" smooth="yes"/>
      <point x="563" y="352" type="line" smooth="yes"/>
      <point x="570" y="352"/>
      <point x="575" y="365"/>
      <point x="575" y="374" type="curve" smooth="yes"/>
      <point x="575" y="584" type="line" smooth="yes"/>
      <point x="575" y="598"/>
      <point x="568" y="608"/>
      <point x="563" y="608" type="curve"/>
      <point x="563" y="608" type="line"/>
      <point x="455" y="608" type="line" smooth="yes"/>
      <point x="448" y="608"/>
      <point x="443" y="594"/>
      <point x="443" y="584" type="curve" smooth="yes"/>
      <point x="443" y="374" type="line" smooth="yes"/>
      <point x="443" y="361"/>
      <point x="449" y="352"/>
    </contour>
    <contour>
      <point x="466" y="398" type="line"/>
      <point x="466" y="561" type="line"/>
      <point x="551" y="561" type="line"/>
      <point x="551" y="561" type="line"/>
      <point x="551" y="398" type="line"/>
    </contour>
    <contour>
      <point x="769" y="92" type="line"/>
      <point x="877" y="92" type="line"/>
      <point x="877" y="302" type="line"/>
      <point x="769" y="302" type="line"/>
      <point x="769" y="302" type="line"/>
    </contour>
    <contour>
      <point x="1092" y="-189" type="line"/>
      <point x="1200" y="-189" type="line"/>
      <point x="1200" y="20" type="line"/>
      <point x="1092" y="20" type="line"/>
      <point x="1092" y="20" type="line"/>
    </contour>
    <contour>
      <point x="927" y="92" type="line"/>
      <point x="1035" y="92" type="line"/>
      <point x="1035" y="302" type="line"/>
      <point x="927" y="302" type="line"/>
      <point x="927" y="302" type="line"/>
    </contour>
    <contour>
      <point x="455" y="648" type="line"/>
      <point x="563" y="648" type="line"/>
      <point x="563" y="856" type="line"/>
      <point x="455" y="856" type="line"/>
      <point x="455" y="856" type="line"/>
    </contour>
    <contour>
      <point x="1092" y="92" type="line"/>
      <point x="1200" y="92" type="line"/>
      <point x="1200" y="302" type="line"/>
      <point x="1092" y="302" type="line"/>
      <point x="1092" y="302" type="line"/>
    </contour>
    <contour>
      <point x="300" y="906" type="curve" smooth="yes"/>
      <point x="408" y="906" type="line" smooth="yes"/>
      <point x="410" y="906"/>
      <point x="411" y="908"/>
      <point x="411" y="913" type="curve" smooth="yes"/>
      <point x="411" y="1122" type="line" smooth="yes"/>
      <point x="411" y="1125"/>
      <point x="410" y="1128"/>
      <point x="408" y="1128" type="curve"/>
      <point x="408" y="1128" type="line"/>
      <point x="300" y="1128" type="line" smooth="yes"/>
      <point x="298" y="1128"/>
      <point x="297" y="1125"/>
      <point x="297" y="1122" type="curve" smooth="yes"/>
      <point x="297" y="913" type="line" smooth="yes"/>
      <point x="297" y="908"/>
      <point x="298" y="906"/>
    </contour>
    <contour>
      <point x="303" y="918" type="line"/>
      <point x="303" y="1116" type="line"/>
      <point x="405" y="1116" type="line"/>
      <point x="405" y="1116" type="line"/>
      <point x="405" y="918" type="line"/>
    </contour>
    <contour>
      <point x="604" y="648" type="line"/>
      <point x="713" y="648" type="line"/>
      <point x="713" y="648" type="line"/>
      <point x="713" y="856" type="line"/>
      <point x="604" y="856" type="line"/>
    </contour>
    <contour>
      <point x="927" y="374" type="line"/>
      <point x="1035" y="374" type="line"/>
      <point x="1035" y="584" type="line"/>
      <point x="927" y="584" type="line"/>
      <point x="927" y="584" type="line"/>
    </contour>
    <contour>
      <point x="455" y="913" type="line"/>
      <point x="563" y="913" type="line"/>
      <point x="563" y="913" type="line"/>
      <point x="563" y="1122" type="line"/>
      <point x="455" y="1122" type="line"/>
    </contour>
    <contour>
      <point x="769" y="648" type="line"/>
      <point x="877" y="648" type="line"/>
      <point x="877" y="856" type="line"/>
      <point x="769" y="856" type="line"/>
      <point x="769" y="856" type="line"/>
    </contour>
    <contour>
      <point x="1092" y="374" type="line"/>
      <point x="1200" y="374" type="line"/>
      <point x="1200" y="584" type="line"/>
      <point x="1092" y="584" type="line"/>
      <point x="1092" y="584" type="line"/>
    </contour>
    <contour>
      <point x="619" y="940" type="line"/>
      <point x="619" y="1094" type="line"/>
      <point x="698" y="1094" type="line"/>
      <point x="698" y="1094" type="line"/>
      <point x="698" y="940" type="line"/>
    </contour>
    <contour>
      <point x="927" y="648" type="line"/>
      <point x="1035" y="648" type="line"/>
      <point x="1035" y="856" type="line"/>
      <point x="927" y="856" type="line"/>
      <point x="927" y="856" type="line"/>
    </contour>
    <contour>
      <point x="455" y="1155" type="curve" smooth="yes"/>
      <point x="563" y="1155" type="line" smooth="yes"/>
      <point x="570" y="1155"/>
      <point x="575" y="1167"/>
      <point x="575" y="1177" type="curve" smooth="yes"/>
      <point x="575" y="1387" type="line" smooth="yes"/>
      <point x="575" y="1401"/>
      <point x="568" y="1411"/>
      <point x="563" y="1411" type="curve"/>
      <point x="563" y="1411" type="line"/>
      <point x="455" y="1411" type="line" smooth="yes"/>
      <point x="448" y="1411"/>
      <point x="443" y="1397"/>
      <point x="443" y="1387" type="curve" smooth="yes"/>
      <point x="443" y="1177" type="line" smooth="yes"/>
      <point x="443" y="1164"/>
      <point x="449" y="1155"/>
    </contour>
    <contour>
      <point x="466" y="1200" type="line"/>
      <point x="466" y="1364" type="line"/>
      <point x="551" y="1364" type="line"/>
      <point x="551" y="1364" type="line"/>
      <point x="551" y="1200" type="line"/>
    </contour>
    <contour>
      <point x="769" y="913" type="line"/>
      <point x="877" y="913" type="line"/>
      <point x="877" y="1122" type="line"/>
      <point x="769" y="1122" type="line"/>
      <point x="769" y="1122" type="line"/>
    </contour>
    <contour>
      <point x="3" y="1703" type="curve" smooth="yes"/>
      <point x="111" y="1703" type="line" smooth="yes"/>
      <point x="113" y="1703"/>
      <point x="114" y="1705"/>
      <point x="114" y="1710" type="curve" smooth="yes"/>
      <point x="114" y="1919" type="line" smooth="yes"/>
      <point x="114" y="1922"/>
      <point x="113" y="1925"/>
      <point x="111" y="1925" type="curve"/>
      <point x="111" y="1925" type="line"/>
      <point x="3" y="1925" type="line" smooth="yes"/>
      <point x="1" y="1925"/>
      <point x="0" y="1922"/>
      <point x="0" y="1919" type="curve" smooth="yes"/>
      <point x="0" y="1710" type="line" smooth="yes"/>
      <point x="0" y="1705"/>
      <point x="1" y="1703"/>
    </contour>
    <contour>
      <point x="6" y="1715" type="line"/>
      <point x="6" y="1913" type="line"/>
      <point x="108" y="1913" type="line"/>
      <point x="108" y="1913" type="line"/>
      <point x="108" y="1715" type="line"/>
    </contour>
    <contour>
      <point x="1092" y="648" type="line"/>
      <point x="1200" y="648" type="line"/>
      <point x="1200" y="856" type="line"/>
      <point x="1092" y="856" type="line"/>
      <point x="1092" y="856" type="line"/>
    </contour>
    <contour>
      <point x="927" y="913" type="line"/>
      <point x="1035" y="913" type="line"/>
      <point x="1035" y="1122" type="line"/>
      <point x="927" y="1122" type="line"/>
      <point x="927" y="1122" type="line"/>
    </contour>
    <contour>
      <point x="455" y="1413" type="curve" smooth="yes"/>
      <point x="563" y="1413" type="line" smooth="yes"/>
      <point x="570" y="1413"/>
      <point x="575" y="1426"/>
      <point x="575" y="1436" type="curve" smooth="yes"/>
      <point x="575" y="1646" type="line" smooth="yes"/>
      <point x="575" y="1658"/>
      <point x="568" y="1668"/>
      <point x="563" y="1668" type="curve"/>
      <point x="563" y="1668" type="line"/>
      <point x="455" y="1668" type="line" smooth="yes"/>
      <point x="448" y="1668"/>
      <point x="443" y="1655"/>
      <point x="443" y="1646" type="curve" smooth="yes"/>
      <point x="443" y="1436" type="line" smooth="yes"/>
      <point x="443" y="1422"/>
      <point x="449" y="1413"/>
    </contour>
    <contour>
      <point x="466" y="1459" type="line"/>
      <point x="466" y="1622" type="line"/>
      <point x="551" y="1622" type="line"/>
      <point x="551" y="1622" type="line"/>
      <point x="551" y="1459" type="line"/>
    </contour>
    <contour>
      <point x="769" y="1177" type="line"/>
      <point x="877" y="1177" type="line"/>
      <point x="877" y="1387" type="line"/>
      <point x="769" y="1387" type="line"/>
      <point x="769" y="1387" type="line"/>
    </contour>
    <contour>
      <point x="3" y="1994" type="curve" smooth="yes"/>
      <point x="111" y="1994" type="line" smooth="yes"/>
      <point x="113" y="1994"/>
      <point x="114" y="1996"/>
      <point x="114" y="2000" type="curve" smooth="yes"/>
      <point x="114" y="2209" type="line" smooth="yes"/>
      <point x="114" y="2212"/>
      <point x="113" y="2215"/>
      <point x="111" y="2215" type="curve"/>
      <point x="111" y="2215" type="line"/>
      <point x="3" y="2215" type="line" smooth="yes"/>
      <point x="1" y="2215"/>
      <point x="0" y="2212"/>
      <point x="0" y="2209" type="curve" smooth="yes"/>
      <point x="0" y="2000" type="line" smooth="yes"/>
      <point x="0" y="1996"/>
      <point x="1" y="1994"/>
    </contour>
    <contour>
      <point x="6" y="2004" type="line"/>
      <point x="6" y="2203" type="line"/>
      <point x="108" y="2203" type="line"/>
      <point x="108" y="2203" type="line"/>
      <point x="108" y="2004" type="line"/>
    </contour>
    <contour>
      <point x="1092" y="913" type="line"/>
      <point x="1200" y="913" type="line"/>
      <point x="1200" y="1122" type="line"/>
      <point x="1092" y="1122" type="line"/>
      <point x="1092" y="1122" type="line"/>
    </contour>
    <contour>
      <point x="300" y="1710" type="line"/>
      <point x="408" y="1710" type="line"/>
      <point x="408" y="1710" type="line"/>
      <point x="408" y="1919" type="line"/>
      <point x="300" y="1919" type="line"/>
    </contour>
    <contour>
      <point x="604" y="1436" type="line"/>
      <point x="713" y="1436" type="line"/>
      <point x="713" y="1646" type="line"/>
      <point x="604" y="1646" type="line"/>
      <point x="604" y="1646" type="line"/>
    </contour>
    <contour>
      <point x="927" y="1177" type="line"/>
      <point x="1035" y="1177" type="line"/>
      <point x="1035" y="1387" type="line"/>
      <point x="927" y="1387" type="line"/>
      <point x="927" y="1387" type="line"/>
    </contour>
    <contour>
      <point x="769" y="1436" type="line"/>
      <point x="877" y="1436" type="line"/>
      <point x="877" y="1646" type="line"/>
      <point x="769" y="1646" type="line"/>
      <point x="769" y="1646" type="line"/>
    </contour>
    <contour>
      <point x="1092" y="1177" type="line"/>
      <point x="1200" y="1177" type="line"/>
      <point x="1200" y="1387" type="line"/>
      <point x="1092" y="1387" type="line"/>
      <point x="1092" y="1387" type="line"/>
    </contour>
    <contour>
      <point x="300" y="2000" type="line"/>
      <point x="408" y="2000" type="line"/>
      <point x="408" y="2000" type="line"/>
      <point x="408" y="2209" type="line"/>
      <point x="300" y="2209" type="line"/>
    </contour>
    <contour>
      <point x="604" y="1710" type="line"/>
      <point x="713" y="1710" type="line"/>
      <point x="713" y="1710" type="line"/>
      <point x="713" y="1919" type="line"/>
      <point x="604" y="1919" type="line"/>
    </contour>
    <contour>
      <point x="927" y="1436" type="line"/>
      <point x="1035" y="1436" type="line"/>
      <point x="1035" y="1646" type="line"/>
      <point x="927" y="1646" type="line"/>
      <point x="927" y="1646" type="line"/>
    </contour>
    <contour>
      <point x="455" y="2000" type="line"/>
      <point x="563" y="2000" type="line"/>
      <point x="563" y="2000" type="line"/>
      <point x="563" y="2209" type="line"/>
      <point x="455" y="2209" type="line"/>
    </contour>
    <contour>
      <point x="769" y="1710" type="line"/>
      <point x="877" y="1710" type="line"/>
      <point x="877" y="1919" type="line"/>
      <point x="769" y="1919" type="line"/>
      <point x="769" y="1919" type="line"/>
    </contour>
    <contour>
      <point x="1092" y="1436" type="line"/>
      <point x="1200" y="1436" type="line"/>
      <point x="1200" y="1646" type="line"/>
      <point x="1092" y="1646" type="line"/>
      <point x="1092" y="1646" type="line"/>
    </contour>
    <contour>
      <point x="607" y="1983" type="line"/>
      <point x="715" y="1983" type="line" smooth="yes"/>
      <point x="720" y="1983"/>
      <point x="724" y="1992"/>
      <point x="724" y="2000" type="curve" smooth="yes"/>
      <point x="724" y="2209" type="line" smooth="yes"/>
      <point x="724" y="2218"/>
      <point x="719" y="2226"/>
      <point x="715" y="2226" type="curve" smooth="yes"/>
      <point x="607" y="2226" type="line" smooth="yes"/>
      <point x="602" y="2226"/>
      <point x="598" y="2217"/>
      <point x="598" y="2209" type="curve" smooth="yes"/>
      <point x="598" y="2000" type="line" smooth="yes"/>
      <point x="598" y="1991"/>
      <point x="603" y="1983"/>
      <point x="607" y="1983" type="curve"/>
    </contour>
    <contour>
      <point x="615" y="2016" type="line"/>
      <point x="615" y="2192" type="line"/>
      <point x="706" y="2192" type="line"/>
      <point x="706" y="2016" type="line"/>
      <point x="615" y="2016" type="line"/>
    </contour>
    <contour>
      <point x="927" y="1710" type="line"/>
      <point x="1035" y="1710" type="line"/>
      <point x="1035" y="1919" type="line"/>
      <point x="927" y="1919" type="line"/>
      <point x="927" y="1919" type="line"/>
    </contour>
    <contour>
      <point x="769" y="2000" type="line"/>
      <point x="877" y="2000" type="line"/>
      <point x="877" y="2209" type="line"/>
      <point x="769" y="2209" type="line"/>
      <point x="769" y="2209" type="line"/>
    </contour>
    <contour>
      <point x="1092" y="1710" type="line"/>
      <point x="1200" y="1710" type="line"/>
      <point x="1200" y="1919" type="line"/>
      <point x="1092" y="1919" type="line"/>
      <point x="1092" y="1919" type="line"/>
    </contour>
    <contour>
      <point x="927" y="2000" type="line"/>
      <point x="1035" y="2000" type="line"/>
      <point x="1035" y="2209" type="line"/>
      <point x="927" y="2209" type="line"/>
      <point x="927" y="2209" type="line"/>
    </contour>
    <contour>
      <point x="1092" y="2000" type="line"/>
      <point x="1200" y="2000" type="line"/>
      <point x="1200" y="2209" type="line"/>
      <point x="1200" y="2209" type="line"/>
      <point x="1092" y="2209" type="line"/>
    </contour>
  </outline>
</glyph>
<glyph name="uniE0C6" format="2">
  <advance width="1200"/>
  <unicode hex="E0C6"/>
  <note>
uniE0C6
</note>
  <outline>
    <contour>
      <point x="773" y="287" type="curve" smooth="yes"/>
      <point x="944" y="287" type="line" smooth="yes"/>
      <point x="956" y="287"/>
      <point x="968" y="307"/>
      <point x="968" y="328" type="curve" smooth="yes"/>
      <point x="968" y="632" type="line" smooth="yes"/>
      <point x="968" y="651"/>
      <point x="957" y="673"/>
      <point x="944" y="673" type="curve"/>
      <point x="944" y="673" type="line"/>
      <point x="773" y="673" type="line" smooth="yes"/>
      <point x="763" y="673"/>
      <point x="750" y="654"/>
      <point x="750" y="632" type="curve" smooth="yes"/>
      <point x="750" y="328" type="line" smooth="yes"/>
      <point x="750" y="309"/>
      <point x="760" y="287"/>
    </contour>
    <contour>
      <point x="0" y="-446" type="line"/>
      <point x="172" y="-446" type="line"/>
      <point x="172" y="-143" type="line"/>
      <point x="0" y="-143" type="line"/>
      <point x="0" y="-143" type="line"/>
    </contour>
    <contour>
      <point x="261" y="-446" type="line"/>
      <point x="433" y="-446" type="line"/>
      <point x="433" y="-143" type="line"/>
      <point x="261" y="-143" type="line"/>
      <point x="261" y="-143" type="line"/>
    </contour>
    <contour>
      <point x="0" y="-54" type="line"/>
      <point x="172" y="-54" type="line"/>
      <point x="172" y="249" type="line"/>
      <point x="0" y="249" type="line"/>
      <point x="0" y="249" type="line"/>
    </contour>
    <contour>
      <point x="261" y="-54" type="line"/>
      <point x="433" y="-54" type="line"/>
      <point x="433" y="249" type="line"/>
      <point x="261" y="249" type="line"/>
      <point x="261" y="249" type="line"/>
    </contour>
    <contour>
      <point x="0" y="328" type="line"/>
      <point x="172" y="328" type="line"/>
      <point x="172" y="632" type="line"/>
      <point x="0" y="632" type="line"/>
      <point x="0" y="632" type="line"/>
    </contour>
    <contour>
      <point x="512" y="-81" type="curve" smooth="yes"/>
      <point x="683" y="-81" type="line" smooth="yes"/>
      <point x="690" y="-81"/>
      <point x="698" y="-70"/>
      <point x="698" y="-54" type="curve" smooth="yes"/>
      <point x="698" y="249" type="line" smooth="yes"/>
      <point x="698" y="261"/>
      <point x="691" y="275"/>
      <point x="683" y="275" type="curve"/>
      <point x="683" y="275" type="line"/>
      <point x="512" y="275" type="line" smooth="yes"/>
      <point x="504" y="275"/>
      <point x="496" y="264"/>
      <point x="496" y="249" type="curve" smooth="yes"/>
      <point x="496" y="-54" type="line" smooth="yes"/>
      <point x="496" y="-67"/>
      <point x="502" y="-81"/>
    </contour>
    <contour>
      <point x="527" y="-27" type="line"/>
      <point x="527" y="222" type="line"/>
      <point x="667" y="222" type="line"/>
      <point x="667" y="222" type="line"/>
      <point x="667" y="-27" type="line"/>
    </contour>
    <contour>
      <point x="1010" y="-480" type="curve" smooth="yes"/>
      <point x="1181" y="-480" type="line" smooth="yes"/>
      <point x="1191" y="-480"/>
      <point x="1200" y="-466"/>
      <point x="1200" y="-446" type="curve" smooth="yes"/>
      <point x="1200" y="-143" type="line" smooth="yes"/>
      <point x="1200" y="-129"/>
      <point x="1192" y="-112"/>
      <point x="1181" y="-112" type="curve"/>
      <point x="1181" y="-112" type="line"/>
      <point x="1010" y="-112" type="line" smooth="yes"/>
      <point x="1001" y="-112"/>
      <point x="992" y="-125"/>
      <point x="992" y="-143" type="curve" smooth="yes"/>
      <point x="992" y="-446" type="line" smooth="yes"/>
      <point x="992" y="-463"/>
      <point x="1000" y="-480"/>
    </contour>
    <contour>
      <point x="1029" y="-415" type="line"/>
      <point x="1029" y="-178" type="line"/>
      <point x="1163" y="-178" type="line"/>
      <point x="1163" y="-178" type="line"/>
      <point x="1163" y="-415" type="line"/>
    </contour>
    <contour>
      <point x="261" y="328" type="line"/>
      <point x="433" y="328" type="line"/>
      <point x="433" y="632" type="line"/>
      <point x="261" y="632" type="line"/>
      <point x="261" y="632" type="line"/>
    </contour>
    <contour>
      <point x="0" y="713" type="line"/>
      <point x="172" y="713" type="line"/>
      <point x="172" y="1016" type="line"/>
      <point x="0" y="1016" type="line"/>
      <point x="0" y="1016" type="line"/>
    </contour>
    <contour>
      <point x="0" y="1084" type="line"/>
      <point x="172" y="1084" type="line"/>
      <point x="172" y="1389" type="line"/>
      <point x="0" y="1389" type="line"/>
      <point x="0" y="1389" type="line"/>
    </contour>
    <contour>
      <point x="796" y="372" type="line"/>
      <point x="796" y="590" type="line"/>
      <point x="921" y="590" type="line"/>
      <point x="921" y="590" type="line"/>
      <point x="921" y="372" type="line"/>
    </contour>
    <contour>
      <point x="512" y="713" type="line"/>
      <point x="683" y="713" type="line"/>
      <point x="683" y="1016" type="line"/>
      <point x="512" y="1016" type="line"/>
      <point x="512" y="1016" type="line"/>
    </contour>
    <contour>
      <point x="261" y="1084" type="line"/>
      <point x="433" y="1084" type="line"/>
      <point x="433" y="1389" type="line"/>
      <point x="261" y="1389" type="line"/>
      <point x="261" y="1389" type="line"/>
    </contour>
    <contour>
      <point x="0" y="1480" type="line"/>
      <point x="172" y="1480" type="line"/>
      <point x="172" y="1783" type="line"/>
      <point x="0" y="1783" type="line"/>
      <point x="0" y="1783" type="line"/>
    </contour>
    <contour>
      <point x="512" y="1071" type="line"/>
      <point x="683" y="1071" type="line" smooth="yes"/>
      <point x="687" y="1071"/>
      <point x="691" y="1077"/>
      <point x="691" y="1084" type="curve" smooth="yes"/>
      <point x="691" y="1389" type="line" smooth="yes"/>
      <point x="691" y="1394"/>
      <point x="688" y="1403"/>
      <point x="683" y="1403" type="curve" smooth="yes"/>
      <point x="512" y="1403" type="line" smooth="yes"/>
      <point x="508" y="1403"/>
      <point x="504" y="1394"/>
      <point x="504" y="1389" type="curve" smooth="yes"/>
      <point x="504" y="1084" type="line" smooth="yes"/>
      <point x="504" y="1079"/>
      <point x="507" y="1071"/>
      <point x="512" y="1071" type="curve"/>
    </contour>
    <contour>
      <point x="519" y="1099" type="line"/>
      <point x="519" y="1374" type="line"/>
      <point x="675" y="1374" type="line"/>
      <point x="675" y="1099" type="line"/>
      <point x="519" y="1099" type="line"/>
    </contour>
    <contour>
      <point x="261" y="1480" type="line"/>
      <point x="433" y="1480" type="line"/>
      <point x="433" y="1783" type="line"/>
      <point x="261" y="1783" type="line"/>
      <point x="261" y="1783" type="line"/>
    </contour>
    <contour>
      <point x="0" y="1899" type="line"/>
      <point x="172" y="1899" type="line"/>
      <point x="172" y="2202" type="line"/>
      <point x="0" y="2202" type="line"/>
      <point x="0" y="2202" type="line"/>
    </contour>
    <contour>
      <point x="512" y="1480" type="line"/>
      <point x="683" y="1480" type="line"/>
      <point x="683" y="1783" type="line"/>
      <point x="512" y="1783" type="line"/>
      <point x="512" y="1783" type="line"/>
    </contour>
    <contour>
      <point x="1010" y="1053" type="curve" smooth="yes"/>
      <point x="1181" y="1053" type="line" smooth="yes"/>
      <point x="1191" y="1053"/>
      <point x="1200" y="1067"/>
      <point x="1200" y="1084" type="curve" smooth="yes"/>
      <point x="1200" y="1389" type="line" smooth="yes"/>
      <point x="1200" y="1404"/>
      <point x="1192" y="1420"/>
      <point x="1181" y="1420" type="curve"/>
      <point x="1181" y="1420" type="line"/>
      <point x="1010" y="1420" type="line" smooth="yes"/>
      <point x="1002" y="1420"/>
      <point x="992" y="1406"/>
      <point x="992" y="1389" type="curve" smooth="yes"/>
      <point x="992" y="1084" type="line" smooth="yes"/>
      <point x="992" y="1070"/>
      <point x="1000" y="1053"/>
    </contour>
    <contour>
      <point x="1029" y="1117" type="line"/>
      <point x="1029" y="1355" type="line"/>
      <point x="1163" y="1355" type="line"/>
      <point x="1163" y="1355" type="line"/>
      <point x="1163" y="1117" type="line"/>
    </contour>
    <contour>
      <point x="261" y="1899" type="line"/>
      <point x="433" y="1899" type="line"/>
      <point x="433" y="2202" type="line"/>
      <point x="261" y="2202" type="line"/>
      <point x="261" y="2202" type="line"/>
    </contour>
    <contour>
      <point x="773" y="1467" type="curve" smooth="yes"/>
      <point x="944" y="1467" type="line" smooth="yes"/>
      <point x="949" y="1467"/>
      <point x="952" y="1472"/>
      <point x="952" y="1480" type="curve" smooth="yes"/>
      <point x="952" y="1783" type="line" smooth="yes"/>
      <point x="952" y="1791"/>
      <point x="949" y="1796"/>
      <point x="944" y="1796" type="curve"/>
      <point x="944" y="1796" type="line"/>
      <point x="773" y="1796" type="line" smooth="yes"/>
      <point x="770" y="1796"/>
      <point x="765" y="1791"/>
      <point x="765" y="1783" type="curve" smooth="yes"/>
      <point x="765" y="1480" type="line" smooth="yes"/>
      <point x="765" y="1473"/>
      <point x="769" y="1467"/>
    </contour>
    <contour>
      <point x="781" y="1493" type="line"/>
      <point x="781" y="1769" type="line"/>
      <point x="937" y="1769" type="line"/>
      <point x="937" y="1769" type="line"/>
      <point x="937" y="1493" type="line"/>
    </contour>
    <contour>
      <point x="512" y="1885" type="line"/>
      <point x="683" y="1885" type="line" smooth="yes"/>
      <point x="687" y="1885"/>
      <point x="691" y="1892"/>
      <point x="691" y="1899" type="curve" smooth="yes"/>
      <point x="691" y="2202" type="line" smooth="yes"/>
      <point x="691" y="2208"/>
      <point x="688" y="2215"/>
      <point x="683" y="2215" type="curve" smooth="yes"/>
      <point x="512" y="2215" type="line" smooth="yes"/>
      <point x="508" y="2215"/>
      <point x="504" y="2208"/>
      <point x="504" y="2202" type="curve" smooth="yes"/>
      <point x="504" y="1899" type="line" smooth="yes"/>
      <point x="504" y="1892"/>
      <point x="507" y="1885"/>
      <point x="512" y="1885" type="curve"/>
    </contour>
    <contour>
      <point x="519" y="1912" type="line"/>
      <point x="519" y="2187" type="line"/>
      <point x="675" y="2187" type="line"/>
      <point x="675" y="1912" type="line"/>
      <point x="519" y="1912" type="line"/>
    </contour>
    <contour>
      <point x="769" y="1874" type="line"/>
      <point x="940" y="1874" type="line" smooth="yes"/>
      <point x="947" y="1874"/>
      <point x="955" y="1885"/>
      <point x="955" y="1899" type="curve" smooth="yes"/>
      <point x="955" y="2202" type="line" smooth="yes"/>
      <point x="955" y="2213"/>
      <point x="949" y="2226"/>
      <point x="940" y="2226" type="curve" smooth="yes"/>
      <point x="769" y="2226" type="line" smooth="yes"/>
      <point x="763" y="2226"/>
      <point x="755" y="2215"/>
      <point x="755" y="2202" type="curve" smooth="yes"/>
      <point x="755" y="1899" type="line" smooth="yes"/>
      <point x="755" y="1887"/>
      <point x="761" y="1874"/>
      <point x="769" y="1874" type="curve"/>
    </contour>
    <contour>
      <point x="784" y="1924" type="line"/>
      <point x="784" y="2176" type="line"/>
      <point x="927" y="2176" type="line"/>
      <point x="927" y="1924" type="line"/>
      <point x="784" y="1924" type="line"/>
    </contour>
  </outline>
</glyph>
<glyph name="uniE0C7" format="2">
  <advance width="1200"/>
  <unicode hex="E0C7"/>
  <note>
uniE0C7
</note>
  <outline>
    <contour>
      <point x="256" y="287" type="curve" smooth="yes"/>
      <point x="428" y="287" type="line" smooth="yes"/>
      <point x="440" y="287"/>
      <point x="450" y="309"/>
      <point x="450" y="330" type="curve" smooth="yes"/>
      <point x="450" y="632" type="line" smooth="yes"/>
      <point x="450" y="654"/>
      <point x="438" y="673"/>
      <point x="428" y="673" type="curve"/>
      <point x="428" y="673" type="line"/>
      <point x="256" y="673" type="line" smooth="yes"/>
      <point x="243" y="673"/>
      <point x="232" y="650"/>
      <point x="232" y="632" type="curve" smooth="yes"/>
      <point x="232" y="330" type="line" smooth="yes"/>
      <point x="232" y="306"/>
      <point x="245" y="287"/>
    </contour>
    <contour>
      <point x="19" y="-480" type="curve" smooth="yes"/>
      <point x="190" y="-480" type="line" smooth="yes"/>
      <point x="200" y="-480"/>
      <point x="209" y="-463"/>
      <point x="209" y="-446" type="curve" smooth="yes"/>
      <point x="209" y="-145" type="line" smooth="yes"/>
      <point x="209" y="-128"/>
      <point x="198" y="-112"/>
      <point x="190" y="-112" type="curve"/>
      <point x="190" y="-112" type="line"/>
      <point x="19" y="-112" type="line" smooth="yes"/>
      <point x="8" y="-112"/>
      <point x="0" y="-129"/>
      <point x="0" y="-145" type="curve" smooth="yes"/>
      <point x="0" y="-446" type="line" smooth="yes"/>
      <point x="0" y="-465"/>
      <point x="9" y="-480"/>
    </contour>
    <contour>
      <point x="37" y="-415" type="line"/>
      <point x="37" y="-176" type="line"/>
      <point x="172" y="-176" type="line"/>
      <point x="172" y="-176" type="line"/>
      <point x="172" y="-415" type="line"/>
    </contour>
    <contour>
      <point x="767" y="-446" type="line"/>
      <point x="939" y="-446" type="line"/>
      <point x="939" y="-145" type="line"/>
      <point x="767" y="-145" type="line"/>
      <point x="767" y="-145" type="line"/>
    </contour>
    <contour>
      <point x="517" y="-81" type="curve" smooth="yes"/>
      <point x="688" y="-81" type="line" smooth="yes"/>
      <point x="698" y="-81"/>
      <point x="704" y="-67"/>
      <point x="704" y="-54" type="curve" smooth="yes"/>
      <point x="704" y="249" type="line" smooth="yes"/>
      <point x="704" y="264"/>
      <point x="696" y="276"/>
      <point x="688" y="276" type="curve"/>
      <point x="688" y="276" type="line"/>
      <point x="517" y="276" type="line" smooth="yes"/>
      <point x="508" y="276"/>
      <point x="502" y="261"/>
      <point x="502" y="249" type="curve" smooth="yes"/>
      <point x="502" y="-54" type="line" smooth="yes"/>
      <point x="502" y="-71"/>
      <point x="510" y="-81"/>
    </contour>
    <contour>
      <point x="533" y="-26" type="line"/>
      <point x="533" y="222" type="line"/>
      <point x="674" y="222" type="line"/>
      <point x="674" y="222" type="line"/>
      <point x="674" y="-26" type="line"/>
    </contour>
    <contour>
      <point x="1029" y="-446" type="line"/>
      <point x="1200" y="-446" type="line"/>
      <point x="1200" y="-145" type="line"/>
      <point x="1029" y="-145" type="line"/>
      <point x="1029" y="-145" type="line"/>
    </contour>
    <contour>
      <point x="279" y="369" type="line"/>
      <point x="279" y="591" type="line"/>
      <point x="404" y="591" type="line"/>
      <point x="404" y="591" type="line"/>
      <point x="404" y="369" type="line"/>
    </contour>
    <contour>
      <point x="767" y="-54" type="line"/>
      <point x="939" y="-54" type="line"/>
      <point x="939" y="249" type="line"/>
      <point x="767" y="249" type="line"/>
      <point x="767" y="249" type="line"/>
    </contour>
    <contour>
      <point x="1029" y="-54" type="line"/>
      <point x="1200" y="-54" type="line"/>
      <point x="1200" y="249" type="line"/>
      <point x="1029" y="249" type="line"/>
      <point x="1029" y="249" type="line"/>
    </contour>
    <contour>
      <point x="767" y="330" type="line"/>
      <point x="939" y="330" type="line"/>
      <point x="939" y="632" type="line"/>
      <point x="767" y="632" type="line"/>
      <point x="767" y="632" type="line"/>
    </contour>
    <contour>
      <point x="19" y="1053" type="curve" smooth="yes"/>
      <point x="190" y="1053" type="line" smooth="yes"/>
      <point x="200" y="1053"/>
      <point x="209" y="1071"/>
      <point x="209" y="1084" type="curve" smooth="yes"/>
      <point x="209" y="1389" type="line" smooth="yes"/>
      <point x="209" y="1406"/>
      <point x="198" y="1421"/>
      <point x="190" y="1421" type="curve"/>
      <point x="190" y="1421" type="line"/>
      <point x="19" y="1421" type="line" smooth="yes"/>
      <point x="8" y="1421"/>
      <point x="0" y="1403"/>
      <point x="0" y="1389" type="curve" smooth="yes"/>
      <point x="0" y="1084" type="line" smooth="yes"/>
      <point x="0" y="1066"/>
      <point x="9" y="1053"/>
    </contour>
    <contour>
      <point x="37" y="1117" type="line"/>
      <point x="37" y="1356" type="line"/>
      <point x="172" y="1356" type="line"/>
      <point x="172" y="1356" type="line"/>
      <point x="172" y="1117" type="line"/>
    </contour>
    <contour>
      <point x="517" y="713" type="line"/>
      <point x="688" y="713" type="line"/>
      <point x="688" y="1015" type="line"/>
      <point x="517" y="1015" type="line"/>
      <point x="517" y="1015" type="line"/>
    </contour>
    <contour>
      <point x="1029" y="330" type="line"/>
      <point x="1200" y="330" type="line"/>
      <point x="1200" y="632" type="line"/>
      <point x="1029" y="632" type="line"/>
      <point x="1029" y="632" type="line"/>
    </contour>
    <contour>
      <point x="517" y="1072" type="line"/>
      <point x="688" y="1072" type="line" smooth="yes"/>
      <point x="693" y="1072"/>
      <point x="696" y="1079"/>
      <point x="696" y="1084" type="curve" smooth="yes"/>
      <point x="696" y="1389" type="line" smooth="yes"/>
      <point x="696" y="1395"/>
      <point x="693" y="1402"/>
      <point x="688" y="1402" type="curve" smooth="yes"/>
      <point x="517" y="1402" type="line" smooth="yes"/>
      <point x="513" y="1402"/>
      <point x="509" y="1394"/>
      <point x="509" y="1389" type="curve" smooth="yes"/>
      <point x="509" y="1084" type="line" smooth="yes"/>
      <point x="509" y="1077"/>
      <point x="514" y="1072"/>
      <point x="517" y="1072" type="curve"/>
    </contour>
    <contour>
      <point x="525" y="1098" type="line"/>
      <point x="525" y="1374" type="line"/>
      <point x="681" y="1374" type="line"/>
      <point x="681" y="1098" type="line"/>
      <point x="525" y="1098" type="line"/>
    </contour>
    <contour>
      <point x="256" y="1468" type="curve" smooth="yes"/>
      <point x="428" y="1468" type="line" smooth="yes"/>
      <point x="432" y="1468"/>
      <point x="435" y="1476"/>
      <point x="435" y="1479" type="curve" smooth="yes"/>
      <point x="435" y="1783" type="line" smooth="yes"/>
      <point x="435" y="1791"/>
      <point x="431" y="1796"/>
      <point x="428" y="1796" type="curve"/>
      <point x="428" y="1796" type="line"/>
      <point x="256" y="1796" type="line" smooth="yes"/>
      <point x="251" y="1796"/>
      <point x="248" y="1791"/>
      <point x="248" y="1783" type="curve" smooth="yes"/>
      <point x="248" y="1479" type="line" smooth="yes"/>
      <point x="248" y="1472"/>
      <point x="253" y="1468"/>
    </contour>
    <contour>
      <point x="263" y="1493" type="line"/>
      <point x="263" y="1770" type="line"/>
      <point x="420" y="1770" type="line"/>
      <point x="420" y="1770" type="line"/>
      <point x="420" y="1493" type="line"/>
    </contour>
    <contour>
      <point x="1029" y="713" type="line"/>
      <point x="1200" y="713" type="line"/>
      <point x="1200" y="1015" type="line"/>
      <point x="1029" y="1015" type="line"/>
      <point x="1029" y="1015" type="line"/>
    </contour>
    <contour>
      <point x="767" y="1084" type="line"/>
      <point x="939" y="1084" type="line"/>
      <point x="939" y="1389" type="line"/>
      <point x="767" y="1389" type="line"/>
      <point x="767" y="1389" type="line"/>
    </contour>
    <contour>
      <point x="517" y="1479" type="line"/>
      <point x="688" y="1479" type="line"/>
      <point x="688" y="1783" type="line"/>
      <point x="517" y="1783" type="line"/>
      <point x="517" y="1783" type="line"/>
    </contour>
    <contour>
      <point x="1029" y="1084" type="line"/>
      <point x="1200" y="1084" type="line"/>
      <point x="1200" y="1389" type="line"/>
      <point x="1029" y="1389" type="line"/>
      <point x="1029" y="1389" type="line"/>
    </contour>
    <contour>
      <point x="260" y="1874" type="line"/>
      <point x="431" y="1874" type="line" smooth="yes"/>
      <point x="439" y="1874"/>
      <point x="445" y="1887"/>
      <point x="445" y="1900" type="curve" smooth="yes"/>
      <point x="445" y="2202" type="line" smooth="yes"/>
      <point x="445" y="2216"/>
      <point x="437" y="2226"/>
      <point x="431" y="2226" type="curve" smooth="yes"/>
      <point x="260" y="2226" type="line" smooth="yes"/>
      <point x="252" y="2226"/>
      <point x="246" y="2215"/>
      <point x="246" y="2202" type="curve" smooth="yes"/>
      <point x="246" y="1900" type="line" smooth="yes"/>
      <point x="246" y="1886"/>
      <point x="253" y="1874"/>
      <point x="260" y="1874" type="curve"/>
    </contour>
    <contour>
      <point x="273" y="1924" type="line"/>
      <point x="273" y="2176" type="line"/>
      <point x="417" y="2176" type="line"/>
      <point x="417" y="1924" type="line"/>
      <point x="273" y="1924" type="line"/>
    </contour>
    <contour>
      <point x="767" y="1479" type="line"/>
      <point x="939" y="1479" type="line"/>
      <point x="939" y="1783" type="line"/>
      <point x="767" y="1783" type="line"/>
      <point x="767" y="1783" type="line"/>
    </contour>
    <contour>
      <point x="517" y="1885" type="line"/>
      <point x="688" y="1885" type="line" smooth="yes"/>
      <point x="693" y="1885"/>
      <point x="696" y="1892"/>
      <point x="696" y="1900" type="curve" smooth="yes"/>
      <point x="696" y="2202" type="line" smooth="yes"/>
      <point x="696" y="2209"/>
      <point x="693" y="2216"/>
      <point x="688" y="2216" type="curve" smooth="yes"/>
      <point x="517" y="2216" type="line" smooth="yes"/>
      <point x="513" y="2216"/>
      <point x="509" y="2208"/>
      <point x="509" y="2202" type="curve" smooth="yes"/>
      <point x="509" y="1900" type="line" smooth="yes"/>
      <point x="509" y="1892"/>
      <point x="514" y="1885"/>
      <point x="517" y="1885" type="curve"/>
    </contour>
    <contour>
      <point x="525" y="1912" type="line"/>
      <point x="525" y="2187" type="line"/>
      <point x="681" y="2187" type="line"/>
      <point x="681" y="1912" type="line"/>
      <point x="525" y="1912" type="line"/>
    </contour>
    <contour>
      <point x="1029" y="1479" type="line"/>
      <point x="1200" y="1479" type="line"/>
      <point x="1200" y="1783" type="line"/>
      <point x="1029" y="1783" type="line"/>
      <point x="1029" y="1783" type="line"/>
    </contour>
    <contour>
      <point x="767" y="1900" type="line"/>
      <point x="939" y="1900" type="line"/>
      <point x="939" y="2202" type="line"/>
      <point x="767" y="2202" type="line"/>
      <point x="767" y="2202" type="line"/>
    </contour>
    <contour>
      <point x="1029" y="1900" type="line"/>
      <point x="1200" y="1900" type="line"/>
      <point x="1200" y="2202" type="line"/>
      <point x="1200" y="2202" type="line"/>
      <point x="1029" y="2202" type="line"/>
    </contour>
  </outline>
</glyph>
<glyph name="uniE0C8" format="2">
  <advance width="1200"/>
  <unicode hex="E0C8"/>
  <note>
uniE0C8
</note>
  <outline>
    <contour>
      <point x="0" y="-480" type="line"/>
      <point x="45" y="-480"/>
      <point x="63" y="-480"/>
      <point x="102" y="-457" type="curve" smooth="yes"/>
      <point x="111" y="-452"/>
      <point x="120" y="-445"/>
      <point x="130" y="-440" type="curve" smooth="yes"/>
      <point x="151" y="-433"/>
      <point x="169" y="-445"/>
      <point x="198" y="-428" type="curve" smooth="yes"/>
      <point x="236" y="-405"/>
      <point x="220" y="-403"/>
      <point x="268" y="-403" type="curve" smooth="yes"/>
      <point x="270" y="-403"/>
      <point x="280" y="-397"/>
      <point x="282" y="-396" type="curve" smooth="yes"/>
      <point x="298" y="-388"/>
      <point x="321" y="-388"/>
      <point x="338" y="-387" type="curve" smooth="yes"/>
      <point x="348" y="-386"/>
      <point x="350" y="-373"/>
      <point x="350" y="-363" type="curve" smooth="yes"/>
      <point x="350" y="-325"/>
      <point x="311" y="-345"/>
      <point x="288" y="-337" type="curve"/>
      <point x="279" y="-328"/>
      <point x="271" y="-315"/>
      <point x="259" y="-308" type="curve" smooth="yes"/>
      <point x="239" y="-299"/>
      <point x="226" y="-288"/>
      <point x="204" y="-284" type="curve" smooth="yes"/>
      <point x="202" y="-284"/>
      <point x="198" y="-281"/>
      <point x="196" y="-278" type="curve"/>
      <point x="188" y="-257"/>
      <point x="144" y="-275"/>
      <point x="144" y="-251" type="curve" smooth="yes"/>
      <point x="144" y="-242"/>
      <point x="160" y="-234"/>
      <point x="165" y="-232" type="curve" smooth="yes"/>
      <point x="178" y="-228"/>
      <point x="190" y="-224"/>
      <point x="204" y="-224" type="curve" smooth="yes"/>
      <point x="220" y="-224"/>
      <point x="232" y="-208"/>
      <point x="247" y="-206" type="curve" smooth="yes"/>
      <point x="260" y="-204"/>
      <point x="289" y="-199"/>
      <point x="301" y="-192" type="curve" smooth="yes"/>
      <point x="309" y="-186"/>
      <point x="314" y="-176"/>
      <point x="324" y="-174" type="curve"/>
      <point x="330" y="-175"/>
      <point x="339" y="-176"/>
      <point x="346" y="-176" type="curve" smooth="yes"/>
      <point x="362" y="-176"/>
      <point x="371" y="-173"/>
      <point x="371" y="-154" type="curve" smooth="yes"/>
      <point x="371" y="-143"/>
      <point x="367" y="-133"/>
      <point x="363" y="-122" type="curve"/>
      <point x="376" y="-104"/>
      <point x="532" y="-105"/>
      <point x="560" y="-96" type="curve" smooth="yes"/>
      <point x="573" y="-92"/>
      <point x="593" y="-88"/>
      <point x="607" y="-88" type="curve" smooth="yes"/>
      <point x="623" y="-88"/>
      <point x="640" y="-83"/>
      <point x="640" y="-63" type="curve" smooth="yes"/>
      <point x="640" y="-30"/>
      <point x="618" y="-42"/>
      <point x="602" y="-29" type="curve"/>
      <point x="588" y="-24"/>
      <point x="581" y="-27"/>
      <point x="568" y="-27" type="curve" smooth="yes"/>
      <point x="567" y="-27"/>
      <point x="563" y="-25"/>
      <point x="562" y="-25" type="curve"/>
      <point x="555" y="-18"/>
      <point x="538" y="-5"/>
      <point x="528" y="-5" type="curve" smooth="yes"/>
      <point x="518" y="-5"/>
      <point x="508" y="-12"/>
      <point x="498" y="-12" type="curve" smooth="yes"/>
      <point x="495" y="-12"/>
      <point x="491" y="-10"/>
      <point x="488" y="-8" type="curve"/>
      <point x="479" y="5"/>
      <point x="463" y="8"/>
      <point x="450" y="8" type="curve" smooth="yes"/>
      <point x="444" y="8"/>
      <point x="440" y="4"/>
      <point x="434" y="2" type="curve"/>
      <point x="431" y="3"/>
      <point x="429" y="7"/>
      <point x="427" y="9" type="curve" smooth="yes"/>
      <point x="412" y="26"/>
      <point x="380" y="11"/>
      <point x="363" y="23" type="curve" smooth="yes"/>
      <point x="319" y="56"/>
      <point x="322" y="43"/>
      <point x="273" y="43" type="curve" smooth="yes"/>
      <point x="265" y="43"/>
      <point x="219" y="50"/>
      <point x="222" y="65" type="curve" smooth="yes"/>
      <point x="224" y="74" type="line"/>
      <point x="238" y="84"/>
      <point x="289" y="82"/>
      <point x="307" y="88" type="curve" smooth="yes"/>
      <point x="317" y="91"/>
      <point x="326" y="96"/>
      <point x="334" y="104" type="curve" smooth="yes"/>
      <point x="353" y="123"/>
      <point x="375" y="125"/>
      <point x="397" y="135" type="curve" smooth="yes"/>
      <point x="401" y="136"/>
      <point x="411" y="141"/>
      <point x="415" y="141" type="curve"/>
      <point x="420" y="137"/>
      <point x="432" y="131"/>
      <point x="438" y="131" type="curve" smooth="yes"/>
      <point x="442" y="131"/>
      <point x="446" y="133"/>
      <point x="449" y="136" type="curve" smooth="yes"/>
      <point x="460" y="144"/>
      <point x="468" y="140"/>
      <point x="479" y="144" type="curve"/>
      <point x="501" y="144"/>
      <point x="535" y="157"/>
      <point x="535" y="186" type="curve" smooth="yes"/>
      <point x="535" y="201"/>
      <point x="476" y="222"/>
      <point x="462" y="222" type="curve" smooth="yes"/>
      <point x="454" y="222"/>
      <point x="446" y="218"/>
      <point x="439" y="218" type="curve" smooth="yes"/>
      <point x="423" y="218"/>
      <point x="408" y="226"/>
      <point x="391" y="226" type="curve" smooth="yes"/>
      <point x="374" y="226"/>
      <point x="357" y="231"/>
      <point x="340" y="231" type="curve" smooth="yes"/>
      <point x="325" y="231"/>
      <point x="240" y="275"/>
      <point x="240" y="291" type="curve" smooth="yes"/>
      <point x="240" y="315"/>
      <point x="294" y="361"/>
      <point x="315" y="361" type="curve" smooth="yes"/>
      <point x="325" y="361"/>
      <point x="333" y="367"/>
      <point x="340" y="375" type="curve" smooth="yes"/>
      <point x="343" y="377"/>
      <point x="350" y="386"/>
      <point x="355" y="388" type="curve" smooth="yes"/>
      <point x="413" y="402"/>
      <point x="470" y="408"/>
      <point x="528" y="417" type="curve" smooth="yes"/>
      <point x="556" y="423"/>
      <point x="602" y="441"/>
      <point x="620" y="441" type="curve" smooth="yes"/>
      <point x="628" y="441"/>
      <point x="636" y="438"/>
      <point x="644" y="438" type="curve" smooth="yes"/>
      <point x="668" y="438"/>
      <point x="695" y="463"/>
      <point x="720" y="463" type="curve" smooth="yes"/>
      <point x="730" y="463"/>
      <point x="731" y="471"/>
      <point x="739" y="475" type="curve"/>
      <point x="749" y="472"/>
      <point x="759" y="464"/>
      <point x="770" y="464" type="curve" smooth="yes"/>
      <point x="786" y="464"/>
      <point x="857" y="474"/>
      <point x="868" y="483" type="curve" smooth="yes"/>
      <point x="872" y="485"/>
      <point x="876" y="486"/>
      <point x="880" y="486" type="curve" smooth="yes"/>
      <point x="890" y="486"/>
      <point x="899" y="484"/>
      <point x="909" y="483" type="curve"/>
      <point x="912" y="484"/>
      <point x="916" y="485"/>
      <point x="919" y="485" type="curve" smooth="yes"/>
      <point x="925" y="485"/>
      <point x="932" y="482"/>
      <point x="938" y="482" type="curve" smooth="yes"/>
      <point x="966" y="482"/>
      <point x="1016" y="499"/>
      <point x="1046" y="505" type="curve" smooth="yes"/>
      <point x="1066" y="508"/>
      <point x="1084" y="513"/>
      <point x="1104" y="513" type="curve" smooth="yes"/>
      <point x="1123" y="513"/>
      <point x="1141" y="522"/>
      <point x="1164" y="522" type="curve" smooth="yes"/>
      <point x="1189" y="522"/>
      <point x="1200" y="527"/>
      <point x="1200" y="556" type="curve" smooth="yes"/>
      <point x="1200" y="596"/>
      <point x="1128" y="583"/>
      <point x="1105" y="583" type="curve"/>
      <point x="1105" y="583" type="line"/>
      <point x="1073" y="583"/>
      <point x="1046" y="599"/>
      <point x="1016" y="599" type="curve" smooth="yes"/>
      <point x="1010" y="599"/>
      <point x="983" y="590"/>
      <point x="974" y="588" type="curve"/>
      <point x="955" y="592"/>
      <point x="938" y="604"/>
      <point x="917" y="604" type="curve" smooth="yes"/>
      <point x="902" y="604"/>
      <point x="886" y="602"/>
      <point x="871" y="600" type="curve" smooth="yes"/>
      <point x="862" y="600"/>
      <point x="853" y="594"/>
      <point x="844" y="594" type="curve" smooth="yes"/>
      <point x="841" y="594"/>
      <point x="838" y="596"/>
      <point x="836" y="598" type="curve" smooth="yes"/>
      <point x="811" y="624"/>
      <point x="794" y="630"/>
      <point x="760" y="630" type="curve" smooth="yes"/>
      <point x="744" y="630"/>
      <point x="749" y="651"/>
      <point x="703" y="651" type="curve" smooth="yes"/>
      <point x="681" y="651"/>
      <point x="662" y="666"/>
      <point x="640" y="666" type="curve" smooth="yes"/>
      <point x="631" y="666"/>
      <point x="621" y="659"/>
      <point x="612" y="659" type="curve" smooth="yes"/>
      <point x="607" y="659"/>
      <point x="602" y="663"/>
      <point x="598" y="667" type="curve" smooth="yes"/>
      <point x="586" y="679"/>
      <point x="555" y="674"/>
      <point x="540" y="674" type="curve" smooth="yes"/>
      <point x="536" y="674"/>
      <point x="531" y="674"/>
      <point x="527" y="675" type="curve"/>
      <point x="513" y="687"/>
      <point x="480" y="682"/>
      <point x="462" y="693" type="curve" smooth="yes"/>
      <point x="455" y="697"/>
      <point x="451" y="706"/>
      <point x="443" y="706" type="curve" smooth="yes"/>
      <point x="435" y="706"/>
      <point x="427" y="701"/>
      <point x="419" y="701" type="curve" smooth="yes"/>
      <point x="413" y="701"/>
      <point x="406" y="706"/>
      <point x="399" y="706" type="curve" smooth="yes"/>
      <point x="392" y="706"/>
      <point x="384" y="705"/>
      <point x="377" y="705" type="curve" smooth="yes"/>
      <point x="342" y="705"/>
      <point x="307" y="708"/>
      <point x="273" y="708" type="curve" smooth="yes"/>
      <point x="262" y="708"/>
      <point x="261" y="714"/>
      <point x="257" y="725" type="curve"/>
      <point x="260" y="730"/>
      <point x="276" y="733"/>
      <point x="281" y="734" type="curve" smooth="yes"/>
      <point x="336" y="746"/>
      <point x="382" y="767"/>
      <point x="433" y="791" type="curve" smooth="yes"/>
      <point x="446" y="797"/>
      <point x="460" y="820"/>
      <point x="477" y="817" type="curve" smooth="yes"/>
      <point x="482" y="816"/>
      <point x="486" y="816"/>
      <point x="491" y="816" type="curve" smooth="yes"/>
      <point x="504" y="816"/>
      <point x="517" y="829"/>
      <point x="528" y="829" type="curve" smooth="yes"/>
      <point x="536" y="829"/>
      <point x="549" y="829"/>
      <point x="557" y="832" type="curve" smooth="yes"/>
      <point x="563" y="833"/>
      <point x="568" y="839"/>
      <point x="568" y="848" type="curve" smooth="yes"/>
      <point x="568" y="878"/>
      <point x="547" y="884"/>
      <point x="525" y="887" type="curve" smooth="yes"/>
      <point x="503" y="888"/>
      <point x="487" y="903"/>
      <point x="466" y="906" type="curve" smooth="yes"/>
      <point x="457" y="907"/>
      <point x="447" y="903"/>
      <point x="438" y="903" type="curve" smooth="yes"/>
      <point x="429" y="903"/>
      <point x="385" y="912"/>
      <point x="376" y="915" type="curve" smooth="yes"/>
      <point x="370" y="918"/>
      <point x="332" y="939"/>
      <point x="326" y="938" type="curve" smooth="yes"/>
      <point x="322" y="937"/>
      <point x="319" y="934"/>
      <point x="315" y="934" type="curve" smooth="yes"/>
      <point x="301" y="934"/>
      <point x="287" y="939"/>
      <point x="273" y="940" type="curve"/>
      <point x="268" y="947" type="line"/>
      <point x="278" y="964"/>
      <point x="320" y="957"/>
      <point x="335" y="957" type="curve" smooth="yes"/>
      <point x="359" y="957"/>
      <point x="380" y="976"/>
      <point x="405" y="979" type="curve" smooth="yes"/>
      <point x="416" y="980"/>
      <point x="447" y="989"/>
      <point x="447" y="1005" type="curve" smooth="yes"/>
      <point x="447" y="1032"/>
      <point x="390" y="1041"/>
      <point x="372" y="1041" type="curve" smooth="yes"/>
      <point x="353" y="1041"/>
      <point x="341" y="1052"/>
      <point x="323" y="1052" type="curve" smooth="yes"/>
      <point x="241" y="1052"/>
      <point x="256" y="1069"/>
      <point x="235" y="1131" type="curve" smooth="yes"/>
      <point x="231" y="1144"/>
      <point x="215" y="1178"/>
      <point x="215" y="1188" type="curve" smooth="yes"/>
      <point x="215" y="1235"/>
      <point x="248" y="1263"/>
      <point x="279" y="1290" type="curve" smooth="yes"/>
      <point x="292" y="1304"/>
      <point x="315" y="1299"/>
      <point x="327" y="1312" type="curve" smooth="yes"/>
      <point x="330" y="1315"/>
      <point x="379" y="1329"/>
      <point x="388" y="1331" type="curve"/>
      <point x="395" y="1329"/>
      <point x="403" y="1326"/>
      <point x="410" y="1326" type="curve" smooth="yes"/>
      <point x="425" y="1326"/>
      <point x="428" y="1345"/>
      <point x="445" y="1345" type="curve" smooth="yes"/>
      <point x="458" y="1345"/>
      <point x="459" y="1335"/>
      <point x="475" y="1335" type="curve" smooth="yes"/>
      <point x="486" y="1335"/>
      <point x="528" y="1356"/>
      <point x="541" y="1364" type="curve" smooth="yes"/>
      <point x="575" y="1379"/>
      <point x="614" y="1378"/>
      <point x="648" y="1391" type="curve" smooth="yes"/>
      <point x="657" y="1395"/>
      <point x="663" y="1403"/>
      <point x="663" y="1413" type="curve" smooth="yes"/>
      <point x="663" y="1461"/>
      <point x="625" y="1453"/>
      <point x="597" y="1453" type="curve" smooth="yes"/>
      <point x="577" y="1453"/>
      <point x="565" y="1484"/>
      <point x="512" y="1484" type="curve" smooth="yes"/>
      <point x="504" y="1484"/>
      <point x="499" y="1479"/>
      <point x="492" y="1478" type="curve"/>
      <point x="485" y="1484"/>
      <point x="488" y="1489"/>
      <point x="477" y="1493" type="curve" smooth="yes"/>
      <point x="464" y="1496"/>
      <point x="442" y="1501"/>
      <point x="431" y="1509" type="curve" smooth="yes"/>
      <point x="428" y="1511"/>
      <point x="425" y="1514"/>
      <point x="421" y="1514" type="curve" smooth="yes"/>
      <point x="415" y="1514"/>
      <point x="410" y="1506"/>
      <point x="404" y="1504" type="curve"/>
      <point x="395" y="1511"/>
      <point x="357" y="1567"/>
      <point x="339" y="1551" type="curve"/>
      <point x="303" y="1551"/>
      <point x="245" y="1590"/>
      <point x="206" y="1590" type="curve" smooth="yes"/>
      <point x="194" y="1590"/>
      <point x="175" y="1601"/>
      <point x="175" y="1615" type="curve" smooth="yes"/>
      <point x="175" y="1654"/>
      <point x="235" y="1670"/>
      <point x="262" y="1670" type="curve" smooth="yes"/>
      <point x="281" y="1670"/>
      <point x="343" y="1683"/>
      <point x="362" y="1686" type="curve" smooth="yes"/>
      <point x="379" y="1690"/>
      <point x="402" y="1713"/>
      <point x="416" y="1713" type="curve"/>
      <point x="424" y="1710" type="line"/>
      <point x="435" y="1700"/>
      <point x="450" y="1696"/>
      <point x="465" y="1696" type="curve" smooth="yes"/>
      <point x="474" y="1696"/>
      <point x="486" y="1698"/>
      <point x="490" y="1708" type="curve"/>
      <point x="493" y="1709" type="line"/>
      <point x="498" y="1706"/>
      <point x="507" y="1697"/>
      <point x="513" y="1697" type="curve" smooth="yes"/>
      <point x="517" y="1697"/>
      <point x="521" y="1700"/>
      <point x="524" y="1702" type="curve" smooth="yes"/>
      <point x="539" y="1715"/>
      <point x="562" y="1718"/>
      <point x="581" y="1722" type="curve" smooth="yes"/>
      <point x="592" y="1725"/>
      <point x="599" y="1736"/>
      <point x="610" y="1739" type="curve"/>
      <point x="622" y="1735"/>
      <point x="641" y="1735"/>
      <point x="654" y="1735" type="curve" smooth="yes"/>
      <point x="708" y="1735"/>
      <point x="714" y="1755"/>
      <point x="767" y="1755" type="curve" smooth="yes"/>
      <point x="794" y="1755"/>
      <point x="830" y="1761"/>
      <point x="830" y="1797" type="curve" smooth="yes"/>
      <point x="830" y="1806"/>
      <point x="827" y="1830"/>
      <point x="816" y="1830" type="curve" smooth="yes"/>
      <point x="811" y="1830"/>
      <point x="805" y="1825"/>
      <point x="800" y="1825" type="curve" smooth="yes"/>
      <point x="793" y="1825"/>
      <point x="786" y="1831"/>
      <point x="781" y="1836" type="curve" smooth="yes"/>
      <point x="755" y="1858"/>
      <point x="736" y="1850"/>
      <point x="706" y="1855" type="curve"/>
      <point x="704" y="1854"/>
      <point x="701" y="1853"/>
      <point x="699" y="1852" type="curve"/>
      <point x="690" y="1852" type="line" smooth="yes"/>
      <point x="688" y="1852"/>
      <point x="679" y="1858"/>
      <point x="677" y="1859" type="curve" smooth="yes"/>
      <point x="622" y="1899"/>
      <point x="612" y="1876"/>
      <point x="560" y="1891" type="curve" smooth="yes"/>
      <point x="545" y="1894"/>
      <point x="546" y="1912"/>
      <point x="517" y="1912" type="curve" smooth="yes"/>
      <point x="506" y="1912"/>
      <point x="499" y="1907"/>
      <point x="490" y="1903" type="curve"/>
      <point x="477" y="1912"/>
      <point x="474" y="1934"/>
      <point x="461" y="1934" type="curve" smooth="yes"/>
      <point x="435" y="1934"/>
      <point x="419" y="1921"/>
      <point x="396" y="1913" type="curve"/>
      <point x="393" y="1914"/>
      <point x="390" y="1917"/>
      <point x="388" y="1919" type="curve" smooth="yes"/>
      <point x="372" y="1941"/>
      <point x="330" y="1951"/>
      <point x="306" y="1951" type="curve" smooth="yes"/>
      <point x="292" y="1951"/>
      <point x="283" y="1942"/>
      <point x="270" y="1941" type="curve"/>
      <point x="246" y="1946"/>
      <point x="136" y="1980"/>
      <point x="127" y="1999" type="curve"/>
      <point x="131" y="2002" type="line"/>
      <point x="147" y="2010"/>
      <point x="159" y="2004"/>
      <point x="175" y="2004" type="curve" smooth="yes"/>
      <point x="189" y="2004"/>
      <point x="256" y="2011"/>
      <point x="264" y="2017" type="curve" smooth="yes"/>
      <point x="276" y="2026"/>
      <point x="305" y="2035"/>
      <point x="320" y="2035" type="curve" smooth="yes"/>
      <point x="327" y="2035"/>
      <point x="334" y="2032"/>
      <point x="341" y="2032" type="curve" smooth="yes"/>
      <point x="355" y="2032"/>
      <point x="370" y="2040"/>
      <point x="373" y="2054" type="curve"/>
      <point x="390" y="2054"/>
      <point x="414" y="2054"/>
      <point x="414" y="2080" type="curve" smooth="yes"/>
      <point x="414" y="2108"/>
      <point x="391" y="2098"/>
      <point x="379" y="2104" type="curve"/>
      <point x="376" y="2107"/>
      <point x="297" y="2152"/>
      <point x="294" y="2152" type="curve" smooth="yes"/>
      <point x="288" y="2152"/>
      <point x="284" y="2146"/>
      <point x="279" y="2144" type="curve"/>
      <point x="263" y="2150"/>
      <point x="213" y="2168"/>
      <point x="199" y="2168" type="curve" smooth="yes"/>
      <point x="194" y="2168"/>
      <point x="143" y="2202"/>
      <point x="135" y="2208" type="curve" smooth="yes"/>
      <point x="113" y="2224"/>
      <point x="76" y="2217"/>
      <point x="50" y="2217" type="curve" smooth="yes"/>
      <point x="45" y="2217"/>
      <point x="41" y="2217"/>
      <point x="36" y="2218" type="curve"/>
      <point x="29" y="2223"/>
      <point x="18" y="2226"/>
      <point x="10" y="2226" type="curve"/>
      <point x="0" y="2226" type="line"/>
    </contour>
    <contour>
      <point x="0" y="-480" type="line"/>
      <point x="0" y="2226" type="line"/>
      <point x="-100" y="2226" type="line"/>
      <point x="-100" y="-480" type="line"/>
    </contour>
  </outline>
</glyph>
<glyph name="uniE0CA" format="2">
  <advance width="1200"/>
  <unicode hex="E0CA"/>
  <note>
uniE0CA
</note>
  <outline>
    <contour>
      <point x="1196" y="-479" type="line"/>
      <point x="1199" y="-473" type="line"/>
      <point x="1200" y="2219" type="line"/>
      <point x="1197" y="2225" type="line"/>
      <point x="1194" y="2226"/>
      <point x="1190" y="2226"/>
      <point x="1187" y="2226" type="curve" smooth="yes"/>
      <point x="1173" y="2226"/>
      <point x="1162" y="2218"/>
      <point x="1148" y="2218" type="curve" smooth="yes"/>
      <point x="1134" y="2218"/>
      <point x="1120" y="2219"/>
      <point x="1106" y="2219" type="curve" smooth="yes"/>
      <point x="1075" y="2219"/>
      <point x="1041" y="2198"/>
      <point x="1017" y="2176" type="curve" smooth="yes"/>
      <point x="1008" y="2168"/>
      <point x="938" y="2151"/>
      <point x="921" y="2144" type="curve"/>
      <point x="917" y="2148"/>
      <point x="911" y="2151"/>
      <point x="906" y="2151" type="curve" smooth="yes"/>
      <point x="897" y="2151"/>
      <point x="825" y="2108"/>
      <point x="821" y="2104" type="curve"/>
      <point x="807" y="2104"/>
      <point x="786" y="2103"/>
      <point x="786" y="2081" type="curve" smooth="yes"/>
      <point x="786" y="2053"/>
      <point x="811" y="2054"/>
      <point x="827" y="2054" type="curve"/>
      <point x="835" y="2040"/>
      <point x="842" y="2033"/>
      <point x="859" y="2033" type="curve" smooth="yes"/>
      <point x="866" y="2033"/>
      <point x="873" y="2036"/>
      <point x="880" y="2036" type="curve" smooth="yes"/>
      <point x="894" y="2036"/>
      <point x="924" y="2028"/>
      <point x="936" y="2018" type="curve" smooth="yes"/>
      <point x="955" y="2003"/>
      <point x="1023" y="2007"/>
      <point x="1049" y="2007" type="curve" smooth="yes"/>
      <point x="1058" y="2007"/>
      <point x="1066" y="2006"/>
      <point x="1073" y="2000" type="curve"/>
      <point x="1066" y="1986"/>
      <point x="950" y="1940"/>
      <point x="930" y="1940" type="curve" smooth="yes"/>
      <point x="920" y="1940"/>
      <point x="907" y="1952"/>
      <point x="894" y="1952" type="curve" smooth="yes"/>
      <point x="870" y="1952"/>
      <point x="828" y="1940"/>
      <point x="812" y="1920" type="curve" smooth="yes"/>
      <point x="810" y="1919"/>
      <point x="807" y="1915"/>
      <point x="804" y="1914" type="curve"/>
      <point x="781" y="1922"/>
      <point x="765" y="1934"/>
      <point x="739" y="1934" type="curve" smooth="yes"/>
      <point x="726" y="1934"/>
      <point x="721" y="1913"/>
      <point x="710" y="1903" type="curve"/>
      <point x="700" y="1909"/>
      <point x="691" y="1913"/>
      <point x="680" y="1913" type="curve" smooth="yes"/>
      <point x="656" y="1913"/>
      <point x="654" y="1897"/>
      <point x="640" y="1892" type="curve" smooth="yes"/>
      <point x="587" y="1875"/>
      <point x="582" y="1898"/>
      <point x="523" y="1859" type="curve" smooth="yes"/>
      <point x="516" y="1854"/>
      <point x="509" y="1852"/>
      <point x="501" y="1854" type="curve" smooth="yes"/>
      <point x="499" y="1854"/>
      <point x="496" y="1854"/>
      <point x="494" y="1855" type="curve"/>
      <point x="459" y="1848"/>
      <point x="452" y="1860"/>
      <point x="419" y="1835" type="curve" smooth="yes"/>
      <point x="414" y="1832"/>
      <point x="406" y="1826"/>
      <point x="400" y="1826" type="curve" smooth="yes"/>
      <point x="394" y="1826"/>
      <point x="389" y="1830"/>
      <point x="384" y="1830" type="curve" smooth="yes"/>
      <point x="374" y="1830"/>
      <point x="370" y="1808"/>
      <point x="370" y="1799" type="curve" smooth="yes"/>
      <point x="370" y="1752"/>
      <point x="426" y="1757"/>
      <point x="454" y="1757" type="curve" smooth="yes"/>
      <point x="478" y="1757"/>
      <point x="503" y="1736"/>
      <point x="546" y="1736" type="curve" smooth="yes"/>
      <point x="559" y="1736"/>
      <point x="578" y="1736"/>
      <point x="590" y="1741" type="curve"/>
      <point x="601" y="1736"/>
      <point x="608" y="1725"/>
      <point x="619" y="1722" type="curve" smooth="yes"/>
      <point x="634" y="1719"/>
      <point x="664" y="1714"/>
      <point x="676" y="1703" type="curve" smooth="yes"/>
      <point x="679" y="1700"/>
      <point x="683" y="1697"/>
      <point x="687" y="1697" type="curve" smooth="yes"/>
      <point x="691" y="1697"/>
      <point x="702" y="1708"/>
      <point x="707" y="1710" type="curve"/>
      <point x="718" y="1698"/>
      <point x="718" y="1696"/>
      <point x="735" y="1696" type="curve" smooth="yes"/>
      <point x="750" y="1696"/>
      <point x="765" y="1699"/>
      <point x="776" y="1711" type="curve"/>
      <point x="778" y="1713"/>
      <point x="782" y="1714"/>
      <point x="784" y="1714" type="curve" smooth="yes"/>
      <point x="803" y="1714"/>
      <point x="819" y="1692"/>
      <point x="837" y="1686" type="curve" smooth="yes"/>
      <point x="853" y="1682"/>
      <point x="907" y="1680"/>
      <point x="918" y="1673" type="curve" smooth="yes"/>
      <point x="941" y="1657"/>
      <point x="1025" y="1671"/>
      <point x="1025" y="1617" type="curve" smooth="yes"/>
      <point x="1025" y="1600"/>
      <point x="1006" y="1590"/>
      <point x="994" y="1590" type="curve" smooth="yes"/>
      <point x="955" y="1590"/>
      <point x="896" y="1553"/>
      <point x="861" y="1553" type="curve"/>
      <point x="860" y="1554"/>
      <point x="858" y="1554"/>
      <point x="857" y="1554" type="curve" smooth="yes"/>
      <point x="827" y="1554"/>
      <point x="796" y="1505"/>
      <point x="796" y="1505" type="curve"/>
      <point x="790" y="1508"/>
      <point x="786" y="1513"/>
      <point x="779" y="1513" type="curve" smooth="yes"/>
      <point x="778" y="1513"/>
      <point x="732" y="1496"/>
      <point x="724" y="1493" type="curve" smooth="yes"/>
      <point x="714" y="1490"/>
      <point x="715" y="1486"/>
      <point x="708" y="1479" type="curve"/>
      <point x="702" y="1481"/>
      <point x="695" y="1483"/>
      <point x="689" y="1483" type="curve" smooth="yes"/>
      <point x="644" y="1483"/>
      <point x="621" y="1454"/>
      <point x="604" y="1454" type="curve" smooth="yes"/>
      <point x="596" y="1454"/>
      <point x="589" y="1454"/>
      <point x="581" y="1454" type="curve" smooth="yes"/>
      <point x="558" y="1454"/>
      <point x="537" y="1445"/>
      <point x="537" y="1413" type="curve" smooth="yes"/>
      <point x="537" y="1382"/>
      <point x="635" y="1377"/>
      <point x="659" y="1363" type="curve"/>
      <point x="678" y="1362"/>
      <point x="704" y="1334"/>
      <point x="725" y="1334" type="curve" smooth="yes"/>
      <point x="741" y="1334"/>
      <point x="741" y="1345"/>
      <point x="756" y="1345" type="curve" smooth="yes"/>
      <point x="772" y="1345"/>
      <point x="775" y="1326"/>
      <point x="790" y="1326" type="curve" smooth="yes"/>
      <point x="797" y="1326"/>
      <point x="805" y="1329"/>
      <point x="812" y="1331" type="curve"/>
      <point x="873" y="1317"/>
      <point x="985" y="1283"/>
      <point x="985" y="1188" type="curve" smooth="yes"/>
      <point x="985" y="1180"/>
      <point x="969" y="1144"/>
      <point x="965" y="1133" type="curve" smooth="yes"/>
      <point x="940" y="1059"/>
      <point x="950" y="1053"/>
      <point x="877" y="1053" type="curve" smooth="yes"/>
      <point x="860" y="1053"/>
      <point x="846" y="1043"/>
      <point x="828" y="1043" type="curve" smooth="yes"/>
      <point x="812" y="1043"/>
      <point x="753" y="1032"/>
      <point x="753" y="1005" type="curve" smooth="yes"/>
      <point x="753" y="983"/>
      <point x="824" y="973"/>
      <point x="840" y="963" type="curve" smooth="yes"/>
      <point x="860" y="949"/>
      <point x="909" y="970"/>
      <point x="932" y="948" type="curve"/>
      <point x="930" y="945"/>
      <point x="928" y="942"/>
      <point x="926" y="940" type="curve"/>
      <point x="908" y="937"/>
      <point x="892" y="937"/>
      <point x="874" y="937" type="curve" smooth="yes"/>
      <point x="864" y="937"/>
      <point x="833" y="919"/>
      <point x="824" y="915" type="curve" smooth="yes"/>
      <point x="797" y="901"/>
      <point x="762" y="906"/>
      <point x="734" y="906" type="curve" smooth="yes"/>
      <point x="715" y="906"/>
      <point x="696" y="890"/>
      <point x="675" y="885" type="curve" smooth="yes"/>
      <point x="654" y="883"/>
      <point x="632" y="880"/>
      <point x="632" y="848" type="curve" smooth="yes"/>
      <point x="632" y="826"/>
      <point x="661" y="831"/>
      <point x="672" y="829" type="curve" smooth="yes"/>
      <point x="697" y="825"/>
      <point x="686" y="818"/>
      <point x="723" y="818" type="curve" smooth="yes"/>
      <point x="741" y="818"/>
      <point x="753" y="801"/>
      <point x="767" y="791" type="curve" smooth="yes"/>
      <point x="800" y="771"/>
      <point x="881" y="742"/>
      <point x="919" y="734" type="curve" smooth="yes"/>
      <point x="924" y="733"/>
      <point x="940" y="730"/>
      <point x="943" y="723" type="curve"/>
      <point x="933" y="700"/>
      <point x="928" y="711"/>
      <point x="909" y="711" type="curve" smooth="yes"/>
      <point x="889" y="711"/>
      <point x="811" y="697"/>
      <point x="801" y="707" type="curve"/>
      <point x="795" y="706"/>
      <point x="787" y="700"/>
      <point x="781" y="700" type="curve" smooth="yes"/>
      <point x="773" y="700"/>
      <point x="765" y="707"/>
      <point x="757" y="707" type="curve" smooth="yes"/>
      <point x="747" y="707"/>
      <point x="745" y="696"/>
      <point x="738" y="692" type="curve" smooth="yes"/>
      <point x="717" y="682"/>
      <point x="693" y="690"/>
      <point x="673" y="676" type="curve" smooth="yes"/>
      <point x="669" y="674"/>
      <point x="664" y="672"/>
      <point x="660" y="672" type="curve" smooth="yes"/>
      <point x="649" y="672"/>
      <point x="638" y="674"/>
      <point x="627" y="674" type="curve" smooth="yes"/>
      <point x="599" y="674"/>
      <point x="603" y="659"/>
      <point x="588" y="659" type="curve" smooth="yes"/>
      <point x="577" y="659"/>
      <point x="567" y="665"/>
      <point x="556" y="665" type="curve" smooth="yes"/>
      <point x="535" y="665"/>
      <point x="515" y="654"/>
      <point x="492" y="654" type="curve" smooth="yes"/>
      <point x="457" y="654"/>
      <point x="460" y="631"/>
      <point x="427" y="631" type="curve" smooth="yes"/>
      <point x="388" y="631"/>
      <point x="366" y="594"/>
      <point x="356" y="594" type="curve" smooth="yes"/>
      <point x="347" y="594"/>
      <point x="338" y="602"/>
      <point x="329" y="602" type="curve" smooth="yes"/>
      <point x="314" y="604"/>
      <point x="298" y="605"/>
      <point x="283" y="605" type="curve" smooth="yes"/>
      <point x="262" y="605"/>
      <point x="245" y="592"/>
      <point x="226" y="589" type="curve"/>
      <point x="211" y="591"/>
      <point x="195" y="600"/>
      <point x="180" y="600" type="curve" smooth="yes"/>
      <point x="161" y="600"/>
      <point x="141" y="590"/>
      <point x="123" y="585" type="curve" smooth="yes"/>
      <point x="100" y="579"/>
      <point x="0" y="602"/>
      <point x="0" y="556" type="curve" smooth="yes"/>
      <point x="0" y="513"/>
      <point x="31" y="523"/>
      <point x="57" y="523" type="curve" smooth="yes"/>
      <point x="70" y="523"/>
      <point x="83" y="512"/>
      <point x="96" y="512" type="curve" smooth="yes"/>
      <point x="146" y="512"/>
      <point x="197" y="494"/>
      <point x="246" y="484" type="curve" smooth="yes"/>
      <point x="251" y="483"/>
      <point x="257" y="482"/>
      <point x="262" y="482" type="curve" smooth="yes"/>
      <point x="272" y="482"/>
      <point x="281" y="483"/>
      <point x="291" y="483" type="curve" smooth="yes"/>
      <point x="301" y="483"/>
      <point x="310" y="486"/>
      <point x="320" y="486" type="curve" smooth="yes"/>
      <point x="324" y="486"/>
      <point x="328" y="485"/>
      <point x="332" y="483" type="curve" smooth="yes"/>
      <point x="343" y="475"/>
      <point x="414" y="464"/>
      <point x="430" y="464" type="curve" smooth="yes"/>
      <point x="441" y="464"/>
      <point x="451" y="473"/>
      <point x="461" y="475" type="curve"/>
      <point x="468" y="472"/>
      <point x="471" y="462"/>
      <point x="480" y="462" type="curve" smooth="yes"/>
      <point x="506" y="462"/>
      <point x="531" y="439"/>
      <point x="556" y="439" type="curve" smooth="yes"/>
      <point x="565" y="439"/>
      <point x="575" y="442"/>
      <point x="585" y="442" type="curve" smooth="yes"/>
      <point x="595" y="442"/>
      <point x="621" y="432"/>
      <point x="630" y="427" type="curve" smooth="yes"/>
      <point x="652" y="418"/>
      <point x="801" y="399"/>
      <point x="846" y="388" type="curve"/>
      <point x="851" y="384"/>
      <point x="856" y="379"/>
      <point x="860" y="375" type="curve" smooth="yes"/>
      <point x="867" y="367"/>
      <point x="876" y="361"/>
      <point x="886" y="361" type="curve" smooth="yes"/>
      <point x="906" y="361"/>
      <point x="960" y="314"/>
      <point x="960" y="292" type="curve" smooth="yes"/>
      <point x="960" y="275"/>
      <point x="874" y="231"/>
      <point x="860" y="231" type="curve" smooth="yes"/>
      <point x="840" y="231"/>
      <point x="820" y="227"/>
      <point x="800" y="227" type="curve" smooth="yes"/>
      <point x="786" y="227"/>
      <point x="774" y="219"/>
      <point x="760" y="219" type="curve" smooth="yes"/>
      <point x="753" y="219"/>
      <point x="746" y="222"/>
      <point x="738" y="222" type="curve" smooth="yes"/>
      <point x="724" y="222"/>
      <point x="665" y="203"/>
      <point x="665" y="187" type="curve" smooth="yes"/>
      <point x="665" y="152"/>
      <point x="700" y="149"/>
      <point x="721" y="146" type="curve" smooth="yes"/>
      <point x="734" y="144"/>
      <point x="751" y="130"/>
      <point x="762" y="130" type="curve" smooth="yes"/>
      <point x="769" y="130"/>
      <point x="779" y="137"/>
      <point x="786" y="143" type="curve"/>
      <point x="786" y="144" type="line"/>
      <point x="806" y="136"/>
      <point x="851" y="119"/>
      <point x="866" y="103" type="curve" smooth="yes"/>
      <point x="874" y="95"/>
      <point x="883" y="91"/>
      <point x="893" y="87" type="curve" smooth="yes"/>
      <point x="920" y="82"/>
      <point x="948" y="83"/>
      <point x="975" y="76" type="curve"/>
      <point x="977" y="72"/>
      <point x="977" y="65"/>
      <point x="979" y="62" type="curve"/>
      <point x="979" y="60"/>
      <point x="960" y="50"/>
      <point x="957" y="48" type="curve" smooth="yes"/>
      <point x="946" y="41"/>
      <point x="899" y="44"/>
      <point x="884" y="44" type="curve" smooth="yes"/>
      <point x="865" y="44"/>
      <point x="854" y="30"/>
      <point x="837" y="25" type="curve" smooth="yes"/>
      <point x="820" y="16"/>
      <point x="786" y="26"/>
      <point x="773" y="9" type="curve" smooth="yes"/>
      <point x="771" y="7"/>
      <point x="769" y="3"/>
      <point x="766" y="1" type="curve"/>
      <point x="761" y="6"/>
      <point x="756" y="8"/>
      <point x="750" y="8" type="curve" smooth="yes"/>
      <point x="720" y="8"/>
      <point x="713" y="-10"/>
      <point x="702" y="-10" type="curve" smooth="yes"/>
      <point x="692" y="-10"/>
      <point x="682" y="-5"/>
      <point x="673" y="-5" type="curve" smooth="yes"/>
      <point x="658" y="-5"/>
      <point x="646" y="-24"/>
      <point x="632" y="-27" type="curve"/>
      <point x="631" y="-27"/>
      <point x="620" y="-25"/>
      <point x="617" y="-25" type="curve" smooth="yes"/>
      <point x="596" y="-25"/>
      <point x="561" y="-34"/>
      <point x="561" y="-62" type="curve" smooth="yes"/>
      <point x="561" y="-75"/>
      <point x="567" y="-83"/>
      <point x="577" y="-86" type="curve" smooth="yes"/>
      <point x="612" y="-93"/>
      <point x="651" y="-100"/>
      <point x="686" y="-100" type="curve" smooth="yes"/>
      <point x="701" y="-100"/>
      <point x="830" y="-112"/>
      <point x="837" y="-123" type="curve"/>
      <point x="837" y="-136"/>
      <point x="829" y="-146"/>
      <point x="829" y="-160" type="curve" smooth="yes"/>
      <point x="829" y="-174"/>
      <point x="847" y="-176"/>
      <point x="854" y="-176" type="curve" smooth="yes"/>
      <point x="861" y="-176"/>
      <point x="869" y="-175"/>
      <point x="876" y="-173" type="curve"/>
      <point x="885" y="-176"/>
      <point x="891" y="-186"/>
      <point x="899" y="-190" type="curve" smooth="yes"/>
      <point x="914" y="-200"/>
      <point x="937" y="-203"/>
      <point x="953" y="-206" type="curve" smooth="yes"/>
      <point x="970" y="-210"/>
      <point x="975" y="-223"/>
      <point x="996" y="-223" type="curve" smooth="yes"/>
      <point x="1008" y="-223"/>
      <point x="1056" y="-232"/>
      <point x="1056" y="-251" type="curve" smooth="yes"/>
      <point x="1056" y="-264"/>
      <point x="1034" y="-266"/>
      <point x="1025" y="-266" type="curve" smooth="yes"/>
      <point x="1003" y="-266"/>
      <point x="1009" y="-279"/>
      <point x="993" y="-284" type="curve" smooth="yes"/>
      <point x="961" y="-295"/>
      <point x="936" y="-308"/>
      <point x="912" y="-338" type="curve"/>
      <point x="892" y="-344"/>
      <point x="850" y="-325"/>
      <point x="850" y="-363" type="curve" smooth="yes"/>
      <point x="850" y="-372"/>
      <point x="853" y="-384"/>
      <point x="863" y="-385" type="curve" smooth="yes"/>
      <point x="894" y="-392"/>
      <point x="924" y="-401"/>
      <point x="954" y="-401" type="curve" smooth="yes"/>
      <point x="972" y="-401"/>
      <point x="987" y="-417"/>
      <point x="1002" y="-429" type="curve" smooth="yes"/>
      <point x="1024" y="-444"/>
      <point x="1047" y="-434"/>
      <point x="1070" y="-441" type="curve" smooth="yes"/>
      <point x="1080" y="-445"/>
      <point x="1089" y="-451"/>
      <point x="1098" y="-456" type="curve" smooth="yes"/>
      <point x="1137" y="-480"/>
      <point x="1151" y="-479"/>
      <point x="1196" y="-479" type="curve"/>
    </contour>
  </outline>
</glyph>
<glyph name="uniE0CC" format="2">
  <advance width="1200"/>
  <unicode hex="E0CC"/>
  <note>
uniE0CC
</note>
  <outline>
    <contour>
      <point x="704" y="305" type="line"/>
      <point x="1035" y="305" type="line"/>
      <point x="1200" y="854" type="line"/>
      <point x="1035" y="1403" type="line"/>
      <point x="704" y="1403" type="line"/>
      <point x="539" y="854" type="line"/>
    </contour>
    <contour>
      <point x="0" y="-480" type="line"/>
      <point x="331" y="-480" type="line"/>
      <point x="496" y="68" type="line"/>
      <point x="331" y="617" type="line"/>
      <point x="0" y="617" type="line"/>
    </contour>
    <contour>
      <point x="0" y="1129" type="line"/>
      <point x="331" y="1129" type="line"/>
      <point x="496" y="1678" type="line"/>
      <point x="331" y="2226" type="line"/>
      <point x="0" y="2226" type="line"/>
    </contour>
  </outline>
</glyph>
<glyph name="uniE0CD" format="2">
  <advance width="1200"/>
  <unicode hex="E0CD"/>
  <note>
uniE0CD
</note>
  <outline>
    <contour>
      <point x="692" y="290" type="line"/>
      <point x="1031" y="290" type="line"/>
      <point x="1200" y="854" type="line"/>
      <point x="1031" y="1419" type="line"/>
      <point x="692" y="1419" type="line"/>
      <point x="523" y="854" type="line"/>
    </contour>
    <contour>
      <point x="0" y="-480" type="line"/>
      <point x="345" y="-480" type="line"/>
      <point x="514" y="85" type="line"/>
      <point x="345" y="650" type="line"/>
      <point x="0" y="650" type="line"/>
    </contour>
    <contour>
      <point x="28" y="-425" type="line"/>
      <point x="28" y="596" type="line"/>
      <point x="328" y="596" type="line"/>
      <point x="481" y="85" type="line"/>
      <point x="328" y="-425" type="line"/>
    </contour>
    <contour>
      <point x="708" y="343" type="line"/>
      <point x="555" y="854" type="line"/>
      <point x="708" y="1364" type="line"/>
      <point x="1014" y="1364" type="line"/>
      <point x="1167" y="854" type="line"/>
      <point x="1014" y="343" type="line"/>
    </contour>
    <contour>
      <point x="0" y="1096" type="line"/>
      <point x="345" y="1096" type="line"/>
      <point x="514" y="1661" type="line"/>
      <point x="345" y="2226" type="line"/>
      <point x="0" y="2226" type="line"/>
    </contour>
    <contour>
      <point x="28" y="1150" type="line"/>
      <point x="28" y="2171" type="line"/>
      <point x="328" y="2171" type="line"/>
      <point x="481" y="1661" type="line"/>
      <point x="328" y="1150" type="line"/>
    </contour>
  </outline>
</glyph>
<glyph name="uniE0CE" format="2">
  <advance width="1200"/>
  <unicode hex="E0CE"/>
  <note>
uniE0CE
</note>
  <outline>
    <contour>
      <point x="878" y="-452" type="line"/>
      <point x="950" y="-149" type="line"/>
      <point x="891" y="-146" type="line"/>
      <point x="856" y="-76"/>
      <point x="836" y="71"/>
      <point x="836" y="218" type="curve" smooth="yes"/>
      <point x="836" y="353"/>
      <point x="855" y="501"/>
      <point x="892" y="584" type="curve"/>
      <point x="971" y="579" type="line"/>
      <point x="936" y="490"/>
      <point x="919" y="342"/>
      <point x="919" y="209" type="curve" smooth="yes"/>
      <point x="919" y="58"/>
      <point x="939" y="-93"/>
      <point x="971" y="-149" type="curve"/>
      <point x="976" y="-155"/>
      <point x="981" y="-158"/>
      <point x="986" y="-158" type="curve"/>
      <point x="987" y="-157" type="line"/>
      <point x="1011" y="-156"/>
      <point x="1034" y="-85"/>
      <point x="1046" y="27" type="curve" smooth="yes"/>
      <point x="1052" y="84"/>
      <point x="1055" y="145"/>
      <point x="1055" y="212" type="curve" smooth="yes"/>
      <point x="1055" y="234"/>
      <point x="1054" y="259"/>
      <point x="1053" y="286" type="curve"/>
      <point x="1108" y="515" type="line"/>
      <point x="1036" y="519" type="line"/>
      <point x="1002" y="589"/>
      <point x="981" y="737"/>
      <point x="981" y="883" type="curve" smooth="yes"/>
      <point x="981" y="1019"/>
      <point x="1000" y="1166"/>
      <point x="1037" y="1249" type="curve"/>
      <point x="1106" y="1244" type="line"/>
      <point x="1052" y="1464" type="line"/>
      <point x="1053" y="1488"/>
      <point x="1053" y="1509"/>
      <point x="1053" y="1524" type="curve" smooth="yes"/>
      <point x="1053" y="1625"/>
      <point x="1046" y="1721"/>
      <point x="1033" y="1787" type="curve" smooth="yes"/>
      <point x="1020" y="1853"/>
      <point x="1003" y="1895"/>
      <point x="985" y="1895" type="curve" smooth="yes"/>
      <point x="976" y="1895"/>
      <point x="967" y="1886"/>
      <point x="958" y="1867" type="curve"/>
      <point x="929" y="1777"/>
      <point x="916" y="1642"/>
      <point x="916" y="1517" type="curve" smooth="yes"/>
      <point x="916" y="1502"/>
      <point x="916" y="1486"/>
      <point x="916" y="1471" type="curve" smooth="yes"/>
      <point x="920" y="1336"/>
      <point x="940" y="1208"/>
      <point x="969" y="1164" type="curve"/>
      <point x="888" y="1167" type="line"/>
      <point x="866" y="1212"/>
      <point x="849" y="1288"/>
      <point x="840" y="1376" type="curve" smooth="yes"/>
      <point x="836" y="1423"/>
      <point x="833" y="1477"/>
      <point x="833" y="1531" type="curve" smooth="yes"/>
      <point x="833" y="1622"/>
      <point x="840" y="1709"/>
      <point x="856" y="1789" type="curve" smooth="yes"/>
      <point x="865" y="1831"/>
      <point x="876" y="1868"/>
      <point x="888" y="1897" type="curve"/>
      <point x="946" y="1894" type="line"/>
      <point x="876" y="2177" type="line"/>
      <point x="558" y="863" type="line"/>
    </contour>
    <contour>
      <point x="291" y="-480" type="line"/>
      <point x="786" y="-480" type="line"/>
      <point x="465" y="751" type="line"/>
      <point x="0" y="751" type="line"/>
    </contour>
    <contour>
      <point x="811" y="499" type="curve"/>
      <point x="730" y="503" type="line"/>
      <point x="695" y="573"/>
      <point x="675" y="723"/>
      <point x="675" y="870" type="curve" smooth="yes"/>
      <point x="675" y="1004"/>
      <point x="694" y="1148"/>
      <point x="731" y="1233" type="curve"/>
      <point x="810" y="1228" type="line"/>
      <point x="775" y="1138"/>
      <point x="758" y="990"/>
      <point x="758" y="856" type="curve" smooth="yes"/>
      <point x="758" y="846"/>
      <point x="758" y="833"/>
      <point x="758" y="823" type="curve" smooth="yes"/>
      <point x="762" y="682"/>
      <point x="782" y="547"/>
    </contour>
    <contour>
      <point x="4" y="995" type="line"/>
      <point x="469" y="995" type="line"/>
      <point x="776" y="2226" type="line"/>
      <point x="295" y="2226" type="line"/>
    </contour>
    <contour>
      <point x="1131" y="503" type="curve"/>
      <point x="1132" y="505" type="line"/>
      <point x="1157" y="506"/>
      <point x="1179" y="576"/>
      <point x="1191" y="689" type="curve" smooth="yes"/>
      <point x="1197" y="746"/>
      <point x="1200" y="807"/>
      <point x="1200" y="874" type="curve" smooth="yes"/>
      <point x="1200" y="1007"/>
      <point x="1187" y="1129"/>
      <point x="1166" y="1195" type="curve" smooth="yes"/>
      <point x="1155" y="1228"/>
      <point x="1144" y="1244"/>
      <point x="1131" y="1244" type="curve" smooth="yes"/>
      <point x="1124" y="1244"/>
      <point x="1117" y="1238"/>
      <point x="1110" y="1228" type="curve"/>
      <point x="1080" y="1138"/>
      <point x="1064" y="998"/>
      <point x="1064" y="871" type="curve" smooth="yes"/>
      <point x="1064" y="856"/>
      <point x="1064" y="842"/>
      <point x="1065" y="829" type="curve" smooth="yes"/>
      <point x="1068" y="691"/>
      <point x="1089" y="563"/>
      <point x="1117" y="514" type="curve"/>
      <point x="1114" y="514" type="line"/>
      <point x="1120" y="507"/>
      <point x="1125" y="503"/>
    </contour>
  </outline>
</glyph>
<glyph name="uniE0CF" format="2">
  <advance width="1200"/>
  <unicode hex="E0CF"/>
  <note>
uniE0CF
</note>
  <outline>
    <contour>
      <point x="605" y="777" type="line"/>
      <point x="1188" y="1499" type="line"/>
      <point x="1053" y="1661" type="line"/>
      <point x="1052" y="1528" type="line"/>
      <point x="1021" y="1451"/>
      <point x="955" y="1405"/>
      <point x="890" y="1405" type="curve" smooth="yes"/>
      <point x="830" y="1405"/>
      <point x="766" y="1449"/>
      <point x="728" y="1531" type="curve"/>
      <point x="731" y="1709" type="line"/>
      <point x="770" y="1630"/>
      <point x="836" y="1592"/>
      <point x="895" y="1592" type="curve" smooth="yes"/>
      <point x="962" y="1592"/>
      <point x="1029" y="1637"/>
      <point x="1053" y="1710" type="curve" smooth="yes"/>
      <point x="1056" y="1721"/>
      <point x="1058" y="1732"/>
      <point x="1058" y="1743" type="curve"/>
      <point x="1057" y="1745" type="line"/>
      <point x="1057" y="1830"/>
      <point x="984" y="1898"/>
      <point x="893" y="1898" type="curve" smooth="yes"/>
      <point x="883" y="1898"/>
      <point x="873" y="1897"/>
      <point x="860" y="1895" type="curve"/>
      <point x="759" y="2018" type="line"/>
      <point x="757" y="1856" type="line"/>
      <point x="726" y="1779"/>
      <point x="660" y="1733"/>
      <point x="595" y="1733" type="curve" smooth="yes"/>
      <point x="535" y="1733"/>
      <point x="471" y="1776"/>
      <point x="433" y="1858" type="curve"/>
      <point x="435" y="2015" type="line"/>
      <point x="338" y="1892" type="line"/>
      <point x="327" y="1894"/>
      <point x="318" y="1895"/>
      <point x="311" y="1895" type="curve" smooth="yes"/>
      <point x="220" y="1895"/>
      <point x="147" y="1826"/>
      <point x="147" y="1739" type="curve" smooth="yes"/>
      <point x="147" y="1720"/>
      <point x="151" y="1701"/>
      <point x="159" y="1682" type="curve"/>
      <point x="199" y="1617"/>
      <point x="259" y="1584"/>
      <point x="314" y="1584" type="curve" smooth="yes"/>
      <point x="322" y="1584"/>
      <point x="328" y="1585"/>
      <point x="335" y="1586" type="curve" smooth="yes"/>
      <point x="395" y="1595"/>
      <point x="451" y="1639"/>
      <point x="471" y="1704" type="curve"/>
      <point x="469" y="1521" type="line"/>
      <point x="439" y="1444"/>
      <point x="373" y="1397"/>
      <point x="308" y="1397" type="curve" smooth="yes"/>
      <point x="248" y="1397"/>
      <point x="183" y="1441"/>
      <point x="146" y="1524" type="curve"/>
      <point x="147" y="1652" type="line"/>
      <point x="21" y="1495" type="line"/>
      <point x="21" y="1495" type="line"/>
    </contour>
    <contour>
      <point x="546" y="-470" type="line"/>
      <point x="546" y="578" type="line"/>
      <point x="3" y="1268" type="line"/>
      <point x="0" y="185" type="line"/>
      <point x="0" y="185" type="line"/>
    </contour>
    <contour>
      <point x="654" y="-480" type="line"/>
      <point x="1200" y="176" type="line"/>
      <point x="1200" y="1292" type="line"/>
      <point x="654" y="568" type="line"/>
      <point x="654" y="568" type="line"/>
    </contour>
    <contour>
      <point x="603" y="1043" type="line"/>
      <point x="543" y="1043"/>
      <point x="478" y="1085"/>
      <point x="441" y="1168" type="curve"/>
      <point x="443" y="1346" type="line"/>
      <point x="483" y="1267"/>
      <point x="549" y="1229"/>
      <point x="609" y="1229" type="curve" smooth="yes"/>
      <point x="613" y="1229"/>
      <point x="618" y="1230"/>
      <point x="622" y="1230" type="curve" smooth="yes"/>
      <point x="686" y="1237"/>
      <point x="745" y="1283"/>
      <point x="766" y="1349" type="curve"/>
      <point x="764" y="1166" type="line"/>
      <point x="734" y="1089"/>
      <point x="667" y="1043"/>
      <point x="603" y="1043" type="curve"/>
    </contour>
    <contour>
      <point x="601" y="1920" type="line"/>
      <point x="607" y="1920"/>
      <point x="614" y="1920"/>
      <point x="620" y="1921" type="curve" smooth="yes"/>
      <point x="681" y="1930"/>
      <point x="738" y="1974"/>
      <point x="759" y="2039" type="curve"/>
      <point x="759" y="2032" type="line"/>
      <point x="763" y="2044"/>
      <point x="764" y="2058"/>
      <point x="764" y="2071" type="curve" smooth="yes"/>
      <point x="764" y="2072" type="line" smooth="yes"/>
      <point x="763" y="2157"/>
      <point x="690" y="2226"/>
      <point x="599" y="2226" type="curve" smooth="yes"/>
      <point x="509" y="2226"/>
      <point x="435" y="2156"/>
      <point x="435" y="2071" type="curve" smooth="yes"/>
      <point x="435" y="2054"/>
      <point x="438" y="2039"/>
      <point x="443" y="2025" type="curve"/>
      <point x="443" y="2023" type="line"/>
      <point x="482" y="1955"/>
      <point x="544" y="1920"/>
      <point x="601" y="1920" type="curve"/>
    </contour>
  </outline>
</glyph>
<glyph name="uniE0D1" format="2">
  <advance width="1200"/>
  <unicode hex="E0D1"/>
  <note>
uniE0D1
</note>
  <outline>
    <contour>
      <point x="0" y="-480" type="line"/>
      <point x="913" y="-480" type="line"/>
      <point x="913" y="-88" type="line"/>
      <point x="1165" y="-88" type="line" smooth="yes"/>
      <point x="1180" y="-88"/>
      <point x="1197" y="-64"/>
      <point x="1197" y="-32" type="curve" smooth="yes"/>
      <point x="1197" y="646" type="line" smooth="yes"/>
      <point x="1197" y="671"/>
      <point x="1183" y="699"/>
      <point x="1165" y="699" type="curve" smooth="yes"/>
      <point x="913" y="699" type="line"/>
      <point x="913" y="1137" type="line"/>
      <point x="1167" y="1137" type="line" smooth="yes"/>
      <point x="1183" y="1137"/>
      <point x="1200" y="1162"/>
      <point x="1200" y="1192" type="curve" smooth="yes"/>
      <point x="1200" y="1876" type="line" smooth="yes"/>
      <point x="1200" y="1903"/>
      <point x="1185" y="1932"/>
      <point x="1167" y="1932" type="curve" smooth="yes"/>
      <point x="913" y="1932" type="line"/>
      <point x="913" y="2226" type="line"/>
      <point x="0" y="2226" type="line"/>
    </contour>
    <contour>
      <point x="917" y="447" type="line"/>
      <point x="917" y="590" type="line"/>
      <point x="1151" y="590" type="line"/>
      <point x="1151" y="447" type="line"/>
    </contour>
    <contour>
      <point x="917" y="1692" type="line"/>
      <point x="917" y="1836" type="line"/>
      <point x="1151" y="1836" type="line"/>
      <point x="1151" y="1692" type="line"/>
    </contour>
    <contour>
      <point x="0" y="-480" type="line"/>
      <point x="0" y="2226" type="line"/>
      <point x="-100" y="2226" type="line"/>
      <point x="-100" y="-480" type="line"/>
    </contour>
  </outline>
</glyph>
<glyph name="uniE0D2" format="2">
  <advance width="1200"/>
  <unicode hex="E0D2"/>
  <note>
uniE0D2
</note>
  <outline>
    <contour>
      <point x="-100" y="-480" type="line"/>
      <point x="1200" y="-480" type="line"/>
      <point x="371" y="753" type="line"/>
      <point x="-100" y="753" type="line"/>
    </contour>
    <contour>
      <point x="-100" y="993" type="line"/>
      <point x="381" y="993" type="line"/>
      <point x="1172" y="2226" type="line"/>
      <point x="-100" y="2226" type="line"/>
    </contour>
  </outline>
</glyph>
<glyph name="uniE0D4" format="2">
  <advance width="1200"/>
  <unicode hex="E0D4"/>
  <note>
uniE0D4
</note>
  <outline>
    <contour>
      <point x="0" y="-480" type="line"/>
      <point x="1200" y="-480" type="line"/>
      <point x="1200" y="753" type="line"/>
      <point x="829" y="753" type="line"/>
    </contour>
    <contour>
      <point x="819" y="993" type="line"/>
      <point x="1200" y="993" type="line"/>
      <point x="1200" y="2226" type="line"/>
      <point x="28" y="2226" type="line"/>
    </contour>
  </outline>
</glyph>
<glyph name="uniE0A0.stypo" format="2">
  <advance width="1200"/>
  <note>
uniE0A0
</note>
  <outline>
    <contour>
      <point x="168" y="-480" type="line"/>
      <point x="444" y="-480" type="line"/>
      <point x="444" y="8" type="line" smooth="yes"/>
      <point x="444" y="267"/>
      <point x="527" y="310"/>
      <point x="788" y="488" type="curve" smooth="yes"/>
      <point x="946" y="596"/>
      <point x="1001" y="702"/>
      <point x="1001" y="894" type="curve" smooth="yes"/>
      <point x="1001" y="1210" type="line"/>
      <point x="1210" y="1210" type="line"/>
      <point x="919" y="1552" type="line"/>
      <point x="626" y="1210" type="line"/>
      <point x="835" y="1210" type="line"/>
      <point x="835" y="950" type="line" smooth="yes"/>
      <point x="835" y="825"/>
      <point x="798" y="737"/>
      <point x="669" y="662" type="curve" smooth="yes"/>
      <point x="216" y="399"/>
      <point x="168" y="308"/>
      <point x="168" y="8" type="curve"/>
    </contour>
    <contour>
      <point x="168" y="642" type="line"/>
      <point x="444" y="820" type="line"/>
      <point x="444" y="1900" type="line"/>
      <point x="168" y="1900" type="line"/>
    </contour>
  </outline>
</glyph>
<glyph name="uniE0B4.stypo" format="2">
  <advance width="1200"/>
  <note>
uniE0B4
</note>
  <outline>
    <contour>
      <point x="0" y="-480" type="line"/>
      <point x="723" y="-480"/>
      <point x="1200" y="-8"/>
      <point x="1200" y="710" type="curve" smooth="yes"/>
      <point x="1200" y="1427"/>
      <point x="723" y="1900"/>
      <point x="0" y="1900" type="curve"/>
    </contour>
  </outline>
</glyph>
<glyph name="uniE0B5.stypo" format="2">
  <advance width="1200"/>
  <note>
uniE0B5
</note>
  <outline>
    <contour>
      <point x="0" y="-480" type="curve"/>
      <point x="238" y="-480" type="line"/>
      <point x="850" y="-262"/>
      <point x="1200" y="171"/>
      <point x="1200" y="710" type="curve" smooth="yes"/>
      <point x="1200" y="1246"/>
      <point x="850" y="1680"/>
      <point x="238" y="1900" type="curve"/>
      <point x="0" y="1900" type="line"/>
      <point x="612" y="1674"/>
      <point x="962" y="1241"/>
      <point x="962" y="710" type="curve" smooth="yes"/>
      <point x="962" y="177"/>
      <point x="612" y="-256"/>
    </contour>
  </outline>
</glyph>
<glyph name="uniE0B6.stypo" format="2">
  <advance width="1200"/>
  <note>
uniE0B6
</note>
  <outline>
    <contour>
      <point x="1200" y="-480" type="curve"/>
      <point x="1200" y="1900" type="line"/>
      <point x="477" y="1900"/>
      <point x="0" y="1427"/>
      <point x="0" y="710" type="curve" smooth="yes"/>
      <point x="0" y="-8"/>
      <point x="477" y="-480"/>
    </contour>
    <contour>
      <point x="1200" y="-480" type="line"/>
      <point x="1300" y="-480" type="line"/>
      <point x="1300" y="1900" type="line"/>
      <point x="1200" y="1900" type="line"/>
    </contour>
  </outline>
</glyph>
<glyph name="uniE0B7.stypo" format="2">
  <advance width="1200"/>
  <note>
uniE0B7
</note>
  <outline>
    <contour>
      <point x="962" y="-480" type="curve"/>
      <point x="1200" y="-480" type="line"/>
      <point x="588" y="-256"/>
      <point x="238" y="177"/>
      <point x="238" y="710" type="curve" smooth="yes"/>
      <point x="238" y="1241"/>
      <point x="588" y="1674"/>
      <point x="1200" y="1900" type="curve"/>
      <point x="962" y="1900" type="line"/>
      <point x="350" y="1680"/>
      <point x="0" y="1246"/>
      <point x="0" y="710" type="curve" smooth="yes"/>
      <point x="0" y="171"/>
      <point x="350" y="-262"/>
    </contour>
  </outline>
</glyph>
<glyph name="uniE0BB.stypo" format="2">
  <advance width="1200"/>
  <note>
uniE0BB
</note>
  <outline>
    <contour>
      <point x="0" y="-480" type="line"/>
      <point x="56" y="-480" type="line"/>
      <point x="1200" y="1900" type="line"/>
      <point x="1144" y="1900" type="line"/>
    </contour>
  </outline>
</glyph>
<glyph name="uniE0BC.stypo" format="2">
  <advance width="1200"/>
  <note>
uniE0BC
</note>
  <outline>
    <contour>
      <point x="0" y="-480" type="line"/>
      <point x="1200" y="1900" type="line"/>
      <point x="0" y="1900" type="line"/>
    </contour>
    <contour>
      <point x="0" y="-480" type="line"/>
      <point x="0" y="1900" type="line"/>
      <point x="-100" y="1900" type="line"/>
      <point x="-100" y="-480" type="line"/>
    </contour>
  </outline>
</glyph>
<glyph name="uniE0C0.stypo" format="2">
  <advance width="1200"/>
  <note>
uniE0C0
</note>
  <outline>
    <contour>
      <point x="10" y="-480" type="line"/>
      <point x="31" y="-480"/>
      <point x="56" y="-448"/>
      <point x="80" y="-408" type="curve" smooth="yes"/>
      <point x="93" y="-383"/>
      <point x="106" y="-361"/>
      <point x="119" y="-337" type="curve" smooth="yes"/>
      <point x="141" y="-299"/>
      <point x="166" y="-270"/>
      <point x="187" y="-270" type="curve" smooth="yes"/>
      <point x="191" y="-270"/>
      <point x="195" y="-271"/>
      <point x="199" y="-273" type="curve" smooth="yes"/>
      <point x="209" y="-280"/>
      <point x="221" y="-283"/>
      <point x="231" y="-283" type="curve" smooth="yes"/>
      <point x="240" y="-283"/>
      <point x="248" y="-281"/>
      <point x="256" y="-278" type="curve" smooth="yes"/>
      <point x="265" y="-274"/>
      <point x="275" y="-269"/>
      <point x="285" y="-263" type="curve" smooth="yes"/>
      <point x="300" y="-253"/>
      <point x="327" y="-232"/>
      <point x="342" y="-224" type="curve" smooth="yes"/>
      <point x="353" y="-217"/>
      <point x="363" y="-211"/>
      <point x="371" y="-207" type="curve"/>
      <point x="354" y="-198"/>
      <point x="322" y="-188"/>
      <point x="299" y="-175" type="curve" smooth="yes"/>
      <point x="288" y="-167"/>
      <point x="277" y="-156"/>
      <point x="268" y="-144" type="curve" smooth="yes"/>
      <point x="243" y="-110"/>
      <point x="226" y="-93"/>
      <point x="207" y="-93" type="curve" smooth="yes"/>
      <point x="203" y="-93"/>
      <point x="198" y="-94"/>
      <point x="194" y="-96" type="curve" smooth="yes"/>
      <point x="181" y="-100"/>
      <point x="167" y="-113"/>
      <point x="152" y="-133" type="curve"/>
      <point x="152" y="-115" type="line" smooth="yes"/>
      <point x="149" y="-7"/>
      <point x="189" y="87"/>
      <point x="225" y="122" type="curve" smooth="yes"/>
      <point x="236" y="134"/>
      <point x="249" y="139"/>
      <point x="261" y="139" type="curve" smooth="yes"/>
      <point x="274" y="139"/>
      <point x="288" y="133"/>
      <point x="300" y="124" type="curve" smooth="yes"/>
      <point x="312" y="115"/>
      <point x="324" y="105"/>
      <point x="337" y="92" type="curve" smooth="yes"/>
      <point x="357" y="73"/>
      <point x="391" y="35"/>
      <point x="410" y="23" type="curve" smooth="yes"/>
      <point x="424" y="13"/>
      <point x="437" y="9"/>
      <point x="448" y="9" type="curve" smooth="yes"/>
      <point x="508" y="9"/>
      <point x="578" y="37"/>
      <point x="625" y="106" type="curve"/>
      <point x="597" y="86"/>
      <point x="571" y="75"/>
      <point x="547" y="75" type="curve" smooth="yes"/>
      <point x="536" y="75"/>
      <point x="526" y="78"/>
      <point x="516" y="82" type="curve" smooth="yes"/>
      <point x="491" y="92"/>
      <point x="471" y="124"/>
      <point x="461" y="155" type="curve" smooth="yes"/>
      <point x="451" y="185"/>
      <point x="434" y="236"/>
      <point x="421" y="263" type="curve" smooth="yes"/>
      <point x="414" y="276" type="line"/>
      <point x="435" y="294"/>
      <point x="448" y="309"/>
      <point x="462" y="334" type="curve" smooth="yes"/>
      <point x="464" y="338"/>
      <point x="469" y="349"/>
      <point x="476" y="363" type="curve" smooth="yes"/>
      <point x="483" y="377"/>
      <point x="488" y="388"/>
      <point x="491" y="395" type="curve" smooth="yes"/>
      <point x="497" y="405"/>
      <point x="503" y="409"/>
      <point x="512" y="409" type="curve" smooth="yes"/>
      <point x="527" y="409"/>
      <point x="545" y="396"/>
      <point x="562" y="379" type="curve" smooth="yes"/>
      <point x="577" y="364"/>
      <point x="607" y="330"/>
      <point x="624" y="313" type="curve" smooth="yes"/>
      <point x="636" y="300"/>
      <point x="646" y="290"/>
      <point x="655" y="283" type="curve" smooth="yes"/>
      <point x="672" y="269"/>
      <point x="690" y="263"/>
      <point x="705" y="263" type="curve" smooth="yes"/>
      <point x="713" y="263"/>
      <point x="738" y="269"/>
      <point x="747" y="269" type="curve" smooth="yes"/>
      <point x="769" y="269"/>
      <point x="812" y="309"/>
      <point x="842" y="340" type="curve" smooth="yes"/>
      <point x="859" y="356"/>
      <point x="890" y="391"/>
      <point x="906" y="408" type="curve" smooth="yes"/>
      <point x="925" y="428"/>
      <point x="952" y="458"/>
      <point x="969" y="478" type="curve"/>
      <point x="895" y="435"/>
      <point x="824" y="405"/>
      <point x="784" y="405" type="curve" smooth="yes"/>
      <point x="774" y="405"/>
      <point x="766" y="407"/>
      <point x="760" y="411" type="curve"/>
      <point x="760" y="412"/>
      <point x="694" y="460"/>
      <point x="683" y="477" type="curve" smooth="yes"/>
      <point x="656" y="515"/>
      <point x="620" y="582"/>
      <point x="590" y="618" type="curve" smooth="yes"/>
      <point x="580" y="630"/>
      <point x="571" y="636"/>
      <point x="564" y="636" type="curve" smooth="yes"/>
      <point x="563" y="636"/>
      <point x="562" y="636"/>
      <point x="560" y="635" type="curve" smooth="yes"/>
      <point x="547" y="630" type="line"/>
      <point x="556" y="655" type="line" smooth="yes"/>
      <point x="584" y="731"/>
      <point x="616" y="767"/>
      <point x="648" y="775" type="curve" smooth="yes"/>
      <point x="667" y="780"/>
      <point x="675" y="782"/>
      <point x="699" y="784" type="curve" smooth="yes"/>
      <point x="710" y="785"/>
      <point x="719" y="785"/>
      <point x="725" y="786" type="curve" smooth="yes"/>
      <point x="769" y="793"/>
      <point x="802" y="819"/>
      <point x="847" y="872" type="curve"/>
      <point x="835" y="866"/>
      <point x="824" y="864"/>
      <point x="812" y="864" type="curve" smooth="yes"/>
      <point x="802" y="864"/>
      <point x="792" y="866"/>
      <point x="783" y="871" type="curve" smooth="yes"/>
      <point x="754" y="886"/>
      <point x="742" y="883"/>
      <point x="712" y="902" type="curve" smooth="yes"/>
      <point x="694" y="913"/>
      <point x="679" y="930"/>
      <point x="667" y="956" type="curve" smooth="yes"/>
      <point x="661" y="970" type="line"/>
      <point x="680" y="982"/>
      <point x="706" y="1006"/>
      <point x="730" y="1042" type="curve" smooth="yes"/>
      <point x="736" y="1051"/>
      <point x="775" y="1117"/>
      <point x="777" y="1119" type="curve"/>
      <point x="809" y="1173"/>
      <point x="849" y="1201"/>
      <point x="884" y="1204" type="curve" smooth="yes"/>
      <point x="890" y="1204"/>
      <point x="895" y="1205"/>
      <point x="901" y="1205" type="curve" smooth="yes"/>
      <point x="932" y="1205"/>
      <point x="965" y="1199"/>
      <point x="994" y="1190" type="curve" smooth="yes"/>
      <point x="1016" y="1182"/>
      <point x="1039" y="1178"/>
      <point x="1062" y="1178" type="curve" smooth="yes"/>
      <point x="1076" y="1178"/>
      <point x="1089" y="1179"/>
      <point x="1102" y="1182" type="curve" smooth="yes"/>
      <point x="1135" y="1190"/>
      <point x="1171" y="1225"/>
      <point x="1200" y="1291" type="curve"/>
      <point x="1174" y="1256"/>
      <point x="1146" y="1242"/>
      <point x="1121" y="1242" type="curve" smooth="yes"/>
      <point x="1105" y="1242"/>
      <point x="1086" y="1249"/>
      <point x="1065" y="1267" type="curve" smooth="yes"/>
      <point x="1032" y="1293"/>
      <point x="1009" y="1319"/>
      <point x="972" y="1366" type="curve" smooth="yes"/>
      <point x="915" y="1440"/>
      <point x="858" y="1477"/>
      <point x="803" y="1477" type="curve" smooth="yes"/>
      <point x="772" y="1477"/>
      <point x="741" y="1466"/>
      <point x="711" y="1443" type="curve" smooth="yes"/>
      <point x="679" y="1418"/>
      <point x="636" y="1357"/>
      <point x="605" y="1317" type="curve" smooth="yes"/>
      <point x="578" y="1282"/>
      <point x="545" y="1253"/>
      <point x="513" y="1253" type="curve" smooth="yes"/>
      <point x="505" y="1253"/>
      <point x="497" y="1255"/>
      <point x="489" y="1259" type="curve" smooth="yes"/>
      <point x="445" y="1279"/>
      <point x="418" y="1341"/>
      <point x="418" y="1413" type="curve" smooth="yes"/>
      <point x="418" y="1474"/>
      <point x="437" y="1529"/>
      <point x="474" y="1561" type="curve" smooth="yes"/>
      <point x="493" y="1580"/>
      <point x="521" y="1601"/>
      <point x="540" y="1618" type="curve" smooth="yes"/>
      <point x="548" y="1625"/>
      <point x="557" y="1635"/>
      <point x="567" y="1646" type="curve" smooth="yes"/>
      <point x="588" y="1669"/>
      <point x="605" y="1699"/>
      <point x="622" y="1738" type="curve"/>
      <point x="591" y="1692"/>
      <point x="562" y="1663"/>
      <point x="531" y="1663" type="curve" smooth="yes"/>
      <point x="512" y="1663"/>
      <point x="493" y="1673"/>
      <point x="471" y="1698" type="curve" smooth="yes"/>
      <point x="448" y="1723"/>
      <point x="427" y="1735"/>
      <point x="407" y="1735" type="curve" smooth="yes"/>
      <point x="391" y="1735"/>
      <point x="377" y="1728"/>
      <point x="363" y="1715" type="curve" smooth="yes"/>
      <point x="347" y="1699"/>
      <point x="328" y="1673"/>
      <point x="308" y="1638" type="curve" smooth="yes"/>
      <point x="297" y="1618"/>
      <point x="277" y="1584"/>
      <point x="259" y="1556" type="curve" smooth="yes"/>
      <point x="250" y="1540"/>
      <point x="243" y="1530"/>
      <point x="237" y="1523" type="curve" smooth="yes"/>
      <point x="230" y="1516"/>
      <point x="222" y="1508"/>
      <point x="214" y="1498" type="curve" smooth="yes"/>
      <point x="201" y="1483"/>
      <point x="188" y="1476"/>
      <point x="176" y="1476" type="curve" smooth="yes"/>
      <point x="159" y="1476"/>
      <point x="144" y="1491"/>
      <point x="134" y="1525" type="curve" smooth="yes"/>
      <point x="130" y="1535"/>
      <point x="129" y="1545"/>
      <point x="129" y="1557" type="curve" smooth="yes"/>
      <point x="129" y="1574"/>
      <point x="134" y="1591"/>
      <point x="143" y="1608" type="curve" smooth="yes"/>
      <point x="150" y="1619"/>
      <point x="163" y="1637"/>
      <point x="182" y="1659" type="curve" smooth="yes"/>
      <point x="201" y="1681"/>
      <point x="213" y="1699"/>
      <point x="216" y="1710" type="curve" smooth="yes"/>
      <point x="224" y="1735"/>
      <point x="252" y="1817"/>
      <point x="263" y="1836" type="curve" smooth="yes"/>
      <point x="279" y="1868"/>
      <point x="294" y="1885"/>
      <point x="321" y="1882" type="curve"/>
      <point x="303" y="1904"/>
      <point x="285" y="1916"/>
      <point x="267" y="1916" type="curve" smooth="yes"/>
      <point x="241" y="1916"/>
      <point x="216" y="1896"/>
      <point x="190" y="1855" type="curve" smooth="yes"/>
      <point x="172" y="1826"/>
      <point x="160" y="1811"/>
      <point x="142" y="1792" type="curve" smooth="yes"/>
      <point x="132" y="1781"/>
      <point x="124" y="1774"/>
      <point x="116" y="1771" type="curve" smooth="yes"/>
      <point x="110" y="1769"/>
      <point x="104" y="1768"/>
      <point x="98" y="1768" type="curve" smooth="yes"/>
      <point x="78" y="1768"/>
      <point x="60" y="1784"/>
      <point x="43" y="1827" type="curve" smooth="yes"/>
      <point x="32" y="1856"/>
      <point x="29" y="1875"/>
      <point x="20" y="1890" type="curve" smooth="yes"/>
      <point x="14" y="1899"/>
      <point x="10" y="1899"/>
      <point x="1" y="1900" type="curve"/>
      <point x="1" y="1878"/>
      <point x="0" y="1853"/>
      <point x="0" y="1824" type="curve" smooth="yes"/>
      <point x="0" y="1771"/>
      <point x="1" y="1703"/>
      <point x="2" y="1624" type="curve" smooth="yes"/>
      <point x="3" y="1506"/>
      <point x="3" y="1429"/>
      <point x="4" y="1395" type="curve" smooth="yes"/>
      <point x="4" y="974"/>
      <point x="2" y="-284"/>
      <point x="1" y="-478" type="curve"/>
      <point x="4" y="-480"/>
      <point x="7" y="-480"/>
      <point x="10" y="-480" type="curve"/>
    </contour>
  </outline>
</glyph>
